<svg width="837" height="104" viewBox="0 0 837 104" fill="none" xmlns="http://www.w3.org/2000/svg">
<path d="M674.344 17.8209C674.211 17.5877 673.387 16.6584 672.681 16.5213C672.538 16.5118 672.252 16.4929 672.252 16.4929C672.834 16.906 674.288 17.7851 674.344 17.8209ZM674.457 17.7737C674.602 17.9563 674.392 17.843 674.344 17.8209C674.392 17.9463 674.481 18.1888 674.481 18.1888C678.632 15.8232 676.35 14.6573 672.489 16.3864C672.854 16.3707 673.574 16.3386 673.566 16.3378C673.792 16.752 674.238 17.577 674.238 17.577L674.457 17.7737ZM77.0125 34.5827C77.1456 34.6069 77.4284 34.6565 77.42 34.6558C76.6358 34.1456 76.9288 34.475 77.0125 34.5827ZM0.539842 20.1478C0.703537 20.3087 2.27291 20.1185 2.27291 20.1185C2.10365 19.9235 2.22932 20.0348 2.3477 20.1326C2.6738 20.0697 3.32578 19.9466 3.32578 19.9466C2.89893 19.9029 2.04546 19.8127 2.05384 19.8134C1.60396 19.8426 0.461704 19.9734 0.539842 20.1478ZM10.8484 24.2372C10.9953 24.3968 11.6795 24.3926 11.6795 24.3926C11.8011 24.4519 13.7289 24.3152 13.7289 24.3152C13.6284 23.8058 13.7632 24.1089 13.8867 24.3465C14.3822 24.2774 15.3817 24.1371 15.3817 24.1371C14.8079 23.9338 13.6692 23.5227 13.6776 23.5234C13.5755 23.5329 12.8937 23.6096 12.8937 23.6096C12.0908 23.7199 10.8509 23.907 10.8484 24.2372ZM4.26336 21.4405C4.42927 21.4752 5.12933 21.4826 5.0872 21.4817C5.16491 21.261 5.2012 21.3312 5.239 21.3835C5.38366 21.3699 5.68953 21.3466 5.68115 21.3459C5.4903 21.3066 5.08369 21.2232 5.09207 21.2239C4.74407 21.2462 4.26558 21.3142 4.26336 21.4405ZM525.555 89.9271C521.54 87.8792 527.297 91.8891 528.245 92.5628C523.304 92.8919 517.489 92.7702 513.66 91.0271C509.721 88.5854 522.316 87.3973 522.316 87.3973C526.566 88.7474 535.059 91.4444 535.059 91.4444C533.178 91.722 529.4 92.2783 529.4 92.2783L525.555 89.9271ZM360.08 75.8768C358.811 75.4134 360.64 76.3474 360.939 76.5018C359.839 76.7316 357.421 77.1729 355.976 76.687C354.624 76.2011 359.084 75.2712 359.076 75.2731C360.511 75.4717 363.365 75.8649 363.365 75.8649C362.674 76.0493 361.301 76.4136 361.301 76.4136L360.08 75.8768ZM352.863 76.561C352.792 76.506 352.96 76.6157 353.047 76.6824C351.713 76.8848 352.126 76.2949 353.418 76.5924C353.297 76.6235 353.047 76.6824 353.047 76.6824L352.863 76.561ZM348.745 75.2427C347.33 74.4133 348.939 75.1429 348.931 75.1397C348.869 75.1732 348.745 75.2427 348.745 75.2427ZM200.745 31.7985C200.385 31.7553 199.648 31.7834 199.657 31.7841C196.47 31.7397 195.008 30.9503 194.435 30.0345C194.088 28.8512 196.403 28.3263 199.841 28.299C201.374 29.3397 204.491 31.4177 204.491 31.4177C203.235 31.5027 200.721 31.6752 200.73 31.6759C200.735 31.7176 200.745 31.7985 200.745 31.7985ZM180.725 29.8376L180.27 28.9292C180.394 29.2623 180.507 29.9302 180.507 29.9276C180.367 29.7816 179.876 29.4949 179.844 29.4767L179.844 29.4741C179.953 29.2922 180.252 28.9483 180.271 28.9266L180.271 28.9241L180.27 28.9292L180.271 28.9266L180.725 29.8376ZM179.844 29.4767C178.341 31.1776 178.63 29.4645 178.668 29.3128L178.667 29.3205L178.669 29.3026C178.749 28.7466 179.781 29.4249 179.844 29.4741L179.844 29.4767ZM180.271 28.9241C180.291 28.887 180.339 28.8137 180.339 28.8137C180.775 29.1551 181.662 29.8393 181.663 29.8367C181.35 29.8387 180.725 29.8376 180.725 29.8376L180.271 28.9241ZM177.174 27.3022C176.196 25.7868 177.169 28.5616 177.317 29.0181C174.03 28.9523 171.919 28.2552 171.162 27.2181C170.394 25.5165 176.824 25.5481 176.824 25.5481C178.231 26.591 181.102 28.6716 181.102 28.6716C180.047 28.7761 177.936 28.98 177.936 28.98L177.174 27.3022ZM179.435 23.0267C179.506 23.0843 179.605 23.3095 179.634 23.3713C180.377 23.3593 181.608 23.3831 182.384 23.495C182.542 24.1228 182.874 25.3823 182.874 25.3823C182.109 25.4443 180.588 25.5637 180.588 25.5637C180.087 25.098 180.171 23.6052 179.483 23.3509C179.664 24.1071 180.127 25.6255 180.127 25.6255C176.659 25.405 171.916 23.5951 179.483 23.3509L179.435 23.0267ZM141.675 55.6135C140.793 53.8609 141.605 56.9474 141.718 57.4036C138.173 56.903 136.053 55.9134 135.328 54.7963C134.682 52.8597 141.508 53.5908 141.508 53.5908C142.865 54.9239 145.662 57.5842 145.662 57.5842C144.559 57.5556 142.336 57.4893 142.336 57.4893L141.675 55.6135ZM141.021 38.8626C139.042 36.3024 141.011 40.8781 141.314 41.5904C135.174 40.9198 130.613 39.4531 129.058 37.4682C127.531 34.6544 140.231 35.9251 140.231 35.9251C142.983 37.9259 148.708 41.9073 148.708 41.9073C146.655 41.8218 142.559 41.6464 142.559 41.6464L141.021 38.8626ZM120.939 52.0456C120.697 51.514 120.914 52.4437 120.936 52.5875C118.334 52.2027 118.66 51.5486 119.602 51.388L118.314 51.3413C117.15 47.732 117.643 50.789 117.706 51.2486C114.007 50.7583 112.127 49.7373 111.597 48.6057C111.152 46.6835 117.813 47.5788 117.813 47.5788C119.062 48.877 121.638 51.4644 121.638 51.4644L120.704 51.4294L120.853 51.4704C121.255 51.8994 122.078 52.7562 122.078 52.7562C121.753 52.7081 121.111 52.6126 121.111 52.6126L120.939 52.0456ZM119.602 51.388C119.927 51.3329 120.332 51.3386 120.704 51.4294L119.602 51.388ZM121.341 45.2821C122.307 46.2465 124.271 48.173 124.271 48.173C123.464 48.1359 121.85 48.059 121.858 48.0597C120.885 45.3907 121.204 47.7076 121.248 48.0933C116.804 47.2329 113.668 44.4769 121.341 45.2821ZM134.923 23.6014C134.801 23.4363 135.027 23.2669 135.372 23.1773C136.178 22.9303 137.807 22.4379 137.798 22.4372C138.58 22.6761 140.135 23.1559 140.135 23.1559C139.601 23.2812 138.533 23.5319 138.533 23.5319C137.442 22.6575 138.1 23.4592 138.215 23.6057C137.486 23.7378 135.666 23.9998 134.923 23.6014ZM136.715 19.5653C135.47 19.8165 131.638 20.6109 129.973 20.1321C128.833 19.4369 135.519 18.1348 135.468 18.1434C137.133 18.3175 140.447 18.6566 140.447 18.6566C139.421 18.9108 137.344 19.417 137.344 19.4145C134.963 18.3228 136.437 19.3611 136.715 19.5653ZM133.035 21.9602C131.788 21.2354 133.125 22.0918 132.885 21.9373C130.591 22.4148 131.02 21.8263 132.539 21.637C132.951 21.6588 133.774 21.7025 133.774 21.7025C133.531 21.7878 133.035 21.9602 133.035 21.9602ZM140.288 17.6466C140.451 17.7121 140.786 17.8462 140.786 17.8462C140.682 17.871 140.475 17.9232 140.475 17.9232C139.986 17.3217 140.483 18.0297 140.401 17.9092C139.912 17.9996 139.166 17.9366 140.288 17.6466ZM145.144 19.7268C145.644 19.8026 146.652 19.9523 146.652 19.9523C146.342 20.0268 145.713 20.1802 145.713 20.1802C144.059 19.2713 145.884 20.3522 145.555 20.1565C144.135 20.473 142.15 20.3881 145.144 19.7268ZM141.478 25.4431C138.314 26.0305 139.196 25.1807 141.051 25.012C141.596 25.0503 142.687 25.132 142.687 25.132C142.331 25.2414 141.637 25.4668 141.637 25.4668C140.043 24.4416 141.781 25.6545 141.478 25.4431ZM149.065 19.57C149.662 19.7004 150.865 19.9568 150.856 19.9561C150.476 20.0633 149.69 20.2758 149.69 20.2732C148.847 19.6522 149.355 20.2449 149.454 20.3618C148.922 20.4717 147.465 20.7334 146.997 20.3712C146.585 20.0499 149.083 19.5662 149.065 19.57ZM150.028 21.6726L149.822 21.5107C150.007 21.5211 150.206 21.5535 150.421 21.6078C150.293 21.6305 150.028 21.6726 150.028 21.6726ZM149.687 21.507C149.737 21.6197 149.914 21.8231 149.876 21.7734C148.42 22.0094 148.726 21.4956 149.687 21.507ZM150.896 24.9833C153.438 25.6781 158.555 27.0549 158.555 27.0549C158.106 27.0738 157.217 27.1098 157.225 27.1105C157.25 27.1152 157.3 27.122 157.3 27.122C156.332 27.19 154.396 27.3209 154.396 27.3209C154.422 27.323 154.48 27.3331 154.471 27.3324C153.956 27.3379 152.835 27.22 152.835 27.22C152.842 27.2361 152.916 27.3534 152.983 27.3617C150.025 27.4062 145.086 27.4076 142.649 26.4764C140.871 25.3376 150.896 24.9833 150.896 24.9833ZM156.417 23.0846C156.821 23.1031 157.645 23.1392 157.645 23.1392C157.385 23.223 156.864 23.3933 156.864 23.3933C155.573 22.688 157.038 23.5268 156.789 23.3818C155.938 23.5553 154.096 23.5805 156.417 23.0846ZM155.527 29.9257C154.731 29.9617 153.777 29.9536 153.4 29.6222C153.104 29.3313 155.144 29.2609 155.144 29.2609C155.668 29.4548 156.716 29.8479 156.716 29.8479C156.375 29.8811 155.686 29.9468 155.686 29.9468C154.987 29.3276 155.466 29.8534 155.527 29.9257ZM159.38 24.4835C160.133 24.2657 161.631 23.8241 161.631 23.8241C162.45 24.0223 164.088 24.4136 164.088 24.4136C163.579 24.5462 162.544 24.8074 162.544 24.8074C161.409 23.95 162.103 24.7365 162.233 24.887C161.356 25.0814 157.604 25.4256 159.38 24.4835ZM165.096 26.3833C165.641 26.4164 166.725 26.4846 166.725 26.4846C166.422 26.5675 165.793 26.7235 165.793 26.7235C165.348 26.4975 165.145 26.4029 165.07 26.3888L165.096 26.3833ZM165.044 26.3944C165.072 26.4664 165.809 26.9289 165.641 26.8243C163.786 27.0963 162.553 27 165.044 26.3944ZM126.212 20.2871L126.013 20.0457C126.223 20.048 126.458 20.0703 126.716 20.1179C126.542 20.173 126.211 20.2896 126.212 20.2871ZM125.979 20.0454L126.137 20.2756C124.54 20.4893 124.891 20.0336 125.979 20.0454ZM125.858 18.8735C121.392 19.5731 123.689 18.1689 125.47 18.0714C126.055 18.2447 127.224 18.5938 127.224 18.5938C126.856 18.6582 126.11 18.7889 126.11 18.7889C125.327 18.1677 125.767 18.7522 125.858 18.8735ZM122.029 18.638C120.575 17.7563 122.049 18.8902 121.852 18.7341C118.715 19.1921 119.606 18.4335 121.501 18.1856C122.001 18.2639 123.001 18.4232 123.001 18.4232C122.674 18.4937 122.029 18.638 122.029 18.638ZM116.906 16.2203C116.9 16.1914 116.899 16.1991 116.914 16.221C117.057 16.2253 117.216 16.2465 117.382 16.2837C117.245 16.3031 116.98 16.3427 116.98 16.3427C115.724 16.5181 116.132 16.1885 116.906 16.2203ZM116.914 16.221L116.98 16.3427L116.906 16.2203L116.914 16.221ZM113.977 15.1082C112.963 14.4262 113.918 15.3149 113.801 15.2018C111.484 15.5406 112.115 14.9691 113.607 14.7981C113.973 14.8575 114.714 14.9794 114.714 14.9794C114.466 15.0204 113.977 15.1082 113.977 15.1082ZM795.487 54.2014C795.005 54.4137 793.93 54.5501 793.06 54.2521C792.29 53.7817 781.138 46.3811 779.602 47.9785C780.661 47.7272 781.446 49.8329 781.424 49.7872C780.755 49.4158 779.365 48.6763 779.365 48.6763C779.419 48.4433 779.602 47.9785 779.602 47.9785C779.182 47.9483 778.625 48.144 778.625 48.144C776.103 46.5163 774.792 45.151 773.667 43.476C769.647 34.6947 787.164 36.7955 783.883 27.8622C780.37 28.3789 775.061 28.8627 773.752 26.8676C771.837 22.9523 767.692 24.3476 761.924 23.9743C757.272 23.6798 755.053 23.7635 750.967 22.4763C749.676 22.0653 747.016 22.6746 747.024 22.6753C751.457 23.6639 760.322 25.6514 760.322 25.6514C760.756 25.3086 762.081 24.1141 763.982 24.6024C765.81 25.1465 769.267 26.3006 769.267 26.3006C771.812 27.3442 776.821 29.4192 777.017 29.4977L777.016 29.5002C771.416 28.2401 760.322 25.6514 760.322 25.6514C760.039 25.9115 759.514 26.43 759.514 26.43C758.045 26.1227 755.093 25.3959 755.093 25.3959C754.022 25.0783 746.052 25.3892 746.357 25.3788C745.175 26.18 743.883 27.0804 741.991 27.7029C739.737 28.3 737.883 28.1642 735.201 28.4284C732.725 28.4569 731.391 27.4588 729.759 28.2943C728.192 29.1585 725.736 31.1482 725.763 31.1298C723.944 32.1742 724.073 30.8478 719.095 30.9181C714.395 31.0868 717.978 30.0493 717.77 30.1118C716.82 29.363 714.058 27.3795 712.447 26.7658C711.91 26.7308 710.844 26.6589 710.852 26.6596C710.24 26.5047 710.374 26.5263 709.898 26.3571C708.919 26.0576 707.012 26.6453 707.012 26.6453C705.148 25.4217 703.707 24.2907 702.869 23.022C696.405 22.6907 683.471 21.9965 683.471 21.9965C677.459 21.5174 671.259 21.2626 665.686 21.577C667.602 20.5821 671.45 18.5938 671.45 18.5938C666.791 18.1825 662.33 18.1312 658.373 18.6026C656.41 18.8577 652.464 19.3043 649.969 19.1506C648.57 18.4232 645.755 16.9722 645.755 16.9722C635.574 16.1696 622.2 15.5002 615.171 17.4627C612.964 18.3039 611.272 19.2403 608.614 19.9298C604.871 20.7653 600.824 18.6113 600.824 18.6113C597.767 18.6141 593.145 18.5673 590.069 18.3051C587.435 18.2067 585.135 18.5521 583.26 18.9618C577.971 19.1143 567.393 19.4167 567.393 19.4167C566.722 19.2697 560.438 18.1042 560.424 18.2657C549.239 17.4635 537.272 16.3166 525.98 15.384C520.67 15.0855 516.014 15.7355 512.591 16.6806C511.335 16.5617 508.814 16.318 508.814 16.318C507.337 16.423 504.39 16.6286 504.39 16.6286C507.151 17.7265 512.672 19.9172 512.673 19.9146C513.914 20.306 516.531 20.8108 517.62 21.0137C516.744 20.8882 516.255 21.1851 514.995 20.9032C514.154 20.5714 513.557 20.2345 512.673 19.9146C508.364 18.8539 499.403 16.9047 499.403 16.9047C494.689 16.7366 486.442 18.8338 483.351 16.4431C483.185 16.3154 483.078 16.1876 482.911 16.0548C481.396 16.8073 480.936 17.561 478.795 18.413C476.548 19.0288 474.789 18.7718 472.242 19.0473C469.796 19.2204 468.523 18.1965 466.908 18.925C465.596 19.8676 463.113 21.775 463.113 21.775C461.362 22.8173 461.372 21.6047 456.57 21.6822C452.361 21.8458 455.189 20.9409 455.38 20.8821C453.989 19.763 450.303 17.4227 450.303 17.4227C449.766 17.3851 448.692 17.3099 448.692 17.3099C447.428 17.1774 448.059 16.8021 446.587 17.0445C446.578 17.2425 446.553 17.638 446.553 17.638C445.895 17.4327 444.588 17.0203 444.588 17.0203C441.126 15.9304 407.068 4.76327 407.895 4.6704C406.927 4.03366 408.145 4.30686 406.796 3.98902C403.207 2.90382 402.922 3.47359 400.336 4.21562C400.806 5.04786 401.746 6.71492 401.746 6.71235C400.548 6.10521 398.16 4.88651 398.16 4.88651C398.059 4.08027 397.857 2.47292 397.857 2.47292C398.584 2.1702 400.028 1.56151 400.028 1.56151C399.386 1.16141 397.058 0.435679 395.71 0.512872C395.116 0.746733 393.928 1.21189 393.928 1.21189C394.023 1.69744 394.219 2.66924 394.219 2.66924C389.547 0.916891 390.68 1.1907 384.316 0.578631C383.163 0.434849 382.478 0.346069 381.793 0.259854C382.614 1.04164 384.263 2.60593 384.263 2.60593C382.911 2.41697 381.557 2.26389 380.352 1.93758C378.508 1.3792 371.946 0.809814 369.748 0.841178C367.692 1.00063 358.429 6.13071 359.224 5.70735C358.766 7.73144 356.737 9.67193 351.603 10.6818C347.145 11.3923 327.808 14.7504 324.004 14.7082C320.942 14.3826 315.854 13.46 313.54 12.6632C310.384 11.4518 311.016 12.6669 308.678 12.5625C307.975 12.4903 307.333 12.2941 306.746 12.1413C302.153 12.3551 292.589 12.4411 292.589 12.4411C292.275 12.7682 291.72 13.434 291.72 13.434C290.897 13.491 289.137 13.536 289.137 13.536C284.912 15.0872 276.682 18.2702 276.682 18.2677C276.311 18.4661 275.635 18.8789 275.635 18.8789C272.064 20.5731 265.936 21.8604 262.522 23.5059C262.258 23.7315 259.58 25.958 259.547 25.95C257.675 27.3178 257.421 26.2352 253.16 27.3033C250.664 27.9678 250.259 27.8639 251.865 27.0416C250.015 26.3639 246.374 24.993 246.374 24.993C245.968 24.9975 246.491 24.9073 245.949 24.8254C244.97 24.8151 243.455 25.5676 242.97 25.8157C241.203 24.8482 240.393 23.7369 240.299 22.7479C239.01 22.226 236.181 20.6319 234 21.0648C232.062 21.6241 231.309 22.8462 230.997 20.2331C227.535 19.7472 228.451 19.0009 227.972 18.0698C226.23 17.502 222.933 16.2659 222.933 16.2659C222.346 16.5184 221.147 17.0187 221.147 17.0161C221.096 16.5264 220.992 15.5496 220.992 15.5496C218.735 14.6904 212.496 12.2972 209.858 11.6434C206.79 11.2812 198.626 13.5971 198.911 13.5205C200.812 14.4968 204.658 16.435 204.658 16.435C202.762 16.6002 198.953 16.9215 198.953 16.9215C198.239 15.9809 196.827 14.101 196.827 14.101C196.55 14.1835 196.045 14.3629 196.045 14.3629C196.587 15.2476 197.772 17.0128 197.772 17.0128C194.44 17.0776 190.678 16.8452 187.588 16.0448C184.951 15.9797 179.67 15.8334 179.67 15.8334C176.535 16.8725 170.175 18.9173 170.175 18.9173C173.034 19.6415 178.789 21.0695 178.789 21.0695C176.799 21.2475 172.81 21.5975 172.81 21.5975C171.26 21.0588 170.187 19.1688 168.73 19.3272C169.66 20.1105 171.597 21.6732 171.597 21.6732C168.025 21.7822 163.487 21.7399 159.876 21.0117C158.776 21.2416 155.25 22.0076 153.733 21.4768C152.532 20.9107 159.007 19.4074 158.972 19.4149C159.122 19.4378 159.423 19.4787 159.423 19.4787C160.828 19.2333 163.996 18.9069 163.996 18.9069C163.866 18.8495 163.623 18.7308 163.623 18.7308C167.39 16.906 174.759 13.2115 174.759 13.2115C174.834 11.8238 169.386 13.2537 169.533 13.217C169.849 12.7713 170.49 11.8856 170.49 11.8856C170.641 10.6876 172.312 9.69788 168.92 10.0751C165.012 10.5662 166.695 12.0301 167.096 13.4812C163.102 15.2016 154.931 18.5884 154.931 18.5884C153.151 18.371 149.6 17.9319 149.6 17.9319C148.246 18.0757 144.83 17.839 144.83 17.839C141.908 17.7524 139.808 17.2343 137.211 16.6899C135.469 16.7261 136.079 16.5969 136.261 16.5426C135.206 16.3374 133.097 15.9295 133.097 15.9295C130.958 15.9684 126.663 16.0345 126.663 16.0345C125.934 15.8774 124.466 15.5625 124.466 15.5625C124.643 15.6677 124.937 15.8862 124.937 15.8836C121.579 16.4599 116.562 16.5889 122.577 15.1371C121.998 15.003 120.839 14.7322 120.839 14.7322C120.189 12.7308 122.412 7.49436 123.237 5.31798C121.847 6.69279 115.306 13.3668 112.739 13.7826C110.417 13.4808 109 13.973 106.291 13.4552C103.636 13.1072 103.07 14.0171 99.9455 14.1252C97.6254 14.2082 95.643 14.1906 93.763 14.5611C92.1449 14.928 85.8372 18.947 86.1699 19.006L84.6283 20.3681C89.7741 20.312 128.138 19.368 127.187 21.4279C125.726 22.2391 122.373 23.7607 122.373 23.7607C123.834 23.6568 126.771 23.4607 126.771 23.4607C129.268 24.1775 134.298 25.5986 134.298 25.5986C132.729 25.6881 129.59 25.8672 129.59 25.8672C126.532 24.1969 127.894 25.2542 128.638 25.8437C125.765 25.88 121.915 25.7822 119.194 25.1162C115.546 26.729 107.96 29.8889 107.96 29.8863C107.896 29.9429 108.726 33.622 104.755 37.0536C100.688 36.2378 92.5876 34.5859 92.5876 34.5859C91.9744 34.6503 90.7562 34.7799 90.7562 34.7799C90.2955 34.537 89.3907 34.0553 89.3907 34.0553C89.7127 34.3407 90.1361 34.9263 90.1361 34.9263C89.7453 34.9553 88.9249 34.9738 88.9249 34.9738C89.0912 35.0033 89.4243 35.0573 89.4243 35.0573C88.9562 35.1029 88.6643 35.0602 88.2131 35.1048C89.1843 37.3011 88.0964 37.088 90.5637 37.3608C91.1162 37.6165 92.2209 38.1306 92.2209 38.1306C91.811 38.1863 90.9825 38.2997 90.9825 38.2997C90.3322 37.4032 90.6907 38.1563 90.7328 38.258C90.3844 38.2853 89.6879 38.335 89.6879 38.335C90.2431 39.5591 89.9539 39.2843 90.7708 39.5081L90.8833 39.7758C90.7715 39.7999 90.6324 39.8475 90.4484 39.8268C90.5787 40.0831 92.9826 45.8082 95.6621 44.2685C94.0779 44.3336 96.7841 40.3771 96.7253 40.4728C92.6348 40.2282 95.9989 39.2782 97.5674 38.9975C97.6978 38.8536 97.8086 38.5403 97.8086 38.5403C99.1033 39.2046 99.4447 38.6603 100.696 38.6343C104.146 38.7706 111.013 39.0249 111.013 39.0249C114.249 40.3953 120.84 43.1176 120.84 43.1176C118.748 43.0056 114.563 42.7788 114.563 42.7788C109.908 39.2131 112.859 42.2607 113.286 42.7072C108.998 42.2987 104.466 41.5832 101.202 40.4454C100.967 40.423 100.826 40.4988 100.6 40.4746C99.7801 41.087 98.1904 42.3185 98.1904 42.3185C98.2985 42.3379 98.5319 42.3731 98.5235 42.3724C98.3786 42.3886 98.0885 42.426 98.0885 42.426C97.2604 43.0351 95.6621 44.2685 95.6621 44.2685C97.2604 44.1349 99.0079 43.7351 100.67 43.9502C102.563 44.0274 100.815 43.0331 104.852 44.6054C104.297 44.685 103.178 44.8384 103.178 44.8384C102.142 43.8137 102.723 44.7328 102.826 44.9068C102.297 44.968 101.69 44.9632 101.089 44.8815C101.414 46.729 104.001 46.3923 104.011 47.067C105.536 46.7026 105.701 46.7501 107.15 47.1848C106.827 47.2168 106.18 47.281 106.18 47.281C105.379 46.8674 105.826 47.2718 105.911 47.3642C105.375 47.4144 104.45 47.4655 103.907 47.2983C102.606 48.3166 98.6517 48.7548 95.4601 49.0611C95.6531 49.1755 96.0476 49.4024 96.0476 49.4024C95.6678 49.3006 94.9167 49.0978 94.9167 49.0978C94.8583 49.0903 94.7418 49.0701 94.7418 49.0701C94.7935 49.1571 94.8044 49.3284 94.8044 49.3284C94.5461 49.2886 94.0215 49.203 94.0215 49.203C81.4941 50.0973 47.6742 50.3147 44.6217 53.7746C48.1445 53.8448 55.5941 54.0993 55.6958 55.6956C54.9483 58.5498 61.0339 58.1625 67.1684 58.9952C72.2669 59.7999 74.4984 59.867 78.7607 61.3782C81.3116 61.9601 90.3456 61.3466 96.0192 61.7403C107.275 62.7111 114.741 62.0685 127.594 63.7162C133.711 64.5527 141.273 65.382 147.524 65.6335C144.737 66.152 139.122 67.1651 139.122 67.1651C143.802 67.8261 149.361 68.2695 154.016 68.3294C162.73 68.2155 162.688 68.0081 167.37 70.4403C172.358 73.1615 186.434 80.5275 196.784 80.1181C199.841 79.705 202.131 79.1805 205.417 78.9622C208.685 78.8457 211.742 79.4367 213.829 80.4132C217.584 80.6346 222.254 80.9178 225.944 81.2965C228.683 81.5535 231.531 81.5202 233.986 81.3402C240.079 81.5628 252.235 81.9641 252.235 81.9641C253.016 82.1126 259.712 83.1942 259.737 83.1008C272.459 84.4018 285.135 85.6473 297.874 86.8491C305.873 87.4985 316.634 78.5242 316.498 78.6367C325.713 78.6762 344.075 78.6719 344.075 78.6719C343.982 78.6641 343.806 78.6493 343.806 78.6493C345.959 78.5547 350.247 78.359 350.247 78.359C343.851 74.8218 351.756 78.68 350.969 78.3012C350.731 78.3199 350.247 78.359 350.247 78.359C350.305 78.364 350.423 78.3739 350.423 78.3739C349.771 78.4918 348.354 78.6769 348.354 78.6769C361.84 78.6302 388.682 78.3736 388.682 78.3736C391.666 78.3261 397.617 78.2295 397.617 78.2295C400.355 77.9907 405.381 77.7541 407.313 78.9679C408.966 80.3956 408.454 79.9523 413.017 80.7092L416.604 81.2159C415.797 80.6728 414.04 79.5925 414.04 79.5925C410.61 75.5131 413.339 77.9895 415.258 79.561C417.229 79.5106 421.172 79.4019 421.172 79.4019C422.444 80.1341 424.98 81.5951 424.98 81.5951C428.208 80.9562 434.632 79.6655 434.632 79.6655C438.648 79.7953 446.672 80.0467 446.672 80.0467C446.757 79.5349 446.919 78.5108 446.919 78.5108C460.365 85.1395 487.906 98.3021 487.906 98.2995C488.459 98.0467 489.739 97.5868 489.739 97.5868C492.909 97.0411 499.231 95.9432 499.231 95.9432C503.374 96.5743 511.659 97.8338 511.659 97.8338C509.725 98.1456 505.839 98.7703 505.839 98.7703C498.413 96.233 503.846 98.5788 504.652 98.9308C503.271 99.093 500.203 99.2368 500.203 99.2368C501.162 99.5785 503.079 100.262 503.079 100.262C503.29 100.873 503.718 102.1 503.718 102.097C502.931 102.325 501.373 102.782 501.373 102.782C502.258 103.094 505.147 103.573 506.303 103.583C506.944 103.387 508.218 102.991 508.218 102.991C508.039 102.619 507.662 101.878 507.662 101.878C508.904 102.161 511.382 102.718 511.382 102.718C511.959 102.682 513.089 102.591 513.089 102.591C513.538 102.779 514.451 103.158 514.451 103.158C516.903 103.316 521.814 103.635 521.814 103.635C520.889 103.095 519.038 102.019 519.038 102.019C518.336 102.133 516.933 102.361 516.933 102.361C516.051 101.909 514.983 100.36 514.173 100.15C514.876 100.919 516.511 102.454 516.511 102.454C512.839 102.454 506.53 100.889 514.173 100.15C513.994 99.8742 514.262 100.093 514.341 100.159C515.288 100.144 517.166 100.103 517.166 100.103C517.816 100.703 519.107 101.904 519.107 101.904C520.978 102.441 532.898 103.249 535.267 103.18C537.926 102.78 543.902 100.295 545.975 99.4319C545.982 97.6486 548.521 96.2752 553.206 95.5811C555.917 95.2627 581.773 91.7913 581.848 92.1023C586.245 92.4115 590.551 93.1003 594.803 93.7405C594.039 93.2914 593.259 92.3297 593.259 92.3297C592.844 92.1424 589.6 90.5725 589.753 90.5571C589.457 90.3668 588.319 89.6486 587.531 89.5821C585.834 90.2754 582.442 91.6594 582.442 91.6594C581.135 90.3434 578.513 87.7082 578.513 87.7082C614.509 87.2046 686.272 85.9276 686.272 85.9276C686.809 85.3714 688.065 83.8948 690.334 83.9185C692.609 84.0616 694.884 84.2149 697.16 84.3605C700.468 84.774 707.083 85.6061 707.083 85.6061C708.863 85.7202 711.661 85.5871 713.043 85.5076C712.127 85.6626 711.509 86.0778 709.976 86.0361C708.97 85.9615 708.024 85.768 707.083 85.6061C700.097 85.6592 686.272 85.9302 686.272 85.9276C685.982 86.2671 685.527 86.9593 685.527 86.9593C683.871 86.977 681.595 87.0353 679.93 86.9593C677.946 87.0578 671.307 88.697 669.402 89.1635C668.178 90.2658 665.688 92.2578 663.599 93.1013C675.189 92.4195 700.809 88.8276 701.587 88.7125C704.691 88.6492 709.253 88.9078 711.833 88.5499C714.853 87.2739 720.901 84.7277 720.901 84.7277C722.264 84.9796 724.991 85.4808 724.991 85.4808C722.837 87.0907 718.556 90.3101 718.556 90.3101C719.493 91.3083 723.645 89.9239 723.611 89.9313C723.653 90.3324 723.728 91.1365 723.728 91.1365C724.776 92.2318 723.893 92.7923 726.744 92.4134C730.036 91.8136 727.602 90.9549 725.781 89.7195C728.301 88.1741 733.356 85.0897 733.356 85.0897C735.159 85.1335 738.773 85.2243 738.765 85.2236C741.207 84.8876 745.704 85.1226 748.534 85.3021C750.951 85.4725 753.376 85.6411 755.793 85.8141C757.691 85.631 761.504 85.2635 761.504 85.2635C763.654 85.4966 767.945 85.9673 767.945 85.9673C769.787 86.7475 774.113 92.702 774.58 93.3739C774.544 92.1936 774.379 86.6524 776.197 86.2121C778.383 86.314 779.297 85.787 782.18 85.94C784.769 86.0708 784.729 85.3497 787.148 84.9962C788.928 84.8031 790.877 84.7172 792.128 84.3013C794.079 83.3894 794.335 80.4576 794.288 79.2068C793.597 76.0969 792.393 70.153 794.315 67.496C795.47 65.2106 781.87 65.906 781.074 64.9404C781.435 62.557 777.281 57.7634 778.015 53.4777C784.374 54.3527 788.928 55.3076 795.716 55.891C797.229 55.4714 793.511 50.619 792.738 49.5676C793.139 50.1254 795.914 53.8527 795.487 54.2014ZM777.016 29.5002C779.828 30.494 781.005 30.3507 782.5 30.7453C782.475 30.7432 782.416 30.7383 782.416 30.7383C781.235 30.4243 780.734 30.9654 779.22 30.4995C778.517 30.3214 777.081 29.5392 777.016 29.5002ZM517.869 21.058L518.119 21.1023C518.085 21.1021 518.035 21.0978 518.035 21.0978L517.869 21.058ZM455.38 20.8821C455.397 20.8784 455.397 20.881 455.38 20.8847L455.38 20.8821ZM137.211 16.6899L137.162 16.678C137.161 16.6805 137.211 16.6873 137.228 16.6888L137.211 16.6899ZM90.812 39.5193C90.9853 39.5675 91.207 39.6405 91.4933 39.7498C91.3233 39.7639 90.9667 39.788 90.9667 39.788L90.812 39.5193ZM774.58 93.3739C774.632 93.448 774.631 93.4583 774.579 93.3841L774.58 93.3739ZM831.053 38.4012L831.313 38.6245C832.012 38.5441 831.98 38.1283 831.053 38.4012ZM831.313 38.6245C831.415 38.7106 831.375 38.6866 831.287 38.6275L831.313 38.6245ZM831.287 38.6275L830.969 38.3942C830.887 38.4673 830.706 38.612 830.706 38.6095C830.932 38.6388 831.126 38.6423 831.287 38.6275ZM158.65 19.7361C158.775 19.7545 158.885 19.6476 158.885 19.6476C158.427 19.5805 158.51 19.5952 158.65 19.7361ZM836.588 39.3434C836.161 39.1913 835.139 39.6988 835.139 39.6988C834.741 39.7142 834.557 39.8949 834.363 39.9921C834.774 40.0268 835.604 40.0968 835.604 40.0968C835.981 39.9324 836.569 39.5587 836.569 39.5613L836.588 39.3434ZM814.771 36.4718C815.001 36.7494 814.779 36.7797 814.746 37.0687C814.931 37.6729 816.769 38.0036 818.459 38.1901L818.206 38.1842C815.7 38.1741 816.154 40.097 813.36 38.3922C812.753 37.977 811.519 36.5975 810.322 37.0722C807.306 38.2969 800.104 40.1182 796.127 41.2231C794.409 41.1788 793.116 40.3958 790.759 40.8113C789.322 41.1315 790.362 40.61 788.85 39.8292C787.353 39.0549 787.251 39.3715 785.788 39.5966C785.392 40.0821 790.22 46.1951 791.239 47.5229C790.595 46.6578 789.625 45.1457 789.625 45.1457C789.888 43.7299 794.658 43.8228 798.5 43.9147C802.262 44.1574 811.41 41.891 815.06 41.755C814.542 41.5925 813.505 41.2727 813.505 41.2727C814.654 41.3619 815.709 41.4587 816.81 41.4174C818.992 41.2686 820.745 40.9028 821.519 40.2452C819.829 38.9564 822.717 39.3524 824.905 39.3255C824.354 39.4545 823.539 39.8116 823.539 39.8116C824.994 40.8716 823.574 40.1941 823.192 40.0224C822.567 40.3311 821.316 40.9458 821.316 40.9458C822.669 41.0161 825.376 41.1568 825.375 41.1594C826.348 40.7432 829.223 39.4757 828.269 38.8865C827.85 38.6497 827.179 38.7971 827.187 38.7978C823.885 37.9098 821.749 38.2097 819.041 38.1979L814.771 36.4718ZM135.448 67.3868C135.354 67.2963 134.855 66.9056 135.51 67.1519C135.5 67.0685 135.48 66.9042 135.48 66.9042C128.386 68.4352 132.037 69.1849 136.661 68.4083C136.232 68.3902 135.383 68.3546 135.383 68.3546C135.402 68.0309 135.448 67.3868 135.448 67.3868ZM791.239 47.5229L791.27 47.5565L791.292 47.597L791.354 47.6693L791.353 47.6719C791.399 47.73 792.04 48.6335 792.518 49.2753L792.525 49.2889L792.564 49.3334L792.578 49.3605L792.601 49.3908L792.708 49.5212L792.731 49.5566L792.738 49.5676L791.239 47.5229ZM816.81 41.42C816.885 41.5347 817.086 41.7556 817.116 41.7944L816.81 41.42ZM817.116 41.7944L817.124 41.7976L817.124 41.8002C817.201 41.8867 817.364 42.0605 817.364 42.0605C817.312 41.9735 817.124 41.8002 817.124 41.8002L817.116 41.7944ZM822.681 35.6782C821.922 35.2606 820.234 35.9597 820.234 35.9571C820.976 36.7761 820.279 36.2242 820.065 36.0641C819.746 36.236 819.118 36.5831 819.118 36.5831C819.807 36.7188 821.186 36.99 821.186 36.99C821.87 36.6863 823.141 36.1276 822.681 35.6782ZM489.761 97.8262C489.795 97.829 489.853 97.8314 489.853 97.8314C489.098 97.5817 489.81 97.8432 489.761 97.8262ZM818.731 44.5614C818.087 42.8909 818.931 42.1954 815.06 41.755C816.289 42.6901 818.731 44.5614 818.731 44.5614ZM291.801 12.483C292.679 12.5726 292.835 12.2295 293.081 12.0102C292.713 12.1753 291.801 12.483 291.801 12.483ZM100.307 38.9422C100.325 38.9283 100.409 38.8398 100.492 38.8494C100.19 38.7361 100.301 38.921 100.307 38.9422ZM82.2324 34.3495L82.1646 34.2534C82.297 34.2853 82.4278 34.335 82.5654 34.406C82.4572 34.3866 82.2324 34.3495 82.2324 34.3495ZM81.9989 34.2162C82.0068 34.3227 82.0523 34.484 82.039 34.4416C80.9855 34.4198 81.3494 34.1098 81.9989 34.2162ZM79.3218 32.7278C78.2909 31.7398 79.3404 32.9075 79.1552 32.7008C76.7605 32.8679 77.4566 32.2218 78.9285 32.2867C79.2994 32.3929 80.0415 32.6027 80.0415 32.6027C79.8016 32.6444 79.3216 32.7304 79.3218 32.7278ZM67.201 33.0058C66.8012 32.6417 67.0622 33.3504 67.1096 33.4886C62.6178 33.5974 65.1496 32.4067 67.0413 32.5974C67.6132 32.8238 68.7403 33.2726 68.7403 33.2726C68.3138 33.3244 67.4776 33.4294 67.4776 33.4294L67.201 33.0058ZM67.1008 30.093C65.7408 30.2028 62.9409 30.3692 61.8676 29.783C61.5735 29.1669 64.9366 28.9293 66.4216 28.8378C67.6621 29.1439 70.135 29.7502 70.135 29.7502C69.274 29.8505 67.5438 30.0452 67.5438 30.0452C66.0618 28.9004 66.9554 29.9155 67.1008 30.093ZM63.4439 32.7119C62.1424 31.5281 63.5183 32.9299 63.2773 32.685C59.9153 32.9098 61.0794 32.1199 63.1112 32.152C63.5903 32.2777 64.5481 32.5315 64.5481 32.5315C64.1799 32.5934 63.4439 32.7119 63.4439 32.7119ZM58.9541 29.395C58.9011 29.3234 58.976 29.4356 59.013 29.4981L58.9541 29.395ZM59.0196 29.5193C57.4789 29.57 58.5562 29.1085 59.4706 29.4774C59.3175 29.4903 59.0196 29.5193 59.0196 29.5193ZM56.4145 27.7788C55.4883 26.9494 56.2276 27.9928 56.1296 27.8529C53.9048 27.9078 54.4835 27.3525 56.0282 27.4545C56.3905 27.5625 57.1068 27.7779 57.1068 27.7779C56.8787 27.7793 56.4145 27.7788 56.4145 27.7788ZM13.8282 21.7393C13.4383 21.6573 12.6419 21.492 12.6419 21.492C13.1141 21.4983 13.9187 21.3674 13.9187 21.3674C11.6324 19.0497 14.5189 21.4568 14.3608 21.3299C15.1125 21.2255 16.6159 21.0168 16.6159 21.0168C16.6137 21.0424 16.5169 21.2899 16.4922 21.2826C16.6252 21.3067 15.8312 21.8128 15.7596 21.7603C15.1641 21.914 14.6423 21.8958 13.8282 21.7393ZM84.9727 34.6892C84.4576 34.0907 87.7509 33.7801 87.7507 33.7826C83.3465 29.652 48.6044 23.2936 43.5982 24.0947C39.8268 26.2702 29.8104 24.0203 23.9906 22.6591C23.272 22.4719 21.8351 22.0924 21.8351 22.0924C21.496 22.0096 17.1082 20.8854 17.1082 20.8854C17.117 20.881 16.8361 20.8082 16.7368 20.7843L13.4241 20.2259C12.5138 20.3091 6.72996 21.1221 8.75012 21.5921C7.90481 21.9054 9.25201 22.347 9.25201 22.347C10.5986 22.7962 11.8898 23.0007 13.6086 23.1407C13.7214 23.2044 16.2067 23.2645 16.1897 23.2656C17.95 23.8143 19.3153 24.5414 18.6441 25.1922C18.0459 25.578 17.8437 25.4731 17.6062 25.8868C17.188 26.4401 16.2246 26.2529 17.2704 26.4651C21.5655 27.1865 23.5591 24.4711 23.7676 27.0007C23.7818 27.433 23.802 28.2944 23.802 28.2944C23.2142 29.9564 27.935 27.9359 30.3697 27.7955C31.6687 28.3078 33.5489 28.9364 35.5334 28.9284C37.633 28.7571 35.8328 29.2815 36.0504 30.3041C36.6218 31.2353 37.164 31.0126 39.0994 30.8868C50.0038 31.8176 62.4686 33.2647 73.8961 34.299C74.9038 34.162 77.0894 33.9722 77.0894 33.9722C78.2723 34.2605 80.6554 34.8308 80.6554 34.8308C84.4878 35.4331 84.8266 35.0203 88.2131 35.1048C87.1357 34.9673 84.9727 34.6892 84.9727 34.6892ZM16.7368 20.7843L16.6956 20.7731C16.7203 20.7804 16.7785 20.7904 16.7785 20.7904L16.7368 20.7843ZM150.914 25.4728C150.053 25.1755 150.618 25.7834 151.561 25.8139L150.914 25.4728ZM791.353 47.6719C791.637 48.1141 792.207 48.8644 792.518 49.2753L791.353 47.6719ZM298.354 10.2505C298.187 10.2364 296.897 10.6129 296.966 10.5955C298.121 10.7085 300.432 10.9345 300.432 10.9345C302.534 11.3391 306.746 12.1413 306.746 12.1413C307.642 12.1266 310.311 12.0162 311.091 12.0743C308.07 11.4579 301.607 10.4193 298.354 10.2505ZM135.51 67.1519C135.508 67.3712 135.705 68.3354 137.014 68.3348C136.505 67.9588 135.541 67.1778 135.51 67.1519ZM492.055 99.055C491.769 99.2426 490.518 99.5655 490.544 99.5523C490.544 99.5523 493.31 101.092 493.55 100.95C497.574 101.679 497.939 101.349 500.796 100.709C500.312 100.24 499.345 99.2986 499.345 99.2986C496.975 99.3722 494.562 99.4577 492.055 99.055ZM513.057 103.066C513.141 103.073 513.318 103.083 513.318 103.083C512.761 102.783 513.003 103.01 513.057 103.066Z" fill="#F2E5BF"/>
</svg>
