<svg width="221" height="173" viewBox="0 0 221 173" fill="none" xmlns="http://www.w3.org/2000/svg">
<path fill-rule="evenodd" clip-rule="evenodd" d="M136.515 47.1358C131.45 40.5797 125.507 36.7747 118.201 35.1692C112.413 33.8979 107.522 35.5202 104.157 40.4484C99.8172 46.8044 99.0522 53.6696 102.332 60.7539C103.998 64.3537 106.511 67.3728 109.589 69.8459C119.865 78.0996 131.914 79.683 144.551 78.9736C145.507 78.9211 145.624 78.3885 145.622 77.6183C145.586 66.2691 142.768 55.7874 136.515 47.1358ZM21.5649 143.098C24.5173 147.933 27.7508 152.012 30.7484 156.249C33.1464 159.646 35.5742 163.017 37.7329 166.574C38.3149 167.534 38.8432 168.519 38.9755 169.655C39.0903 170.636 38.9031 171.538 38.0225 172.12C37.2073 172.66 36.3379 172.501 35.5464 172.066C34.0515 171.245 32.9359 169.98 31.8427 168.711C27.1067 163.213 22.4901 157.606 17.6349 152.212C13.4482 147.56 9.09751 143.047 4.27131 139.024C3.12838 138.071 1.99162 137.105 1.19705 135.811C-0.843052 132.484 0.694134 128.51 4.48739 127.588C8.82825 126.535 13.1689 125.43 17.5686 124.693C24.7181 123.493 31.5526 121.343 38.2136 118.553C40.6793 117.517 43.2045 116.655 45.8348 116.16C47.5024 115.847 49.0818 115.995 50.2187 117.47C51.3322 118.915 51.2077 120.497 50.5432 122.059C49.5478 124.408 47.8198 126.197 45.8628 127.753C41.9948 130.829 37.7053 133.172 33.0921 134.932C32.4678 135.172 31.8488 135.425 31.275 135.653C31.2589 136.126 31.5417 136.155 31.7574 136.198C45.663 138.934 59.6616 140.778 73.8678 140.897C86.4598 141.003 97.8811 136.979 108.909 131.419C123.943 123.839 134.931 112.395 141.725 96.9665C143.031 94.0032 143.875 90.8924 144.608 87.7402C144.954 86.2469 144.682 85.8272 143.061 85.9467C133.196 86.6763 123.595 85.4752 114.487 81.447C105.453 77.4478 98.6056 71.1069 94.7455 61.9081C90.378 51.496 93.6985 38.2456 102.135 31.3898C105.912 28.321 110.222 26.7792 115.044 26.9175C127.82 27.2879 137.599 33.1377 144.439 43.7594C150.625 53.3558 152.99 64.1437 153.405 75.431C153.488 77.6623 153.46 77.6502 155.686 77.0521C169.296 73.3958 180.106 65.431 189.301 55.0527C203.067 39.5131 213.473 22.0602 219.147 1.95759C219.274 1.50906 219.236 0.814646 219.919 0.878967C220.744 0.954555 220.51 1.6683 220.492 2.19948C220.263 9.51598 218.064 16.3655 215.338 23.057C208.358 40.2111 198.146 55.1977 184.544 67.7677C175.984 75.6799 166.137 81.4452 154.678 84.1549C153.541 84.4229 152.923 84.821 152.688 86.133C149.106 106.278 138.54 122.029 122.148 133.975C111.654 141.621 100.118 147.173 87.4097 150.039C76.68 152.463 65.8647 152.602 55.071 150.463C44.3609 148.341 33.6263 146.312 23.1 143.371C22.7536 143.273 22.3884 143.244 21.5649 143.098Z" fill="#F2E5BF"/>
</svg>
