<svg width="319" height="480" viewBox="0 0 319 480" fill="none" xmlns="http://www.w3.org/2000/svg">
<path d="M317.5 239.98C317.5 305.995 299.713 365.692 271.034 408.841C242.348 452.001 202.885 478.46 159.5 478.46C116.115 478.46 76.6517 452.001 47.9657 408.841C19.287 365.692 1.5 305.995 1.5 239.98C1.5 173.965 19.287 114.268 47.9657 71.1188C76.6517 27.9585 116.115 1.5 159.5 1.5C202.885 1.5 242.348 27.9585 271.034 71.1188C299.713 114.268 317.5 173.965 317.5 239.98Z" stroke="url(#paint0_linear_30_834)" stroke-width="3"/>
<path d="M293.5 257.282C293.5 313.533 278.343 364.391 253.917 401.142C229.484 437.904 195.896 460.405 159 460.405C122.104 460.405 88.5161 437.904 64.0827 401.142C39.6566 364.391 24.5 313.533 24.5 257.282C24.5 201.032 39.6566 150.174 64.0827 113.423C88.5161 76.6611 122.104 54.1602 159 54.1602C195.896 54.1602 229.484 76.6611 253.917 113.423C278.343 150.174 293.5 201.032 293.5 257.282Z" stroke="url(#paint1_linear_30_834)" stroke-width="3"/>
<defs>
<linearGradient id="paint0_linear_30_834" x1="159.5" y1="0" x2="159.5" y2="479.96" gradientUnits="userSpaceOnUse">
<stop stop-color="#F2E5BF"/>
<stop offset="1" stop-color="#FCFAEE"/>
</linearGradient>
<linearGradient id="paint1_linear_30_834" x1="51" y1="115.1" x2="75.8362" y2="477.507" gradientUnits="userSpaceOnUse">
<stop stop-color="#F2E5BF"/>
<stop offset="1" stop-color="#FCFAEE"/>
</linearGradient>
</defs>
</svg>
