<svg width="201" height="135" viewBox="0 0 201 135" fill="none" xmlns="http://www.w3.org/2000/svg">
<path d="M73.4841 87.7605L113.64 78.3L73.4841 68.8395C69.9738 68.0052 67.219 65.2663 66.4005 61.756L56.94 21.6L47.4795 61.756C46.6452 65.2663 43.9062 68.021 40.3959 68.8395L0.23999 78.3L40.3959 87.7605C43.9062 88.5947 46.6609 91.3337 47.4795 94.844L56.94 135L66.4005 94.844C67.2348 91.3337 69.9738 88.579 73.4841 87.7605Z" fill="#A5B68D" fill-opacity="0.6"/>
<path d="M175.82 39.8895L200.04 34.1843L175.82 28.4791C173.699 27.9761 172.048 26.3258 171.545 24.204L165.84 0L160.135 24.2197C159.632 26.3415 157.982 27.9918 155.86 28.4947L131.64 34.2L155.86 39.9052C157.982 40.4081 159.632 42.0585 160.135 44.1803L165.84 68.4L171.545 44.1803C172.048 42.0585 173.699 40.4081 175.82 39.9052V39.8895Z" fill="#A5B68D" fill-opacity="0.6"/>
</svg>
