<svg width="760" height="245" viewBox="0 0 760 245" fill="none" xmlns="http://www.w3.org/2000/svg">
<path d="M573.061 39.6663L573.086 39.6579H573.095L573.061 39.6663ZM255.558 231.303L255.516 231.325L255.482 231.333L255.558 231.303ZM266.536 225.245L266.465 225.274L266.44 225.287L266.335 225.342H266.322L266.536 225.245ZM59.4611 118.73L59.3016 118.709H59.2596L59.4611 118.73ZM706.571 83.6357C710.112 87.362 712.412 90.8861 714.456 95.5891C712.253 90.0356 709.898 86.0904 705.836 81.64C702.227 77.9643 698.983 75.8086 694.245 73.8128C684.341 70.1161 675.961 70.1834 665.595 70.6887C665.507 70.9919 653.056 71.0887 653.09 71.0887C653.195 71.0003 653.421 70.8192 653.421 70.8192C653.476 70.8066 653.572 70.7729 653.572 70.7729C652.959 70.4613 651.734 69.8466 651.734 69.8466C652.003 70.074 651.39 70.6129 651.583 70.8613C651.629 70.8487 651.734 70.8276 651.734 70.8276C652.133 70.9245 652.938 71.1308 652.926 71.1308C649.191 72.2929 650.488 71.6908 651.142 71.3666C651.079 71.3118 650.941 71.215 650.941 71.215C650.995 71.2066 651.1 71.1855 651.092 71.1855C651.231 71.0887 651.512 70.8824 651.512 70.8824C651.1 70.8276 650.307 70.5919 650.307 70.5919C650.597 70.4613 651.176 70.1834 651.168 70.1834C644.075 66.7983 651.533 65.9688 654.852 63.6615C654.688 64.5036 654.764 65.1688 654.777 66.0109C654.97 67.7582 663.401 59.4806 663.963 58.9837C663.963 58.9922 666.401 56.8827 666.401 56.8827C666.162 57.0091 663.854 58.2595 663.854 58.2595C660.941 59.889 658.172 61.5395 655.368 63.3584C657.492 60.9542 661.781 54.2933 661.94 54.0239L663.22 53.7249C663.22 53.7333 667.744 52.7439 667.924 52.6976C667.429 52.7523 663.132 53.0849 663.132 53.0849C663.124 53.1102 662.523 53.1734 662.523 53.1734C662.565 53.1102 663.048 52.4618 663.048 52.4618C664.832 50.1208 664.865 50.6176 667.668 50.0492C666.649 50.1461 664.626 50.3819 664.626 50.3819C664.701 50.1545 665.012 49.7671 665.012 49.7671C669.452 48.4619 674.018 47.5567 678.638 47.3083C676.07 45.5946 680.418 45.4978 680.409 45.6493C687.069 44.441 685.416 44.3146 685.038 44.2473C678.391 43.2999 678.013 44.681 673.296 44.5083C672.964 43.9778 669.343 44.6346 668.827 43.4515C668.785 42.5252 669.238 42.8157 668.73 42.3063C672.331 41.4895 669.528 41.9863 668.613 42.1252C668.818 41.7042 668.151 41.78 668.088 41.7926C666.98 41.8894 666.133 41.94 665.134 42.4705C664.811 42.5042 661.684 42.8031 661.693 42.7947C660.769 42.8789 659.859 42.9884 658.944 43.1273C658.73 43.0305 658.31 42.8452 658.31 42.8452C658.44 43.0178 658.428 42.9968 658.47 43.2031C658.373 43.2241 658.193 43.2578 658.193 43.2578C657.395 41.2747 656.367 41.7926 655.142 42.9673C655.905 41.9105 656.871 41.1442 658.008 40.3905C658.277 40.3358 661.264 39.7548 661.264 39.7548C672.557 37.8138 682.105 37.1443 692.13 38.6222L690.926 38.1043C689.209 37.8348 687.51 37.6285 685.814 37.4896C687.489 37.6201 689.155 37.8138 690.842 38.0706L689.885 37.6538C680.636 36.5212 671.622 37.1569 661.147 38.9043C661.147 38.9464 660.081 39.0979 660.081 39.0979C660.169 39.0516 661.092 38.559 661.092 38.559C666.699 35.8854 672.704 34.2686 678.907 33.8054C678.508 33.317 678.198 32.8539 677.992 32.2644C689.541 32.0665 698.341 33.2749 709.244 37.199C715.132 42.7273 719.559 46.9546 722.975 50.285C718.342 46.8872 713.403 44.2683 707.343 41.8347C701.186 39.6874 695.492 38.3401 689.885 37.6538C686.414 36.1338 682.47 34.3528 677.992 32.2644C677.757 30.4961 681.001 30.8624 681.001 30.8203C682.591 30.8413 694.321 30.1382 686.566 28.3277C682.545 27.713 678.475 27.8098 674.576 29.0519C672.629 28.934 669.989 28.6645 668.248 27.8309C681.979 26.4962 692.936 26.9467 705.421 30.6476L702.907 28.5003C690.745 26.8498 681.064 26.5298 668.13 27.8435C667.87 27.7045 667.559 27.4435 667.505 27.1319C667.421 25.6457 667.916 26.1383 667.345 25.233C667.282 24.071 666.745 24.1341 666.561 24.1552C664.542 24.3404 663.531 24.4583 662.414 26.3025C661.781 27.4856 661.092 28.3951 659.632 28.1003C659.246 27.9614 658.835 27.734 658.44 27.4772L656.107 27.9403L656.59 29.8266C656.514 29.8392 656.388 29.8603 656.388 29.8603C656.245 29.3424 656.065 28.6645 655.88 27.9824L625.392 34.0202C624.985 34.2686 624.532 34.4075 623.986 34.5802C624.049 34.4623 624.104 34.3528 624.167 34.2686L614.242 36.2306C613.243 38.1253 611.976 40.2263 611.9 40.399C611.149 40.639 609.739 41.2747 609.739 41.2747C610.352 40.8747 610.213 40.7989 609.685 40.4874C609.634 40.5084 609.513 40.5421 609.513 40.5421C609.513 40.4326 609.513 40.3358 609.634 40.3021C609.483 39.6242 609.345 38.2011 609.345 38.2011C609.416 38.3106 609.567 38.5337 609.567 38.5337C609.718 38.1464 610.02 37.3927 610.02 37.3927C609.999 37.4053 609.966 37.4138 609.966 37.4138L610.15 37.039L609.223 37.2201C608.01 37.9738 606.688 38.8158 606.688 38.8158C606.776 38.8579 606.936 38.9337 606.936 38.9337C605.379 39.8727 602.874 41.0137 601.598 42.0915C594.401 44.3989 575.554 50.445 568.315 48.184C569.108 47.1356 570.913 45.7799 573.267 44.2936C545.57 49.725 547.076 49.4556 486.528 62.15C498.795 55.1902 543.068 41.081 561.462 33.1697C560.954 32.6728 560.719 32.997 560.161 33.0813C560.14 33.3928 559.775 33.7928 559.485 33.9023C559.804 33.557 559.699 33.5233 559.632 33.5023L560.031 33.0939C557.215 33.7928 543.639 37.0896 541.78 36.8875C530.94 41.2074 533.895 39.4516 536.933 37.5443C540.294 35.818 548.419 33.7507 552.725 32.0581C542.414 35.4643 521.259 40.0663 521.259 40.0663C521.397 39.8811 521.519 39.8727 521.645 39.7C521.443 39.4432 521.045 38.9127 521.045 38.9127C519.379 36.7906 520.185 38.6558 518.98 37.898C518.636 37.6538 519.391 37.1864 519.626 36.9717C519.584 36.8327 519.454 36.5843 519.454 36.5843C524.041 35.658 533.131 33.3718 533.131 33.3718C548.213 31.3129 561.89 28.6519 576.599 24.6309C574.127 25.2583 548.57 30.9592 548.503 30.3655C548.268 30.3866 548.02 30.3866 547.785 30.3992C544.894 30.8918 539.115 31.7971 539.115 31.7971C542.884 30.6139 550.471 28.3698 550.471 28.3698C559.708 26.1509 568.604 23.7257 577.468 20.8584L600.952 15.587L585.609 18.088C586.683 17.7006 587.758 17.3132 588.832 16.9132L588.706 16.9259L585.311 17.688C584.245 17.9827 582.99 18.3364 581.593 18.7448L577.627 19.3932L571.718 20.6437C556.917 23.9952 542.993 26.3025 527.91 28.0161C531.981 27.1656 535.825 26.3572 539.501 25.5993L521.884 28.4666C527.126 27.1867 537.416 24.3067 537.781 24.2099C530.005 26.1088 514.297 29.1487 514.297 29.1487C513.428 29.2119 506.218 29.675 506.218 29.675C506.239 29.2119 505.866 29.4603 505.866 29.4603C504.792 29.4056 502.815 30.9887 502.815 30.9803C497.59 31.7255 487.116 32.976 487.116 32.976C486.096 32.2392 487.04 32.2939 484.623 32.555C484.787 32.8244 485.001 33.0476 485.185 33.3718C484.959 33.0939 484.505 32.5423 484.505 32.5423C484.014 32.5634 481.467 32.7276 481.736 33.6118C480.854 33.717 479.092 33.9233 479.092 33.9233C479.36 34.3107 480.07 34.9801 480.07 34.9801C479.134 34.837 479.352 34.4202 478.693 34.0749C477.157 34.2349 474.085 34.5465 474.085 34.5465C475.814 33.157 472.667 34.5802 472.667 34.5802L458.059 34.2475H457.971C447.227 34.7528 410.1 43.321 431.574 26.3572C441.684 29.5571 460.841 22.5089 463.707 23.4141C464.429 23.0899 463.804 22.6352 463.795 22.6605C460.174 22.2689 460.505 22.9299 457.412 21.5152C446.552 23.7257 438.268 20.4584 427.655 18.7658C431.91 18.8964 461.903 20.4921 464.601 19.1111C464.299 19.0816 463.707 19.0058 463.707 19.0058C464.244 18.4879 464.458 19.2837 465.063 18.9721C466.372 16.3406 448.411 15.2333 446.703 15.0186C445.582 13.8944 430.521 12.2018 427.449 12.0292C420.457 8.91766 449.611 10.1766 441.952 12.3113C449.389 12.366 469.704 13.0776 477.459 11.8271C450.836 7.93664 381.954 7.86927 354.085 9.36818C347.928 9.65028 297.779 15.3175 297.96 16.1048C273.951 14.7028 285.169 11.6544 289.097 10.4124C283.868 11.1155 278.056 11.3934 272.995 12.3955C265.613 13.3681 250.862 15.3933 250.862 15.3933C252.444 14.4333 255.302 12.7407 256.385 12.0839L256.322 12.0965L256.397 12.0839L256.825 11.8271C256.502 11.9239 256.192 12.0207 255.902 12.126C255.524 12.1386 255.205 12.105 255.205 12.105C256.989 11.3092 260.543 9.71343 260.543 9.71343C255.117 11.9239 244.257 16.3112 244.257 16.3112C241.73 16.6227 236.661 17.2459 236.661 17.2459C233.782 18.5848 228.595 23.132 226.639 23.7804C226.421 23.671 226.102 23.4352 225.876 23.4226C228.851 21.3552 234.995 17.5153 234.995 17.5153C230.421 18.0543 221.268 19.2206 221.268 19.2206C234.546 13.2586 261.467 2.2231 261.467 2.2231C262.39 1.81469 264.11 0.736823 264.11 0.736823C246.963 7.37665 230.572 14.1007 214.016 22.13C214.335 22.1215 214.969 22.0963 214.969 22.0963C214.843 22.1636 214.595 22.3026 214.595 22.3026C213.433 21.991 214.314 22.4205 214.478 22.4963C217.818 24.6309 206.001 28.8582 204.058 30.7529C204.838 30.8624 206.42 31.0897 206.42 31.0897C204.121 32.4244 204.616 30.8076 203.886 31.1402C203.839 31.1402 203.764 31.1402 203.764 31.1402C204.079 31.5192 204.981 31.8729 204.981 31.8729C202.757 33.4139 198.115 36.1843 198.124 36.1843C196.945 35.7128 194.536 34.8917 194.536 34.8917C196.416 33.0728 198.317 31.4645 200.541 30.0624C199.081 28.3403 196.244 24.7909 196.244 24.7909C196.428 24.5973 196.579 24.5888 196.751 24.4036C198.17 26.172 201.07 29.6666 201.07 29.6666C205.518 27.0225 210.793 23.1236 215.237 20.189C208.481 20.9679 205.333 21.7005 198.804 23.0478C205.485 17.9911 200.541 21.591 198.392 23.0478C197.599 23.2626 196.903 23.4352 196.063 23.4562C196.256 23.7131 196.642 24.2099 196.642 24.2099C195.782 24.7488 196.063 24.1257 195.388 23.6625C193.999 23.9404 193.936 24.7404 194.28 25.9572C191.262 28.0498 185.257 32.2729 185.257 32.2729C146.548 51.1987 154.391 47.7967 111.297 53.1523C112.783 52.7734 115.745 51.986 115.745 51.986L116.744 51.6871L115.057 51.9355C108.624 52.8155 95.7109 54.306 95.7109 54.306C102.577 52.6007 116.178 48.7735 116.178 48.7735L116.648 48.6261L114.083 48.9924C110.353 49.5398 102.866 50.5334 102.866 50.5334C103.005 50.5419 103.294 50.5755 103.286 50.5755C103.156 50.445 103.219 50.5124 103.286 50.5755C106.681 50.1124 113.437 49.1314 113.437 49.1314C106.089 51.1355 91.2836 54.6807 91.2836 54.6807C83.6458 56.4406 76.2137 56.2343 68.4459 57.4217C51.7184 61.6237 48.5584 62.39 48.1178 62.4952C48.2688 62.9584 57.9923 62.2173 57.9923 62.2173C59.1841 62.3226 61.5887 62.5415 61.5887 62.5415C85.87 61.0637 109.127 58.4869 133.065 54.1881C108.678 58.7143 85.614 61.03 60.8795 63.6278C58.1098 64.112 50.535 65.8594 48.0338 65.3541C48.0548 65.4173 48.0968 65.5478 48.0968 65.5478C47.6351 65.8383 46.5692 66.3141 46.4643 66.3562L47.8156 65.9015C47.9457 67.0551 55.3694 66.9583 55.3694 66.9499C65.8566 67.8761 59.5702 68.154 54.3371 68.7688C70.3469 68.3182 102.316 66.3436 102.316 66.3436C107.335 66.2172 117.357 65.8594 117.357 65.8594C116.971 65.9562 116.186 66.1499 116.186 66.1499C97.7211 67.8088 60.6655 69.5224 60.6655 69.5224C50.8245 70.4192 52.5451 69.3077 52.7046 69.2024C49.4607 69.3835 42.9308 69.4803 42.9392 69.4803C42.5195 69.1898 44.4542 68.6509 44.4332 68.6635C44.1226 68.3267 43.7659 68.0572 43.5939 67.6361C43.9086 67.4425 44.5633 67.1435 44.5633 67.1435C44.2066 66.5499 43.9506 66.0446 43.7995 65.3541C39.4896 69.6319 42.3391 69.6866 43.64 70.1161C42.2971 70.2045 42.6287 70.2256 42.7881 70.234C41.3823 70.4824 41.6299 70.5161 41.8019 70.5371L40.9962 70.4613C51.1896 72.596 41.2648 72.9076 56.3388 72.0023C59.8513 71.7034 66.8638 71.0424 66.8638 71.0424C66.9519 71.5182 68.3158 71.6276 67.766 72.4571C65.8356 72.975 59.8178 72.4865 57.1194 72.8444C55.3274 72.9834 55.852 74.1581 57.8286 73.6739C58.4623 72.7265 68.5424 72.9076 70.3679 72.8781C69.7552 72.9539 68.5214 73.1013 68.5214 73.1013C76.6963 74.0949 102.95 71.8971 112.921 71.4213C112.212 72.2297 111.255 73.4592 110.16 73.6865C110.214 73.6949 110.16 73.8128 110.139 73.8802C110.181 73.8802 110.256 73.8802 110.256 73.8802C109.031 74.7433 106.584 76.4443 106.584 76.4443C102.274 78.7095 91.1325 81.0379 91.1325 81.0379C72.9782 80.4316 78.2407 86.1451 64.5431 85.3578C61.6559 84.7641 55.8436 83.8168 55.8436 83.8168C55.4114 83.9052 54.5637 84.0736 54.5637 84.0736C48.6213 82.9115 10.6551 79.4422 6.30743 79.9685C20.3911 82.1242 36.7073 83.2778 50.942 84.7136C48.8186 85.1768 44.5717 86.0609 44.5717 86.0609C35.7001 84.8189 22.8083 82.6547 44.0555 86.2083C35.8512 87.8377 19.3797 90.7682 19.3797 90.7682C18.2508 90.844 15.9973 90.865 15.9973 90.865C20.7646 86.9662 13.1688 90.8987 13.9326 90.6924C14.1466 90.6924 14.4823 90.8355 14.6628 90.9408C13.1184 90.9113 10.1095 91.0713 9.71084 91.0924C11.1083 91.0377 13.8025 91.0587 13.8025 91.0587C14.5579 91.1261 16.0602 91.2524 16.0602 91.2524C19.1447 91.5134 25.322 92.0313 25.322 92.0313C25.9221 91.8166 27.8232 91.5219 28.5996 91.3619C41.2732 93.0334 47.2784 92.5366 57.5516 98.4859C47.4841 96.6207 27.286 93.1639 27.286 93.1639C27.3322 92.7976 27.5546 92.4945 27.8148 92.246C27.307 92.2039 26.2998 92.1155 26.2998 92.1155C26.3292 92.5787 25.9221 92.5913 26.0397 93.0544C22.5271 92.4818 15.4811 91.3955 15.4811 91.3955C15.4601 91.3282 15.4056 91.1892 15.4056 91.1892C14.5117 91.244 12.7282 91.3492 12.7282 91.3492C13.2653 91.3955 14.3396 91.4924 14.3396 91.4924L13.4626 91.7913L14.5243 91.5008C18.4145 92.1366 26.1907 93.4418 26.1907 93.4418C26.2579 93.6355 26.3208 94.0228 26.3208 94.0228C26.7069 94.0018 27.4917 93.9386 27.4917 93.9386C27.4497 93.8081 27.3532 93.5386 27.3532 93.5386C37.6012 95.1891 58.0678 98.7259 58.0678 98.7259C58.8945 99.2648 61.1942 100.343 61.1942 100.343C60.699 100.44 60.1619 100.503 59.6583 100.587C60.3549 102.755 70.2588 106.044 70.6449 106.161L70.8421 106.368C69.1551 106.292 71.2702 106.688 73.6748 107.197L75.3408 107.349C76.2641 107.433 78.0686 107.778 78.0686 107.778C78.0686 107.841 78.0602 107.972 78.0602 107.972C77.5776 107.909 76.9523 107.669 77.4055 108.296C76.7173 108.035 75.3198 107.53 75.3198 107.53C75.2569 107.542 75.1688 107.69 75.2359 107.715C75.0723 107.724 75.0387 107.875 74.8037 107.862C74.6988 107.875 74.5561 107.896 74.5771 108.035C73.977 107.951 73.8678 107.618 73.3097 108.124C73.2803 108.178 73.2258 108.305 73.2258 108.296C73.2342 108.372 73.2803 108.498 73.2803 108.498C73.8049 108.974 74.5687 109.071 75.2569 109.062C75.2233 108.919 75.0848 108.662 75.0848 108.662C75.1604 108.662 75.2863 108.671 75.2863 108.671C75.1688 108.477 74.9212 108.069 74.9338 108.069C75.7479 108.747 75.4919 109.05 76.5998 108.793C76.5872 108.726 76.5536 108.595 76.5536 108.595C76.5788 108.595 76.6208 108.608 76.6208 108.608C76.4823 108.401 76.1885 107.993 76.1885 107.993C79.6381 109.235 86.4617 111.972 86.4617 111.972C67.2834 109.568 15.6112 102.229 0 103.875C4.49032 106.549 29.6487 110.473 34.3027 111.336C18.9726 111.854 39.8254 114.405 49.2886 116.098C50.1615 116.692 53.7495 111.433 58.4203 117.866C58.4874 118.06 58.605 118.46 58.605 118.46L59.5492 118.73H59.4611H59.4736C59.3352 118.881 59.3771 118.751 59.1631 118.89C59.0666 118.675 58.8274 118.869 58.7309 118.654L57.8412 118.536C57.7027 118.515 57.5516 118.494 57.3796 118.469C52.4486 117.791 44.6682 116.637 44.6682 116.637C44.6808 116.746 45.3774 117.037 45.348 117.273C48.6213 117.706 54.3161 118.447 57.1194 118.826L56.8424 119.58C56.5822 120.401 56.7669 120.561 56.7249 121.479C56.6913 121.736 56.5738 122.115 56.3262 122.22C55.5205 123.041 54.3287 123.416 53.1998 123.546C51.6303 122.447 49.8174 121.908 47.9037 122.094C45.0123 122.793 48.0632 124.818 50.0943 125.079C50.0943 125.1 51.6093 124.99 51.3827 126.683C51.3953 126.683 51.0931 127.706 50.8581 128.169C54.3832 129.15 57.6901 130.67 60.6781 132.805C54.6728 132.009 45.348 131.159 37.3116 130.152C45.667 131.083 42.7881 130.738 37.2025 130.131C33.0689 129.613 29.2752 129.045 26.4719 128.43C25.8802 128.797 25.2885 128.312 24.9569 127.828C24.9569 127.828 25.0199 127.698 25.0535 127.63C22.4978 128.927 30.9077 129.466 31.4112 129.517L32.4646 129.639C36.0107 130.144 52.9648 132.611 61.9328 133.841C62.7302 134.54 63.3093 135.175 63.7709 136.018C62.7092 134.733 62.2476 135.037 61.9118 136.708C61.9118 136.708 61.7943 136.695 61.7398 136.695C61.7398 136.695 61.7734 136.451 61.8279 136.321C61.8279 136.321 61.5803 136.556 61.4502 136.674C61.4502 136.674 59.012 136.695 57.7866 136.62C57.2411 136.19 56.7878 136.169 56.1206 136.127L55.8226 136.493C55.382 136.396 53.7244 135.984 55.7471 136.674C55.4785 137.159 55.7009 137.138 55.68 137.82C55.3484 139.07 52.9522 138.506 53.1452 138.994C51.2358 139.121 50.6735 137.862 47.0099 138.055C43.9925 138.27 47.6351 139.735 49.234 139.9C49.234 139.79 51.5883 140.072 50.0608 141.668C50.0524 141.668 55.3484 142.939 57.8831 143.874C57.8831 143.874 58.0762 144.253 58.1307 144.468C58.1307 144.468 56.897 144.384 56.2717 144.337C58.6343 144.889 58.1182 144.459 59.4946 147.032C59.4946 147.032 57.2285 147.078 56.0996 147.003C56.1877 147.024 58.6469 147.571 59.8933 147.819C59.7842 147.617 62.9526 153.899 64.8578 156.185C64.8662 156.185 59.5911 152.855 57.0774 151.074C58.0552 152.207 63.9766 159.213 65.4915 158.707C65.4915 158.707 65.2985 156.628 65.2523 156.4C68.0262 158.299 73.3559 157.541 68.5298 162.168C68.5298 162.168 68.9914 162.328 69.2181 162.417C69.2181 162.417 68.6473 162.783 68.3578 162.922C68.3578 162.922 68.5844 163.061 68.6935 163.137C68.6935 163.137 68.7648 163.137 68.811 163.149C68.811 163.149 68.7229 163.267 68.6809 163.322C69.1635 163.503 70.305 163.891 67.317 163.419C67.317 163.419 67.8961 163.074 68.1773 162.909C68.1773 162.909 68.2612 162.909 68.2948 162.909C68.3997 162.632 67.8961 162.211 68.0682 161.941C68.0682 161.941 67.2289 162.771 66.8134 163.192C66.8134 163.192 66.8848 163.192 66.9309 163.2C66.9309 163.2 67.1114 163.343 67.2079 163.406C54.3496 166.37 31.8855 164.366 18.0914 163.158C18.297 163.192 23.5805 164.097 26.2453 164.594C26.2453 164.594 30.0809 165.604 31.9946 166.114C32.003 166.114 22.6908 165.259 18.0914 164.484C18.0914 164.484 23.5049 166.038 26.1907 166.876C26.1907 166.876 40.4674 172.934 47.6687 175.844C42.3265 176.644 37.0724 177.915 31.9946 178.682C35.9687 179.174 51.9954 177.376 56.7669 176.998C56.3808 176.955 68.5718 177.936 67.594 179.09C67.8626 178.926 42.5195 186.105 31.5539 190.29C41.8565 190.871 67.1785 182.871 78.9205 184.328C78.9205 184.328 80.6159 182.421 81.4636 181.461C81.4636 181.461 80.4019 181.322 79.8983 181.149C79.8983 181.157 80.725 180.231 81.0482 179.713C81.0482 179.713 86.5037 178.981 89.2021 178.442C89.2021 178.442 83.8934 183.195 81.3251 185.654C81.7658 185.848 82.1854 186.138 82.1728 186.677C80.3809 188.252 75.1604 190.138 97.9015 184.286C97.9015 184.286 97.3979 184.189 97.2259 184.037H97.2804L95.3123 183.313H95.3668L94.4436 183.056C94.4436 183.056 97.5574 182.787 99.1143 182.656C99.1269 182.656 97.3854 183.141 97.9015 183.519C97.9015 183.519 100.801 183.595 102.253 183.477C102.253 183.477 99.2235 185.149 97.7085 185.978C97.1084 186.324 94.7205 187.574 100.386 185.999C100.386 185.999 102.115 185.924 102.971 185.827C100.491 192.938 140.136 190.29 149.028 190.782C148.877 190.85 146.603 191.936 145.839 192.475C144.29 192.433 117.445 192.079 116.983 192.648C116.929 192.648 125.062 192.433 129.145 192.618C129.145 192.618 119.917 192.723 115.359 193.283C115.359 193.283 114.642 193.608 114.277 193.78C114.277 193.78 124.642 193.427 129.821 193.241C135.91 193.49 152.415 193.38 157.119 194.547C157.119 194.547 156.914 194.277 156.809 194.147C156.809 194.147 160.749 194.264 163.813 194.395C163.683 194.416 163.737 194.471 164.207 194.589C160.3 195.094 155.054 195.991 151.189 195.881L150.942 195.679C150.942 195.679 151.026 195.805 151.059 195.881C151.059 195.881 133.421 196.69 124.587 197.048C124.587 197.048 145.356 197.026 155.734 196.757C155.659 196.93 155.722 196.959 155.776 197.132C155.776 197.132 156.183 197.544 156.389 197.746C156.389 197.746 156.032 197.856 155.86 197.898C155.86 197.898 156.376 197.94 156.645 197.953C156.645 197.953 156.561 197.822 156.527 197.759C156.527 197.759 157.665 197.692 158.235 197.671C156.666 198.74 154.295 198.029 152.499 198.071L148.029 198.534C148.676 198.492 157.279 198.05 157.593 198.589C157.581 198.589 158.634 198.525 159.159 198.492C159.159 198.492 162.126 198.479 163.607 198.374C163.607 198.374 163.33 198.74 163.179 198.921C163.179 198.921 165.605 199.106 166.796 199.309C166.796 199.309 163.842 199.527 162.373 199.439C162.373 199.439 162.793 198.955 162.994 198.719C162.994 198.719 162.491 198.5 162.352 198.673C162.352 198.673 162.038 198.795 161.891 198.845C161.878 198.845 162.189 198.858 162.34 198.866C162.264 198.879 162.18 198.989 162.134 199.052C162.134 199.052 162.264 199.052 162.327 199.064C162.327 199.064 162.382 199.258 162.189 199.245C160.405 199.321 158.643 199.751 156.926 199.687C157.077 199.675 157.195 199.452 157.279 199.334C156.947 199.149 156.884 199.633 156.527 199.847C156.527 199.847 151.651 200.054 149.2 200.142C149.2 200.142 134.395 200.239 126.984 200.281C126.984 200.281 140.992 199.149 147.987 198.534C146.934 195.224 144.634 198.879 143.057 198.395C143.057 198.395 143.443 197.911 143.636 197.671C143.636 197.671 142.603 197.856 142.087 197.94C142.087 197.94 142.259 198.083 142.347 198.146C142.347 198.146 139.876 198.231 138.629 198.277C138.629 198.277 137.286 198.05 136.611 197.94C136.611 197.94 136.77 198.071 136.858 198.146C134.613 198.092 118.209 196.121 124.436 200.854C124.436 200.854 125.8 200.829 126.489 200.82C126.489 200.82 129.531 201.746 130.928 202.479L132.603 202.61H132.582C132.947 202.652 141.894 203.666 146.431 204.151C149.116 204.98 149.813 205.304 152.746 205.532C152.671 205.346 152.318 204.732 153.93 205.603C154.198 205.616 154.37 205.637 154.593 205.456C155.164 205.885 155.81 206.437 156.108 205.553C156.108 205.553 156.809 205.595 157.153 205.616C157.161 205.485 157.153 205.216 157.3 205.435C158.47 205.561 158.353 205.927 159.255 204.593C159.255 204.593 159.373 205.237 159.385 205.561C159.385 205.561 162.084 205.435 163.351 205.035C163.351 205.035 161.857 203.536 161.19 202.803C161.19 202.803 163.523 203.136 164.694 203.203C166.045 204.087 165.21 204.344 166.927 204.087C166.927 204.087 165.735 203.645 165.143 203.418C165.143 203.418 168.924 203.881 170.817 204.108C170.913 204.108 168.475 204.235 168.337 204.551C168.744 204.795 174.329 204.698 175.051 204.698C176.952 204.828 178.089 205.216 179.785 206.07C166.885 207.06 123.438 207.363 115.695 209.346C127.928 211.481 164.111 210.454 178.811 210.411C190.851 211.78 206.559 210.651 218.679 209.548C214.306 210.369 170.85 216.588 170.754 216.685C181.766 217.064 263.305 207.902 256.892 211.729C269.881 223.918 226.895 214.571 228.058 222.116C226.618 222.281 227.198 222.192 241.667 221.99C241.323 222.02 230.538 222.98 225.103 222.386C225.103 222.386 225.972 222.744 226.4 222.925L225.649 222.95L226.178 223.316C227.055 224.567 224.424 223.518 224.017 223.367L224.587 222.971L223.844 223.367C223.844 223.367 222.976 223.131 222.544 223.013C224.885 223.767 225.133 225.329 226.543 225.965C226.543 225.965 230.055 225.35 231.805 225.03C231.6 224.984 238.381 226.377 236.585 227.464C234.911 228.133 232.204 227.678 230.441 227.367C230.441 227.367 230.483 227.552 230.4 227.56C230.085 227.699 229.623 227.4 229.388 227.207C229.388 227.207 229.313 227.215 229.271 227.215L229.044 226.862L228.624 227.043C228.624 227.043 227.798 226.819 227.378 226.71C227.378 226.71 231.075 229.88 232.943 231.451C235.717 231.312 238.436 230.786 241.046 229.855C244.525 228.584 244.223 229.544 245.075 225.923C246.351 224.542 256.892 223.822 259.436 223.464L258.479 223.801C258.479 223.801 261.349 223.228 262.776 222.904C262.776 222.904 271.383 221.127 271.362 220.963C274.862 220.125 274.337 220.794 271.769 222.655C271.824 222.744 267.568 224.761 266.536 225.245C267.539 224.782 271.811 222.807 271.79 222.752C271.79 222.752 275.047 220.74 275.357 220.554C277.699 220.049 280.28 219.994 282.47 219.359C282.449 219.392 282.332 219.544 282.512 219.552C282.512 219.544 281.224 220.201 281.266 219.813C281.266 219.813 280.989 220.007 280.846 220.104C280.859 220.104 275.962 222.592 273.553 223.906C273.553 223.906 276.499 222.82 277.98 222.302C276.087 223.241 274.241 224.188 272.382 225.169C272.52 225.48 257.404 230.718 255.558 231.303C256.783 230.912 272.588 225.923 272.47 225.523C273.414 225.059 281.912 221.106 278.291 222.032C278.249 222.053 286.155 217.224 287.422 218.538C287.422 218.538 286.927 218.895 286.68 219.076C287.477 218.799 291.203 218.895 291.161 219.94C290.88 220.036 290.368 220.457 290.419 219.885C290.419 219.885 289.928 220.112 289.68 220.222C289.68 220.222 289.928 220.436 290.054 220.546C288.828 221.051 288.828 219.649 287.704 219.068C287.704 219.068 284.984 219.994 283.62 220.479C283.62 220.479 285.232 220.63 284.93 221.763C284.93 221.763 285.714 221.86 286.1 221.914C286.038 221.817 285.618 221.3 287.229 222.268C287.745 222.323 287.54 222.26 273.691 230.546C258.114 236.853 244.76 239.947 228.473 243.244C228.012 244.309 228.024 243.762 250.509 240.895C258.663 238.091 266.121 235.148 273.897 231.43C275.412 230.47 288.4 222.474 274.178 232.575C274.337 232.853 261.253 238.449 259.985 238.966C260.673 238.684 274.337 233.156 274.283 232.992C281.879 228.63 288.27 226.184 296.877 224.478C296.877 224.478 298.573 225.868 298.661 225.708C298.661 225.708 299.853 226.916 300.453 227.518C300.453 227.518 298.799 227.16 297.973 226.992C298.241 226.992 296.705 226.992 298.048 227.173C298.048 227.173 298.38 227.628 298.543 227.851C298.132 227.581 295.329 225.502 296.567 228.996C296.285 229.619 295.92 229.847 295.341 230.179C300.776 234.146 300.176 234.512 302.475 227.16C302.475 227.16 302.043 226.992 301.829 226.891C301.926 226.731 302.496 225.88 301.699 226.723C301.699 226.723 301.183 226.419 300.927 226.268C300.927 226.268 301.884 225.847 302.358 225.645C302.358 225.632 302.668 225.847 302.828 225.944C302.828 225.944 303.495 223.779 303.785 222.689C303.785 222.689 301.044 223.283 299.672 223.594C300.218 222.571 300.734 223.144 301.636 223.055C301.636 223.055 303.097 222.613 303.848 222.483C303.839 222.483 304.473 222.958 304.536 222.95C304.687 222.689 304.645 223.022 304.624 223.131C305.266 222.184 305.073 222.095 306.147 221.721C306.147 221.721 306.051 221.342 306.009 221.161C306.63 219.594 307.427 221.072 307.986 221.224C307.986 221.224 308.447 220.643 308.674 220.34C308.674 220.34 310.919 219.737 312.035 219.434C312.035 219.434 312.82 219.897 313.261 220.015C313.668 219.931 313.957 219.725 314.335 219.662C314.335 219.662 314.507 219.497 314.603 219.422C314.603 219.422 314.797 219.649 314.893 219.767C314.956 219.716 313.785 220.693 313.324 220.769C313.324 220.769 308.716 221.502 306.437 222.053C306.932 222.411 308.048 223.013 307.461 223.628C306.869 223.704 306.215 223.539 305.652 223.346C305.652 223.346 305.375 224.542 305.237 225.148C305.237 225.148 305.43 225.114 305.514 225.106C306.416 225.329 304.75 227.312 304.238 228.984C307.427 227.712 307.91 227.16 311.389 228.39C311.389 228.39 311.305 227.636 311.263 227.262C311.263 227.262 312.799 228.209 313.722 228.217C303.797 233.64 295.748 238.773 286.369 245C294.825 239.825 306.009 233.8 313.571 228.824C313.957 229.219 314.012 229.565 314.012 230.104C314.012 230.104 341.537 225.396 355.373 223.539C355.436 223.531 320.974 228.929 321.78 239.333C339.162 234.697 358.823 229.363 375.97 224.285C377.46 222.883 379.31 223.346 380.88 221.956C380.88 221.956 382.554 223.228 383.393 223.855C383.393 223.855 381.832 223.982 381.052 224.049C381.052 224.049 380.074 223.994 379.579 223.973C380.632 224.857 375.483 225.569 375.143 227.022C375.143 227.022 375.248 227.775 375.29 228.154C371.811 231.83 367.816 236.495 365.256 240.916C365.256 240.916 380.406 229.405 388.14 223.864C391.816 223.531 394.963 222.689 398.463 221.59C397.616 220.761 397.519 221.038 396.541 221.148C396.541 221.148 396.906 221.375 397.091 221.493C397.284 221.375 397.54 221.203 397.196 221.481C397.272 221.603 397.423 221.653 397.553 221.653C397.553 221.653 396.466 221.729 395.95 221.569C396.596 221.257 395.308 220.554 395.068 220.491C395.068 220.491 394.091 220.685 393.608 220.794C393.608 220.794 394.07 221.009 394.317 221.114C394.221 221.203 396.113 219.628 394.435 221.3C394.435 221.3 395.068 221.514 395.383 221.611C395.383 221.611 392.534 221.817 391.128 221.923C391.128 221.923 395.165 218.95 397.209 217.472C397.41 217.396 397.788 217.215 396.671 218.087C396.671 218.087 398.207 218.971 399.034 219.068C399.034 219.068 399.999 220.18 400.528 220.685C401.141 221.182 402.14 220.436 402.731 220.154C402.731 220.154 402.437 219.788 402.244 219.801C402.299 219.813 402.341 219.641 402.354 219.607C402.354 219.607 399.357 217.902 397.863 217.051C397.863 217.051 399.42 216.18 400.192 215.746C401.334 216.698 403.222 217.708 404.523 218.508C404.641 218.613 404.997 218.516 404.523 218.508C404.523 218.508 404.364 218.39 404.288 218.335C404.288 218.335 404.737 218.171 404.964 218.1C406.919 219.013 403.621 219.986 402.903 220.146C403.47 220.533 403.709 220.963 404.192 221.384C405.866 219.919 407.52 219.544 409.509 220.672C442.07 235.278 519.316 203.569 564.295 198.058C563.77 197.49 562.771 197.671 562.062 197.692L564.039 197.111C563.9 197.111 563.833 197.035 563.783 196.917C562.662 197.069 556.409 198.113 560.719 191.603C560.505 191.582 560.375 191.431 560.195 191.422C560.195 191.422 566.221 191.01 569.226 190.808C569.217 190.568 569.679 190.332 569.691 190.235C569.691 190.235 563.384 190.829 560.237 191.043C560.161 191.237 559.997 191.031 559.926 191.225C559.775 191.052 559.817 191.216 559.708 191.043H559.666L560.341 190.85C560.341 190.85 560.451 190.471 560.492 190.277C563.783 184.783 565.264 188.791 566.745 189.288C569.28 188.93 587.481 186.656 576.284 185.827C588.265 178.703 549.212 181.557 539.468 182.075C539.468 182.075 545.129 179.932 547.999 178.951C547.999 178.951 547.752 179.326 547.622 179.52C547.622 179.52 547.655 179.52 547.676 179.52C547.676 179.52 547.643 179.65 547.622 179.713C548.482 180.059 548.302 179.726 548.965 179.132C548.965 179.132 548.763 179.511 548.654 179.705C548.654 179.705 548.763 179.705 548.813 179.705C548.813 179.705 548.696 179.953 548.654 180.08C548.654 180.08 549.72 180.265 550.211 179.692C550.211 179.692 550.245 179.566 550.266 179.499C550.266 179.499 550.232 179.368 550.211 179.305C549.816 178.766 549.728 179.09 549.246 179.124C549.267 178.993 549.191 178.951 549.074 178.939C548.889 178.926 548.881 178.766 548.751 178.757C548.805 178.732 548.751 178.572 548.696 178.56C548.696 178.56 547.58 178.951 547.022 179.145C547.408 178.585 546.98 178.745 546.539 178.766C546.539 178.766 546.526 178.648 546.526 178.585C546.526 178.585 547.966 178.379 548.696 178.366L549.976 178.357C551.793 178.067 553.53 177.806 552.188 177.776C552.188 177.776 552.297 177.646 552.351 177.579C552.125 177.654 559.955 175.208 560.602 172.956L559.548 172.581C559.603 172.547 561.298 171.629 561.806 171.233C561.806 171.233 574.673 169.549 581.098 168.686C581.098 168.686 581.035 168.935 581.001 169.065C581.001 169.065 581.433 169.196 581.647 169.259C581.647 169.259 581.702 168.871 581.744 168.686C581.744 168.686 585.945 168.042 588.051 167.718L588.576 168.105L588.148 167.718H588.962L587.611 167.339H588.437C588.437 167.339 589.835 167.545 590.51 167.718C590.443 167.697 588.811 167.255 587.997 167.158C588.093 167.069 588.253 166.951 588.383 166.964C588.811 167.2 584.967 162.611 587.309 166.964C587.309 166.964 586.125 166.749 585.546 166.585C585.546 166.585 576.284 162.122 571.622 159.958C575.512 159.676 584.975 159.331 571.311 159.764C571.311 159.764 568.659 158.501 567.324 157.878C573.997 157.714 586.008 157.857 564.974 156.939C564.974 156.939 564.416 156.691 564.135 156.56C564.135 156.56 560.052 157.036 558.021 157.36C546.677 156.939 553.833 151.756 537.47 150.88C534.558 149.146 528.305 147.819 523.861 145.158C523.861 145.158 521.637 143.285 520.516 142.354C520.516 142.354 520.592 142.354 520.625 142.354C520.604 142.27 520.583 142.194 520.625 142.161C519.572 141.862 518.712 140.556 518.069 139.727C525.254 140.565 551.231 145.074 555.851 144.813C555.851 144.813 554.961 144.565 554.508 144.447C555.864 144.619 562.952 145.268 563.35 146.291C564.672 146.96 565.058 145.807 563.867 145.525C562.104 144.952 557.614 144.813 556.443 144.24C556.099 143.369 557.097 143.369 557.186 142.906C557.186 142.906 562.02 144.135 564.446 144.758C574.815 147.045 567.551 145.87 574.278 144.535H573.791C573.901 144.535 574.039 144.523 573.204 144.156C573.3 144.156 573.502 144.156 572.688 143.963C575.277 142.961 577.254 145.71 572.826 139.209C572.826 139.209 572.516 140.371 572.268 140.923C572.268 140.923 572.667 141.276 572.839 141.495C572.709 141.904 572.503 142.097 572.281 142.443C572.281 142.443 573.418 143.133 573.149 143.39C573.149 143.39 569.032 142.721 566.993 142.27C567.131 142.451 568.151 143.659 561.634 141.925C561.642 141.925 542.93 138.712 527.298 136.182C531.465 136.62 534.654 136.889 536.484 136.902C536.396 136.826 535.741 136.653 534.625 136.405C542.833 137.786 557.358 140.232 565.952 141.71C562.221 140.565 557.924 139.756 565.36 139.811C565.36 139.811 570.161 140.556 570.3 139.403L571.131 139.975C571.076 139.921 570.409 139.34 570.153 139.024C570.153 139.024 570.182 138.897 570.195 138.83C568.638 139.121 563.489 136.666 561.814 136.018C554.424 134.228 547.076 132.451 539.736 130.717L541.877 130.78C548.377 132.169 554.873 133.55 561.386 134.877C561.386 134.877 563.04 134.877 563.867 134.864C564.907 134.982 569.733 136.451 570.279 135.984C570.044 135.879 568.453 135.091 560.333 130.973C576.641 130.889 593.57 130.035 603.906 127.504C587.523 126.047 569.003 127.588 549.137 127.256C546.077 126.607 543.026 125.984 539.866 124.894L539.942 124.873C539.887 124.755 539.438 124.645 538.91 124.561L538.104 124.27C540.437 124.106 543.723 123.849 543.723 123.849C543.026 124.056 541.608 124.464 541.608 124.464C543.585 124.776 542.636 124.494 544.248 123.643C545.637 123.614 548.364 123.332 548.364 123.332C547.559 124.056 545.754 125.508 545.754 125.508C547.248 125.95 550.396 126.11 550.383 126.11C550.417 125.79 550.589 125.155 550.589 125.155C551.6 126.51 551.524 126.123 552.855 126.014C553.027 125.799 553.014 126.047 553.027 126.199C553.434 126.178 554.261 126.136 554.261 126.136C554.596 127.062 555.444 126.426 556.044 126.047C556.283 126.22 556.841 126.199 556.841 126.199C557.58 125.769 559.376 124.056 558.239 126.123C561.6 125.896 562.641 125.529 565.768 124.666C571.345 124.056 582.453 122.489 582.453 122.489L582.386 122.502L584.463 122.254C586.171 121.391 589.843 120.216 589.843 120.216C590.691 120.161 592.378 120.056 592.378 120.056C600.049 114.742 579.209 118.149 577.165 118.287C577.275 118.212 577.468 118.073 577.468 118.073C576.662 118.224 575.05 118.515 575.05 118.502C573.577 118.523 570.636 118.544 570.636 118.544C570.732 118.469 570.925 118.321 570.925 118.321C570.325 118.254 569.1 118.102 569.1 118.102C569.335 118.33 569.788 118.805 569.788 118.805C567.895 119.344 565.222 115.753 563.955 119.075C563.976 119.075 563.976 119.075 563.955 119.075C572.365 119.572 589.21 119.719 589.21 119.719C580.313 120.334 562.503 120.7 562.503 120.7C559.645 120.65 553.917 120.431 553.917 120.431C553.501 120.216 553.446 119.732 553.048 119.904C553.157 120.035 553.283 120.258 553.446 120.271C551.449 120.325 549.384 119.862 547.332 119.744C547.105 119.753 547.173 119.559 547.173 119.559C547.248 119.559 547.399 119.559 547.399 119.559C547.374 119.504 547.236 119.374 547.173 119.374C547.345 119.365 547.697 119.353 547.697 119.353C547.517 119.302 547.16 119.18 547.16 119.18C547.001 118.999 546.409 119.205 546.409 119.205C546.644 119.45 547.105 119.946 547.105 119.946C545.389 120.001 541.973 119.698 541.973 119.698C543.371 119.525 546.182 119.399 546.182 119.399C546.031 119.214 545.712 118.847 545.721 118.847C547.429 118.986 550.878 119.041 550.878 119.041C551.491 119.083 552.716 119.159 552.704 119.159C553.027 118.709 562.448 119.007 563.804 119.062C561.999 118.936 558.667 118.654 558.667 118.654C556.615 118.62 553.791 119.332 551.986 118.233C552.641 118.275 553.971 118.342 553.971 118.342C553.917 118.405 553.82 118.536 553.82 118.536C554.135 118.523 554.747 118.494 554.747 118.494C554.529 118.439 554.122 118.33 554.122 118.33C554.37 118.127 554.852 117.715 554.852 117.727C554.928 117.542 554.991 117.521 554.919 117.34C567.518 117.618 579.432 117.176 592.004 116.262C581.463 116.768 560.375 116.456 560.375 116.456C560.417 116.389 560.513 116.25 560.513 116.262L560.224 116.464C555.65 116.608 549.762 115.669 545.162 115.054C545.733 114.936 545.775 114.881 545.616 114.86C549.158 114.793 553.723 114.73 553.723 114.73C553.606 114.86 553.358 115.13 553.358 115.13C560.148 113.728 576.897 113.782 585.483 112.919C591.862 112.692 604.582 111.732 604.582 111.732C604.12 111.627 603.188 111.399 603.188 111.399C597.548 111.475 586.276 112.241 586.276 112.241C591.165 111.723 601.178 110.978 601.124 110.991C598.769 110.667 571.483 112.81 566.51 112.961C565.587 112.422 562.964 111.399 562.792 111.336C581.089 109.858 595.891 110.688 615.132 107.766C623.747 106.246 630.474 104.33 617.163 102.031C618.044 102.002 618.892 101.981 619.752 101.774C625.875 102.153 623.093 101.408 622.451 101.214C620.772 100.717 617.473 99.6059 617.473 99.6059C618.925 99.488 621.771 98.8438 621.771 98.8438C622.203 98.368 620.377 98.2375 620.398 98.2375C621.997 98.0648 625.199 97.6354 625.199 97.6354L624.297 98.0985L624.36 98.0775L622.492 99.2185L622.555 99.2101C622.404 99.3911 621.943 99.5764 621.922 99.5848C647.932 99.4332 641.658 99.0374 639.283 97.9806C639.157 97.4206 639.606 97.0333 640.026 96.7512C636.618 95.0712 629.732 91.8376 629.732 91.8376C632.871 91.6524 639.09 90.8566 639.09 90.8566C639.572 91.2861 640.714 91.9429 640.714 91.9429C640.164 92.2587 638.985 92.6881 638.985 92.6881C640.156 93.3871 642.485 94.7891 642.485 94.7891C647.407 92.5029 663.132 92.1155 668.625 92.3639C673.653 92.7639 680.871 93.5807 684.522 97.547C684.727 97.7743 685.202 98.4648 685.479 98.4564C685.491 97.6775 685.319 97.0838 685.009 96.3722C682.193 90.7892 673.556 88.924 668.013 87.9346C663.543 87.2567 658.642 87.3199 654.873 86.7178C655.226 85.1641 665.721 83.16 667.303 82.8779L667.71 82.8021C675.243 82.7937 682.13 83.3115 688.853 86.9957C688.844 87.0293 691.711 88.6798 691.799 88.7219C690.796 87.7746 690.38 87.1893 689.163 86.2294C685.802 83.6652 682.47 82.5116 678.391 81.5768C683.04 80.3685 686.855 79.7537 691.69 80.0569C696.201 80.5411 699.361 81.6189 703.205 84.0441C703.196 84.0736 704.795 85.0799 704.795 85.0799C708.451 88.2672 711.061 91.6734 713.197 96.0186C710.964 90.8355 708.438 86.9535 704.493 82.8568C702.785 81.1642 701.22 79.8927 699.197 78.579C701.421 79.6779 703.129 80.7769 705.056 82.3516C705.03 82.3937 706.571 83.6357 706.571 83.6357ZM63.8255 136.114L64.0815 137.234C64.136 137.302 64.2451 137.441 64.2451 137.441C64.7823 137.483 65.0383 137.356 65.5419 137.15C65.0593 136.935 64.7067 137.074 64.1696 136.86C64.0605 136.599 63.943 136.35 63.8255 136.114ZM570.279 135.984C570.346 136.009 570.325 135.996 570.291 135.975L570.279 135.984ZM587.611 167.339H587.267C585.609 167.339 582.289 167.351 582.289 167.351C582.109 167.2 580.808 166.556 580.497 166.404C570.829 167.191 569.121 166.274 562.171 171.04C568.495 170.143 581.152 168.299 581.152 168.299C581.152 167.979 580.896 167.351 580.896 167.351C581.186 167.351 581.744 167.351 581.744 167.351C581.71 167.773 581.937 167.878 581.849 168.299C583.754 168.05 587.556 167.537 587.556 167.537C587.577 167.469 587.611 167.339 587.611 167.339ZM549.976 178.357L549.384 178.454C549.569 178.454 549.762 178.454 549.989 178.357H549.976ZM549.384 178.454L548.805 178.56C549.019 178.463 549.204 178.463 549.384 178.454ZM229.044 226.862L229.057 226.849L229.023 226.84L229.044 226.862ZM229.057 226.849C231.57 225.729 230.227 226.622 229.678 227.013L229.057 226.849ZM151.198 195.881H151.135C151.156 195.881 151.198 195.881 151.198 195.881ZM164.799 194.437C164.778 194.643 164.673 194.61 164.648 194.803C165.005 194.698 165.714 194.492 165.714 194.492L164.799 194.437ZM655.054 43.0852L654.735 44.2599C654.659 44.3441 654.495 44.4957 654.495 44.4957C653.799 44.6346 652.422 44.5294 652.422 44.5294C653.144 44.2052 653.807 44.2178 654.571 43.902C654.722 43.6115 654.882 43.342 655.054 43.0852ZM692.13 38.6222C696.944 39.3337 701.862 40.5295 707.15 42.3189C712.66 44.441 716.978 46.6641 721.619 49.864C722.61 50.5545 723.596 51.2997 724.616 52.0829L725.736 52.9881C738.41 65.5562 733.63 62.6047 749.304 78.5243C714.968 44.2178 723.562 52.1923 692.13 38.6222ZM721.619 49.864C722.287 50.3187 722.962 50.8029 723.651 51.2997C718.224 47.2325 713.507 44.5925 707.234 42.1126L705.517 41.5737C706.084 41.7463 706.642 41.94 707.225 42.1252C712.748 44.3231 717.087 46.6304 721.619 49.864ZM705.517 41.5737C700.263 39.9569 695.513 38.8158 690.926 38.1043L690.842 38.0706C695.525 38.7737 700.318 39.9148 705.517 41.5737ZM725.736 52.9881C727.721 54.6512 729.538 56.3185 731.385 58.2174C733.5 60.4069 735.027 61.9689 736.123 63.0678C736.005 62.8615 735.888 62.6468 735.791 62.4194C734.532 61.2026 733.038 59.3079 731.708 57.9269C728.775 54.9502 725.938 52.4618 722.975 50.285C723.974 51.266 724.884 52.1587 725.736 52.9881ZM736.123 63.0678C737.982 64.9204 738.628 65.4804 738.821 65.5688V65.6994C737.747 64.9962 736.777 64.1583 736.123 63.0678ZM738.821 65.5688C738.96 65.632 738.871 65.472 738.821 65.3541V65.5688ZM705.421 30.6476C707.288 31.2076 709.202 31.8308 711.157 32.5339C713.088 33.1907 714.947 33.9107 716.73 34.7107C714.196 32.6307 710.801 29.8813 705.677 25.6541C708.073 26.3235 710.511 27.1109 713.016 28.0035L725.766 39.6579C732.157 43.8726 737.285 48.9166 741.322 53.8933C777.022 86.642 748.725 61.6026 758.511 74.7728C755.083 71.4213 752.023 68.4361 749.275 65.7288C753.215 72.9286 754.525 77.9306 754.008 76.6043C713.079 36.3064 728.107 50.0156 705.421 30.6476ZM658.44 27.4772C657.139 26.6056 655.905 25.2793 655.431 25.3846C655.624 26.0667 655.88 27.0561 656.107 27.9403L655.88 27.9824C655.473 26.5298 655.054 25.052 655.054 25.0604C654.227 23.0478 653.09 24.8373 652.133 25.5783C648.524 26.433 641.402 28.4919 641.402 28.4919C638.96 28.715 634.075 29.2245 634.075 29.2245C632.913 29.7508 630.529 30.6224 630.529 30.6224L633.58 29.1698C631.666 29.5024 627.851 30.2266 627.851 30.2266C626.702 30.6982 625.95 32.5339 626.274 33.2749C625.984 33.6118 625.694 33.8475 625.392 34.0202L624.167 34.2686C624.553 33.696 625.069 33.4476 625.757 33.2328L624.393 33.6539C624.964 32.5086 625.757 31.3045 626.639 30.3866C634.579 27.3382 641.914 24.8457 649.758 22.7657C652.284 23.2752 654.529 23.9404 656.292 24.8036L655.1 25.052L656.313 24.8162C657.718 25.5025 658.814 26.3109 659.515 27.2625L658.44 27.4772ZM656.313 24.8162L659.032 24.2857C658.117 24.4499 657.202 24.6225 656.292 24.8036L656.313 24.8162ZM659.095 24.2773C676.166 21.4605 689.969 21.2373 705.677 25.6541L702.915 23.3804C687.187 21.3005 675.155 21.591 659.095 24.2773ZM625.757 33.2328L625.812 33.2202L625.875 33.1991L625.757 33.2328ZM649.758 22.7657C652.615 21.9994 655.54 21.3005 658.591 20.631C679.1 16.6859 694.824 16.7954 714.905 23.3804C723.197 26.4751 729.463 29.7929 736.672 34.9338C729.538 29.654 723.319 26.2604 715.043 23.0352C693.557 15.9449 676.733 16.2227 658.428 19.469C654.365 20.3195 650.5 21.2458 646.74 22.2478C647.781 22.3994 648.792 22.572 649.758 22.7657ZM646.74 22.2478C635.984 25.1278 626.102 28.6729 615.262 33.136C615.833 32.9844 615.144 34.5254 614.242 36.2306L610.15 37.039L610.427 36.4664L609.223 37.2201C592.819 40.4537 581.702 42.6305 573.267 44.2936C579.906 40.0874 590.939 34.8075 596.646 32.0371C639.325 19.4563 608.656 27.9951 615.639 23.932C619.228 21.8394 634.944 20.5805 646.74 22.2478ZM596.646 32.0371C597.729 31.5192 598.622 31.0771 599.256 30.7655C599.126 30.3234 599.911 29.3213 599.965 29.2456C599.684 29.5698 599.244 29.7929 599.16 30.2813C593.809 32.3486 584.258 35.2496 577.262 37.738C584.988 35.4728 591.379 33.5991 596.646 32.0371ZM577.262 37.738C574.652 38.6643 572.398 39.54 570.85 40.2937C571.022 40.2726 571.366 40.239 571.353 40.239L573.061 39.6663C572.289 39.9695 572.31 40.3148 571.462 40.6053C571.42 40.5505 571.311 40.4326 571.311 40.4326C556.497 43.4094 568.004 40.4116 570.279 39.7758L577.262 37.738ZM588.706 16.9259C588.177 16.9554 586.977 17.2374 585.311 17.688C583.313 18.1427 581.689 18.5216 577.627 19.3932L539.501 25.5993C629.173 7.01877 603.767 15.2122 642.313 2.81677C647.03 3.32202 651.789 4.44199 656.615 6.52194L600.952 15.587C680.292 -2.21889 614.015 12.526 613.575 11.5155C598.878 14.6733 592.445 16.0838 588.706 16.9259ZM566.8 23.2499C560.677 25.1488 555.079 26.8835 552.771 27.4856C555.872 26.5719 561.945 24.3404 561.945 24.3404L566.8 23.2499ZM642.313 2.81677L651.079 0C649.606 0.172627 639.325 1.49049 628.078 2.81677C632.808 2.41678 637.533 2.29889 642.313 2.81677ZM628.078 2.81677C624.159 3.27992 620.138 3.74306 616.328 4.15147C620.247 3.65464 624.159 3.13676 628.078 2.81677ZM616.328 4.15147C610.792 4.76619 605.723 5.26302 602.093 5.53249C606.881 5.32618 611.611 4.75356 616.328 4.15147ZM602.093 5.53249C598.92 5.75985 596.86 5.81038 596.558 5.57459C598.404 5.62933 600.255 5.60828 602.093 5.53249ZM457.971 34.2475C436.904 32.7149 452.481 33.9528 457.992 34.2349L457.971 34.2475ZM256.385 12.0839H256.397L256.674 12.0292C256.59 12.0544 256.494 12.0755 256.385 12.0839ZM255.549 12.2481C251.928 13.6039 250.006 15.6291 245.482 16.0627C248.327 14.9217 254.014 12.5597 254.014 12.5597L255.549 12.2481ZM48.1178 62.4952C48.0002 62.5163 48.0632 62.5079 48.1178 62.4868V62.4952ZM73.6748 107.197L74.4302 107.357C74.191 107.336 73.9434 107.302 73.6748 107.197ZM74.4302 107.357L75.1814 107.517C74.9128 107.399 74.6736 107.378 74.4302 107.357ZM560.278 116.464L560.291 116.456H560.299L560.278 116.464ZM544.487 114.881C544.495 115.088 544.625 115.054 544.638 115.26C544.239 115.138 543.433 114.902 543.442 114.902L544.487 114.881Z" fill="#F2E5BF" fill-opacity="0.6"/>
</svg>
