<svg width="23" height="22" viewBox="0 0 23 22" fill="none" xmlns="http://www.w3.org/2000/svg">
<path fill-rule="evenodd" clip-rule="evenodd" d="M21.7047 10.5969C21.7092 10.7118 21.7115 10.8462 21.7115 11C21.7109 12.6414 21.3122 14.2582 20.5496 15.7117C19.787 17.1652 18.6832 18.4121 17.333 19.3454V11.6901C17.333 11.6146 17.3079 11.5413 17.2618 11.4816C17.2157 11.4219 17.151 11.3792 17.078 11.3601L14.0738 10.3117L14.073 6.95278C14.073 6.8972 14.0593 6.84248 14.0332 6.7934C14.0071 6.74432 13.9694 6.70238 13.9234 6.67124C13.8774 6.6401 13.8244 6.62072 13.7691 6.61478C13.7139 6.60884 13.658 6.61653 13.6064 6.63717L8.46221 8.71626C8.39334 8.73827 8.33324 8.7816 8.29059 8.83999C8.24794 8.89837 8.22495 8.9688 8.22493 9.04111V11.1102H5.06785C5.02308 11.1102 4.97875 11.119 4.93739 11.1362C4.89603 11.1533 4.85845 11.1784 4.8268 11.2101C4.79515 11.2417 4.77004 11.2793 4.75291 11.3207C4.73578 11.362 4.72697 11.4064 4.72698 11.4511V18.4819C4.61591 18.3804 4.50726 18.2765 4.40101 18.1702C2.98282 16.7521 2.01701 14.9453 1.62572 12.9783C1.23443 11.0112 1.43523 8.97232 2.20272 7.1194C2.97022 5.26648 4.26994 3.68277 5.93753 2.56854C7.60511 1.45431 9.56566 0.859609 11.5712 0.859639C11.6617 0.859639 11.7484 0.823721 11.8123 0.759785C11.8762 0.69585 11.9122 0.609135 11.9122 0.518717C11.9122 0.428299 11.8762 0.341584 11.8123 0.277649C11.7484 0.213714 11.6617 0.177795 11.5712 0.177795C8.97317 0.177772 6.46178 1.11229 4.49571 2.81068C2.52965 4.50908 1.2401 6.85801 0.862581 9.4285C0.485061 11.999 1.04476 14.6195 2.43946 16.8115C3.83417 19.0035 5.9708 20.6206 8.45916 21.3676C8.46407 21.3694 8.46905 21.371 8.47407 21.3723C10.0897 21.853 11.7952 21.95 13.4549 21.6555C15.1146 21.361 16.6826 20.6832 18.0343 19.676C19.3859 18.6688 20.4837 17.3601 21.2405 15.8539C21.9972 14.3477 22.392 12.6856 22.3933 11C22.3933 10.8756 22.3902 10.7333 22.3839 10.5729C22.3829 10.5483 22.3819 10.524 22.3809 10.5H21.7004C21.7021 10.5332 21.7035 10.5655 21.7047 10.5969ZM12.5634 21.0922C14.0046 20.9529 15.3988 20.5046 16.6512 19.7779V11.931L13.6472 10.8828C13.6292 10.8782 13.6117 10.872 13.5947 10.8645L12.5635 10.5046L12.5634 21.0922ZM8.90673 20.7866V9.27033L13.3922 7.4573V10.0737L12.3605 9.71367C12.3086 9.69075 12.2518 9.68114 12.1953 9.68571C12.1387 9.69028 12.0842 9.70889 12.0367 9.73986C11.9891 9.77082 11.9501 9.81316 11.923 9.86304C11.896 9.91291 11.8818 9.96875 11.8818 10.0255V21.1354C11.7787 21.1385 11.6752 21.1401 11.5714 21.1401C10.6715 21.1408 9.7753 21.0221 8.90673 20.7866ZM5.40877 19.0536C6.26079 19.707 7.21141 20.2206 8.22493 20.575V11.7922H5.40877V19.0536Z" fill="#5C5C5C"/>
</svg>
