<svg width="17" height="16" viewBox="0 0 17 16" fill="none" xmlns="http://www.w3.org/2000/svg">
<path fill-rule="evenodd" clip-rule="evenodd" d="M2.25822 4.64592C2.30467 4.59935 2.35984 4.56241 2.42059 4.5372C2.48133 4.512 2.54645 4.49902 2.61222 4.49902C2.67799 4.49902 2.74311 4.512 2.80386 4.5372C2.8646 4.56241 2.91978 4.59935 2.96622 4.64592L8.61222 10.2929L14.2582 4.64592C14.3047 4.59943 14.3599 4.56255 14.4206 4.53739C14.4814 4.51223 14.5465 4.49929 14.6122 4.49929C14.678 4.49929 14.7431 4.51223 14.8038 4.53739C14.8645 4.56255 14.9197 4.59943 14.9662 4.64592C15.0127 4.6924 15.0496 4.74759 15.0747 4.80833C15.0999 4.86907 15.1129 4.93417 15.1129 4.99992C15.1129 5.06566 15.0999 5.13076 15.0747 5.1915C15.0496 5.25224 15.0127 5.30743 14.9662 5.35392L8.96622 11.3539C8.91978 11.4005 8.8646 11.4374 8.80385 11.4626C8.74311 11.4878 8.67799 11.5008 8.61222 11.5008C8.54645 11.5008 8.48133 11.4878 8.42059 11.4626C8.35984 11.4374 8.30467 11.4005 8.25822 11.3539L2.25822 5.35392C2.21166 5.30747 2.17472 5.2523 2.14951 5.19155C2.1243 5.13081 2.11133 5.06568 2.11133 4.99992C2.11133 4.93415 2.1243 4.86903 2.14951 4.80828C2.17472 4.74754 2.21166 4.69236 2.25822 4.64592Z" fill="#1B1B1B"/>
</svg>
