<svg width="25" height="24" viewBox="0 0 25 24" fill="none" xmlns="http://www.w3.org/2000/svg">
<path d="M12.1667 17.1369C11.4308 17.1369 10.7115 16.9187 10.0996 16.5099C9.48775 16.101 9.01086 15.52 8.72926 14.8401C8.44765 14.1602 8.37397 13.4121 8.51754 12.6904C8.66111 11.9686 9.01548 11.3057 9.53583 10.7853C10.0562 10.265 10.7192 9.91065 11.4409 9.7671C12.1626 9.62355 12.9107 9.69724 13.5906 9.97886C14.2705 10.2605 14.8515 10.7374 15.2604 11.3493C15.6692 11.9611 15.8874 12.6805 15.8874 13.4164C15.8862 14.4028 15.4939 15.3485 14.7963 16.046C14.0988 16.7435 13.1531 17.1358 12.1667 17.1369ZM12.1667 10.6332C11.6162 10.6332 11.0782 10.7964 10.6205 11.1023C10.1628 11.4081 9.80605 11.8427 9.5954 12.3513C9.38475 12.8599 9.32964 13.4195 9.43702 13.9593C9.54441 14.4992 9.80948 14.9951 10.1987 15.3844C10.5879 15.7736 11.0839 16.0387 11.6237 16.146C12.1636 16.2534 12.7232 16.1983 13.2318 15.9877C13.7403 15.777 14.175 15.4203 14.4808 14.9626C14.7866 14.5049 14.9499 13.9668 14.9499 13.4164C14.949 12.6785 14.6555 11.9711 14.1338 11.4493C13.612 10.9276 12.9046 10.6341 12.1667 10.6332Z" fill="#72227D"/>
<path d="M17.0446 23.966H7.28894C7.16462 23.966 7.04539 23.9166 6.95748 23.8287C6.86958 23.7408 6.82019 23.6216 6.82019 23.4973V21.546C6.82019 20.128 7.38349 18.7681 8.38616 17.7654C9.38884 16.7628 10.7488 16.1995 12.1668 16.1995C13.5847 16.1995 14.9447 16.7628 15.9473 17.7654C16.95 18.7681 17.5133 20.128 17.5133 21.546V23.4973C17.5133 23.6216 17.4639 23.7408 17.376 23.8287C17.2881 23.9166 17.1689 23.966 17.0446 23.966ZM7.75769 23.0285H16.5758V21.546C16.5758 20.3767 16.1113 19.2552 15.2844 18.4284C14.4576 17.6015 13.3361 17.137 12.1668 17.137C10.9974 17.137 9.87593 17.6015 9.04907 18.4284C8.22222 19.2552 7.75769 20.3767 7.75769 21.546V23.0285ZM18.8202 11.3539C18.0843 11.3539 17.3649 11.1357 16.7531 10.7269C16.1412 10.3181 15.6643 9.73701 15.3827 9.05715C15.1011 8.3773 15.0274 7.62919 15.1709 6.90745C15.3145 6.18571 15.6688 5.52274 16.1892 5.00239C16.7095 4.48203 17.3725 4.12767 18.0942 3.9841C18.8159 3.84053 19.564 3.9142 20.2439 4.19581C20.9238 4.47741 21.5049 4.9543 21.9137 5.56616C22.3225 6.17802 22.5408 6.89738 22.5408 7.63326C22.5396 8.61967 22.1473 9.56535 21.4498 10.2629C20.7523 10.9604 19.8066 11.3527 18.8202 11.3539ZM18.8202 4.8501C18.2697 4.85008 17.7316 5.01329 17.2739 5.3191C16.8162 5.62491 16.4595 6.05957 16.2488 6.56812C16.0382 7.07668 15.983 7.63628 16.0904 8.17617C16.1978 8.71605 16.4628 9.21197 16.8521 9.60121C17.2413 9.99045 17.7372 10.2555 18.2771 10.3629C18.817 10.4703 19.3766 10.4152 19.8851 10.2046C20.3937 9.99392 20.8284 9.63719 21.1342 9.1795C21.44 8.72181 21.6033 8.18372 21.6033 7.63326C21.6024 6.89539 21.3089 6.18799 20.7872 5.66623C20.2654 5.14447 19.5581 4.85097 18.8202 4.8501Z" fill="#72227D"/>
<path d="M23.6979 18.1828H17.303C17.1787 18.1828 17.0594 18.1335 16.9715 18.0456C16.8836 17.9576 16.8342 17.8384 16.8342 17.7141C16.8342 17.5898 16.8836 17.4706 16.9715 17.3826C17.0594 17.2947 17.1787 17.2453 17.303 17.2453H23.2292V15.763C23.229 14.9929 23.0271 14.2363 22.6437 13.5685C22.2603 12.9007 21.7087 12.3449 21.0439 11.9563C20.379 11.5678 19.624 11.3602 18.854 11.354C18.0839 11.3479 17.3257 11.5435 16.6547 11.9213C16.5465 11.9819 16.4187 11.9971 16.2993 11.9636C16.1798 11.9302 16.0786 11.8508 16.0176 11.7428C15.9566 11.6348 15.9409 11.5071 15.9739 11.3875C16.0069 11.268 16.0859 11.1664 16.1936 11.105C17.0073 10.6466 17.9267 10.4093 18.8606 10.4166C19.7944 10.4239 20.7101 10.6756 21.5164 11.1467C22.3228 11.6178 22.9917 12.2918 23.4567 13.1017C23.9217 13.9116 24.1665 14.8291 24.1667 15.763V17.7141C24.1667 17.8384 24.1173 17.9576 24.0294 18.0456C23.9415 18.1335 23.8223 18.1828 23.6979 18.1828ZM5.51326 11.3539C4.77738 11.3539 4.05803 11.1357 3.44617 10.7269C2.83432 10.318 2.35743 9.73695 2.07582 9.05709C1.79421 8.37723 1.72053 7.62913 1.8641 6.90739C2.00766 6.18566 2.36202 5.5227 2.88236 5.00235C3.4027 4.48201 4.06566 4.12765 4.7874 3.98409C5.50913 3.84053 6.25723 3.91421 6.93709 4.19582C7.61696 4.47743 8.19804 4.95431 8.60687 5.56617C9.0157 6.17803 9.23392 6.89738 9.23392 7.63326C9.23278 8.61968 8.84041 9.56538 8.1429 10.2629C7.44539 10.9604 6.49969 11.3528 5.51326 11.3539ZM5.51326 4.8501C4.9628 4.8501 4.42471 5.01333 3.96702 5.31915C3.50933 5.62496 3.15261 6.05963 2.94196 6.56819C2.73131 7.07674 2.67619 7.63634 2.78358 8.17622C2.89097 8.7161 3.15604 9.21201 3.54527 9.60124C3.9345 9.99048 4.43041 10.2555 4.97029 10.3629C5.51017 10.4703 6.06977 10.4152 6.57833 10.2046C7.08688 9.99391 7.52155 9.63718 7.82737 9.17949C8.13319 8.72181 8.29642 8.18371 8.29642 7.63326C8.29557 6.89538 8.00208 6.18796 7.48032 5.6662C6.95856 5.14444 6.25114 4.85094 5.51326 4.8501Z" fill="#72227D"/>
<path d="M7.03047 18.1828H0.635498C0.511178 18.1828 0.391949 18.1334 0.304042 18.0455C0.216134 17.9576 0.166748 17.8384 0.166748 17.7141L0.166748 15.763C0.166991 14.8291 0.411774 13.9115 0.87674 13.1016C1.34171 12.2918 2.01065 11.6177 2.817 11.1467C3.62335 10.6756 4.53901 10.4238 5.47285 10.4165C6.4067 10.4092 7.32618 10.6466 8.13981 11.105C8.24806 11.1661 8.32758 11.2678 8.36088 11.3876C8.39417 11.5073 8.37853 11.6355 8.31737 11.7437C8.25622 11.8519 8.15457 11.9315 8.03479 11.9648C7.915 11.9981 7.7869 11.9824 7.67865 11.9213C7.00766 11.5435 6.24945 11.3479 5.47942 11.3541C4.7094 11.3602 3.95441 11.5679 3.28955 11.9564C2.62469 12.3449 2.07314 12.9007 1.68975 13.5685C1.30636 14.2363 1.1045 14.9929 1.10425 15.763V17.2453H7.03047C7.15479 17.2453 7.27402 17.2947 7.36192 17.3826C7.44983 17.4705 7.49922 17.5898 7.49922 17.7141C7.49922 17.8384 7.44983 17.9576 7.36192 18.0455C7.27402 18.1334 7.15479 18.1828 7.03047 18.1828ZM12.1667 7.47339C11.4309 7.47339 10.7115 7.25518 10.0997 6.84634C9.4878 6.43751 9.01092 5.85643 8.72931 5.17657C8.4477 4.4967 8.37402 3.7486 8.51758 3.02687C8.66115 2.30513 9.0155 1.64217 9.53585 1.12183C10.0562 0.601488 10.7191 0.247129 11.4409 0.103567C12.1626 -0.0399953 12.9107 0.0336861 13.5906 0.315294C14.2704 0.596901 14.8515 1.07379 15.2604 1.68565C15.6692 2.2975 15.8874 3.01686 15.8874 3.75273C15.8863 4.73916 15.4939 5.68486 14.7964 6.38237C14.0989 7.07988 13.1532 7.47225 12.1667 7.47339ZM12.1667 0.969576C11.6163 0.969576 11.0782 1.1328 10.6205 1.43862C10.1628 1.74444 9.8061 2.17911 9.59545 2.68766C9.3848 3.19622 9.32968 3.75582 9.43707 4.2957C9.54446 4.83558 9.80953 5.33149 10.1988 5.72072C10.588 6.10995 11.0839 6.37502 11.6238 6.48241C12.1637 6.5898 12.7233 6.53468 13.2318 6.32403C13.7404 6.11338 14.175 5.75666 14.4809 5.29897C14.7867 4.84128 14.9499 4.30319 14.9499 3.75273C14.9491 3.01485 14.6556 2.30744 14.1338 1.78568C13.612 1.26391 12.9046 0.970419 12.1667 0.969576Z" fill="#72227D"/>
</svg>
