<svg width="19" height="19" viewBox="0 0 19 19" fill="none" xmlns="http://www.w3.org/2000/svg">
<path fill-rule="evenodd" clip-rule="evenodd" d="M12.6512 13.5151C12.5789 13.6665 12.5414 13.8322 12.5417 14V15.4891C12.5417 15.786 12.6592 16.0708 12.8683 16.2815L14.3683 17.7923C14.5253 17.9505 14.7257 18.0584 14.9442 18.1025C15.1626 18.1466 15.3892 18.1248 15.5952 18.0399C15.8012 17.955 15.9774 17.8109 16.1014 17.6257C16.2254 17.4406 16.2916 17.2228 16.2917 17V16.625H16.6667C16.8892 16.6249 17.1066 16.5589 17.2916 16.4353C17.4765 16.3117 17.6207 16.136 17.7058 15.9305C17.791 15.7249 17.8132 15.4988 17.7698 15.2806C17.7265 15.0624 17.6193 14.8619 17.4621 14.7046L15.9621 13.2046C15.8577 13.1001 15.7337 13.0171 15.5972 12.9606C15.4607 12.904 15.3144 12.8749 15.1667 12.875H13.6667C13.4989 12.8747 13.3332 12.9122 13.1818 12.9845L9.43181 9.23484C9.36109 9.16654 9.26636 9.12874 9.16804 9.12959C9.06971 9.13045 8.97566 9.16988 8.90613 9.23941C8.8366 9.30894 8.79716 9.403 8.79631 9.50132C8.79545 9.59964 8.83325 9.69437 8.90156 9.7651L12.6512 13.5151ZM15.5417 17C15.5417 17.0743 15.5196 17.1469 15.4782 17.2086C15.4369 17.2703 15.3781 17.3184 15.3094 17.3467C15.2407 17.3749 15.1652 17.3822 15.0924 17.3675C15.0196 17.3527 14.9528 17.3167 14.9004 17.264L13.4004 15.7531C13.3308 15.6829 13.2917 15.588 13.2917 15.4891V14C13.2917 13.9005 13.3312 13.8051 13.4015 13.7348C13.4718 13.6645 13.5672 13.625 13.6667 13.625H15.1667C15.2661 13.625 15.3617 13.6643 15.4318 13.7348L16.9318 15.2348C16.9842 15.2873 17.0199 15.3541 17.0344 15.4268C17.0489 15.4996 17.0414 15.575 17.0131 15.6435C16.9847 15.712 16.9366 15.7705 16.875 15.8117C16.8133 15.853 16.7408 15.875 16.6667 15.875H15.9167C15.8674 15.875 15.8186 15.8847 15.773 15.9036C15.7275 15.9225 15.6861 15.9502 15.6513 15.9851C15.6164 16.02 15.5888 16.0614 15.57 16.107C15.5512 16.1526 15.5416 16.2014 15.5417 16.2507V17Z" fill="#72227D" stroke="#72227D" stroke-width="0.5"/>
<path fill-rule="evenodd" clip-rule="evenodd" d="M12.0403 16.8335C11.1248 17.1925 10.15 17.3761 9.16669 17.375C4.82044 17.375 1.29169 13.8462 1.29169 9.5C1.29169 5.15375 4.82044 1.625 9.16669 1.625C13.5129 1.625 17.0417 5.15375 17.0417 9.5C17.0417 10.5114 16.8508 11.4785 16.5028 12.3665C16.4716 12.458 16.4769 12.5579 16.5175 12.6456C16.5582 12.7333 16.6311 12.8019 16.7211 12.8372C16.811 12.8725 16.9112 12.8717 17.0006 12.835C17.09 12.7983 17.1618 12.7285 17.2011 12.6402C17.5926 11.6397 17.793 10.5745 17.7917 9.5C17.7917 4.73975 13.9269 0.875 9.16669 0.875C4.40644 0.875 0.541687 4.73975 0.541687 9.5C0.541687 14.2602 4.40644 18.125 9.16669 18.125C10.2774 18.125 11.3391 17.9146 12.3144 17.5314C12.3614 17.5142 12.4045 17.4878 12.4411 17.4538C12.4777 17.4197 12.5072 17.3787 12.5277 17.3331C12.5482 17.2875 12.5594 17.2383 12.5607 17.1883C12.5619 17.1383 12.5531 17.0886 12.5348 17.042C12.5165 16.9955 12.4891 16.9531 12.4542 16.9173C12.4193 16.8815 12.3776 16.853 12.3315 16.8336C12.2854 16.8142 12.2359 16.8042 12.1859 16.8041C12.1359 16.8041 12.0864 16.8141 12.0403 16.8335Z" fill="#72227D" stroke="#72227D" stroke-width="0.5"/>
<path fill-rule="evenodd" clip-rule="evenodd" d="M11.2558 13.9055C10.6031 14.2156 9.88934 14.376 9.16669 14.375C6.47606 14.375 4.29169 12.1906 4.29169 9.5C4.29169 6.80937 6.47606 4.625 9.16669 4.625C11.8573 4.625 14.0417 6.80937 14.0417 9.5C14.0417 10.2474 13.8733 10.9557 13.5722 11.5887C13.5308 11.6784 13.5264 11.7807 13.5599 11.8736C13.5935 11.9665 13.6623 12.0423 13.7515 12.0847C13.8407 12.1271 13.943 12.1327 14.0362 12.1001C14.1294 12.0676 14.206 11.9996 14.2494 11.9109C14.6075 11.1577 14.7928 10.334 14.7917 9.5C14.7917 6.39537 12.2713 3.875 9.16669 3.875C6.06206 3.875 3.54169 6.39537 3.54169 9.5C3.54169 12.6046 6.06206 15.125 9.16669 15.125C10.0292 15.125 10.8467 14.9304 11.5776 14.5828C11.665 14.5387 11.7317 14.4621 11.7635 14.3695C11.7952 14.2768 11.7895 14.1754 11.7475 14.087C11.7054 13.9985 11.6305 13.93 11.5386 13.8961C11.4467 13.8622 11.3452 13.8656 11.2558 13.9055Z" fill="#72227D" stroke="#72227D" stroke-width="0.5"/>
<path fill-rule="evenodd" clip-rule="evenodd" d="M9.27131 11.372C9.0167 11.3861 8.76189 11.3482 8.52244 11.2605C8.28298 11.1728 8.06393 11.0372 7.87865 10.862C7.69337 10.6868 7.54576 10.4757 7.44484 10.2415C7.34392 10.0073 7.29181 9.755 7.29169 9.5C7.29169 8.465 8.13169 7.625 9.16669 7.625C9.42169 7.62512 9.67399 7.67723 9.90817 7.77815C10.1424 7.87907 10.3535 8.02668 10.5287 8.21196C10.7039 8.39724 10.8395 8.6163 10.9272 8.85575C11.0149 9.0952 11.0528 9.35002 11.0387 9.60463C11.0332 9.70393 11.0674 9.80135 11.1338 9.87543C11.2001 9.94952 11.2932 9.99422 11.3925 9.99969C11.4918 10.0052 11.5892 9.97095 11.6633 9.9046C11.7374 9.83825 11.7821 9.74518 11.7876 9.64588C11.8072 9.28948 11.754 8.93282 11.6311 8.59769C11.5083 8.26255 11.3185 7.95596 11.0732 7.69665C10.8279 7.43734 10.5323 7.23074 10.2046 7.08947C9.87677 6.9482 9.52362 6.87522 9.16669 6.875C7.71806 6.875 6.54169 8.05138 6.54169 9.5C6.54191 9.85694 6.61489 10.2101 6.75616 10.5379C6.89743 10.8657 7.10402 11.1612 7.36334 11.4065C7.62265 11.6518 7.92924 11.8416 8.26437 11.9644C8.59951 12.0873 8.95617 12.1405 9.31256 12.1209C9.41187 12.1154 9.50494 12.0707 9.57129 11.9966C9.63764 11.9225 9.67185 11.8251 9.66638 11.7258C9.66091 11.6265 9.61621 11.5334 9.54212 11.4671C9.46803 11.4007 9.37062 11.3665 9.27131 11.372Z" fill="#72227D" stroke="#72227D" stroke-width="0.5"/>
</svg>
