<svg width="20" height="21" viewBox="0 0 20 21" fill="none" xmlns="http://www.w3.org/2000/svg">
<g clip-path="url(#clip0_1958_8393)">
<path d="M9.99999 1.81665C9.33695 1.81665 8.70106 2.08004 8.23222 2.54888C7.76338 3.01772 7.49999 3.65361 7.49999 4.31665V6.81665H6.24999V4.31665C6.24999 3.32209 6.64508 2.36826 7.34834 1.665C8.0516 0.961739 9.00543 0.56665 9.99999 0.56665C10.9946 0.56665 11.9484 0.961739 12.6516 1.665C13.3549 2.36826 13.75 3.32209 13.75 4.31665V6.81665H12.5V4.31665C12.5 3.65361 12.2366 3.01772 11.7678 2.54888C11.2989 2.08004 10.663 1.81665 9.99999 1.81665ZM6.24999 6.81665H4.19999C3.75108 6.81675 3.31711 6.9779 2.97694 7.27082C2.63677 7.56374 2.41298 7.96898 2.34624 8.4129L1.06249 16.9792C0.995976 17.4236 1.02612 17.8772 1.15085 18.309C1.27559 18.7408 1.49199 19.1405 1.7853 19.4811C2.0786 19.8216 2.4419 20.0949 2.85042 20.2822C3.25894 20.4695 3.70306 20.5666 4.15249 20.5667H15.8462C16.2958 20.5667 16.74 20.4699 17.1487 20.2826C17.5574 20.0953 17.9208 19.8221 18.2143 19.4815C18.5077 19.141 18.7242 18.7412 18.849 18.3093C18.9739 17.8774 19.004 17.4237 18.9375 16.9792L17.6525 8.4129C17.5858 7.96919 17.3622 7.56412 17.0223 7.27123C16.6824 6.97834 16.2487 6.81705 15.8 6.81665H13.75V8.69165C13.75 8.85741 13.6841 9.01638 13.5669 9.13359C13.4497 9.2508 13.2908 9.31665 13.125 9.31665C12.9592 9.31665 12.8003 9.2508 12.683 9.13359C12.5658 9.01638 12.5 8.85741 12.5 8.69165V6.81665H7.49999V8.69165C7.49999 8.85741 7.43414 9.01638 7.31693 9.13359C7.19972 9.2508 7.04075 9.31665 6.87499 9.31665C6.70923 9.31665 6.55026 9.2508 6.43305 9.13359C6.31584 9.01638 6.24999 8.85741 6.24999 8.69165V6.81665Z" fill="#1B1B1B"/>
</g>
<defs>
<clipPath id="clip0_1958_8393">
<rect width="20" height="20" fill="white" transform="translate(0 0.56665)"/>
</clipPath>
</defs>
</svg>
