<svg width="20" height="21" viewBox="0 0 20 21" fill="none" xmlns="http://www.w3.org/2000/svg">
<g clip-path="url(#clip0_337_5210)">
<path d="M10 20.5667C12.6522 20.5667 15.1957 19.5131 17.0711 17.6377C18.9464 15.7624 20 13.2188 20 10.5667C20 7.91449 18.9464 5.37095 17.0711 3.49558C15.1957 1.62022 12.6522 0.56665 10 0.56665C7.34784 0.56665 4.8043 1.62022 2.92893 3.49558C1.05357 5.37095 0 7.91449 0 10.5667C0 13.2188 1.05357 15.7624 2.92893 17.6377C4.8043 19.5131 7.34784 20.5667 10 20.5667ZM11.1625 8.80165L9.9125 14.6829C9.825 15.1079 9.94875 15.3492 10.2925 15.3492C10.535 15.3492 10.9012 15.2617 11.15 15.0417L11.04 15.5617C10.6812 15.9942 9.89 16.3092 9.20875 16.3092C8.33 16.3092 7.95625 15.7816 8.19875 14.6604L9.12125 10.3254C9.20125 9.95915 9.12875 9.82665 8.7625 9.7379L8.19875 9.63665L8.30125 9.1604L11.1637 8.80165H11.1625ZM10 7.44165C9.66848 7.44165 9.35054 7.30995 9.11612 7.07553C8.8817 6.84111 8.75 6.52317 8.75 6.19165C8.75 5.86013 8.8817 5.54219 9.11612 5.30777C9.35054 5.07335 9.66848 4.94165 10 4.94165C10.3315 4.94165 10.6495 5.07335 10.8839 5.30777C11.1183 5.54219 11.25 5.86013 11.25 6.19165C11.25 6.52317 11.1183 6.84111 10.8839 7.07553C10.6495 7.30995 10.3315 7.44165 10 7.44165Z" fill="#1B1B1B"/>
</g>
<defs>
<clipPath id="clip0_337_5210">
<rect width="20" height="20" fill="white" transform="translate(0 0.56665)"/>
</clipPath>
</defs>
</svg>
