<svg width="24" height="25" viewBox="0 0 24 25" fill="none" xmlns="http://www.w3.org/2000/svg">
<g clip-path="url(#clip0_1438_9914)">
<path d="M12 0.319336C8.7435 0.319336 8.334 0.334336 7.0545 0.391336C5.775 0.451336 4.9035 0.652336 4.14 0.949336C3.33914 1.25056 2.61374 1.72308 2.0145 2.33384C1.40411 2.93338 0.931661 3.6587 0.63 4.45934C0.333 5.22134 0.1305 6.09434 0.072 7.36934C0.015 8.65184 0 9.05984 0 12.3208C0 15.5788 0.015 15.9868 0.072 17.2663C0.132 18.5443 0.333 19.4158 0.63 20.1793C0.9375 20.9683 1.347 21.6373 2.0145 22.3048C2.6805 22.9723 3.3495 23.3833 4.1385 23.6893C4.9035 23.9863 5.7735 24.1888 7.0515 24.2473C8.3325 24.3043 8.7405 24.3193 12 24.3193C15.2595 24.3193 15.666 24.3043 16.947 24.2473C18.2235 24.1873 19.098 23.9863 19.8615 23.6893C20.6618 23.388 21.3867 22.9155 21.9855 22.3048C22.653 21.6373 23.0625 20.9683 23.37 20.1793C23.6655 19.4158 23.868 18.5443 23.928 17.2663C23.985 15.9868 24 15.5788 24 12.3193C24 9.05984 23.985 8.65184 23.928 7.37084C23.868 6.09434 23.6655 5.22134 23.37 4.45934C23.0684 3.65867 22.5959 2.93335 21.9855 2.33384C21.3864 1.72285 20.661 1.2503 19.86 0.949336C19.095 0.652336 18.222 0.449836 16.9455 0.391336C15.6645 0.334336 15.258 0.319336 11.997 0.319336H12.0015H12ZM10.9245 2.48234H12.0015C15.2055 2.48234 15.585 2.49284 16.8495 2.55134C18.0195 2.60384 18.6555 2.80034 19.0785 2.96384C19.638 3.18134 20.0385 3.44234 20.4585 3.86234C20.8785 4.28234 21.138 4.68134 21.3555 5.24234C21.5205 5.66384 21.7155 6.29984 21.768 7.46984C21.8265 8.73434 21.8385 9.11384 21.8385 12.3163C21.8385 15.5188 21.8265 15.8998 21.768 17.1643C21.7155 18.3343 21.519 18.9688 21.3555 19.3918C21.1631 19.9129 20.856 20.384 20.457 20.7703C20.037 21.1903 19.638 21.4498 19.077 21.6673C18.657 21.8323 18.021 22.0273 16.8495 22.0813C15.585 22.1383 15.2055 22.1518 12.0015 22.1518C8.7975 22.1518 8.4165 22.1383 7.152 22.0813C5.982 22.0273 5.3475 21.8323 4.9245 21.6673C4.40325 21.4752 3.93169 21.1687 3.5445 20.7703C3.14513 20.3834 2.83758 19.9118 2.6445 19.3903C2.481 18.9688 2.2845 18.3328 2.232 17.1628C2.175 15.8983 2.163 15.5188 2.163 12.3133C2.163 9.10934 2.175 8.73134 2.232 7.46684C2.286 6.29684 2.481 5.66084 2.646 5.23784C2.8635 4.67834 3.1245 4.27784 3.5445 3.85784C3.9645 3.43784 4.3635 3.17834 4.9245 2.96084C5.3475 2.79584 5.982 2.60084 7.152 2.54684C8.259 2.49584 8.688 2.48084 10.9245 2.47934V2.48234ZM18.4065 4.47434C18.2174 4.47434 18.0301 4.51158 17.8554 4.58395C17.6807 4.65632 17.522 4.76239 17.3883 4.8961C17.2545 5.02982 17.1485 5.18856 17.0761 5.36327C17.0037 5.53798 16.9665 5.72523 16.9665 5.91434C16.9665 6.10344 17.0037 6.29069 17.0761 6.4654C17.1485 6.64011 17.2545 6.79885 17.3883 6.93257C17.522 7.06629 17.6807 7.17236 17.8554 7.24472C18.0301 7.31709 18.2174 7.35434 18.4065 7.35434C18.7884 7.35434 19.1547 7.20262 19.4247 6.93257C19.6948 6.66252 19.8465 6.29625 19.8465 5.91434C19.8465 5.53242 19.6948 5.16615 19.4247 4.8961C19.1547 4.62605 18.7884 4.47434 18.4065 4.47434ZM12.0015 6.15734C11.1841 6.14458 10.3723 6.29456 9.61347 6.59855C8.85459 6.90253 8.16377 7.35444 7.58123 7.92797C6.99868 8.5015 6.53605 9.18519 6.22026 9.93923C5.90448 10.6933 5.74185 11.5026 5.74185 12.3201C5.74185 13.1376 5.90448 13.9469 6.22026 14.7009C6.53605 15.455 6.99868 16.1387 7.58123 16.7122C8.16377 17.2857 8.85459 17.7376 9.61347 18.0416C10.3723 18.3456 11.1841 18.4956 12.0015 18.4828C13.6193 18.4576 15.1623 17.7972 16.2975 16.6442C17.4326 15.4912 18.0689 13.9381 18.0689 12.3201C18.0689 10.7021 17.4326 9.14895 16.2975 7.99596C15.1623 6.84297 13.6193 6.18258 12.0015 6.15734ZM12.0015 8.31884C13.0625 8.31884 14.08 8.74032 14.8303 9.49055C15.5805 10.2408 16.002 11.2583 16.002 12.3193C16.002 13.3803 15.5805 14.3979 14.8303 15.1481C14.08 15.8984 13.0625 16.3198 12.0015 16.3198C10.9405 16.3198 9.92296 15.8984 9.17272 15.1481C8.42248 14.3979 8.001 13.3803 8.001 12.3193C8.001 11.2583 8.42248 10.2408 9.17272 9.49055C9.92296 8.74032 10.9405 8.31884 12.0015 8.31884Z" fill="white"/>
</g>
<defs>
<clipPath id="clip0_1438_9914">
<rect width="24" height="24" fill="white" transform="translate(0 0.319336)"/>
</clipPath>
</defs>
</svg>
