<svg xmlns="http://www.w3.org/2000/svg" viewBox="0.2 6.2 17.6704 17.6" fill="none" style="max-height: 500px" width="17.6704" height="17.6">
<circle stroke-width="1.6" stroke="#72227D" r="8" cy="15" cx="9"/>
<path stroke-width="1.6" stroke="#72227D" d="M15.2075 9.78485C14.4747 10.4609 13.5544 11.0091 12.5106 11.3914C11.4668 11.7738 10.3244 11.981 9.163 11.9988C8.00158 12.0165 6.84894 11.8443 5.7852 11.4942C4.72146 11.1441 3.77215 10.6245 3.00325 9.97139"/>
<path stroke-width="1.6" stroke="#72227D" d="M15.3222 20.3235C14.5826 19.608 13.6367 19.0274 12.5553 18.6251C11.474 18.2227 10.2853 18.0091 9.07829 18.0003C7.87127 17.9914 6.67723 18.1875 5.58561 18.5739C4.494 18.9603 3.53311 19.5269 2.77495 20.2314"/>
<path stroke="#72227D" d="M9 7V23"/>
<path stroke-width="1.6" stroke="#72227D" d="M17 15H1"/>
</svg>