<svg width="16" height="15" viewBox="0 0 16 15" fill="none" xmlns="http://www.w3.org/2000/svg">
<path d="M9.125 4.125H6.875C6.57663 4.125 6.29048 4.24353 6.0795 4.4545C5.86853 4.66548 5.75 4.95163 5.75 5.25V13.6875C5.75 13.9859 5.86853 14.272 6.0795 14.483C6.29048 14.694 6.57663 14.8125 6.875 14.8125H9.125C9.42337 14.8125 9.70952 14.694 9.9205 14.483C10.1315 14.272 10.25 13.9859 10.25 13.6875V5.25C10.25 4.95163 10.1315 4.66548 9.9205 4.4545C9.70952 4.24353 9.42337 4.125 9.125 4.125ZM6.875 13.6875V5.25H9.125V13.6875H6.875ZM14.75 0.1875H12.5C12.2016 0.1875 11.9155 0.306026 11.7045 0.517005C11.4935 0.727983 11.375 1.01413 11.375 1.3125V13.6875C11.375 13.9859 11.4935 14.272 11.7045 14.483C11.9155 14.694 12.2016 14.8125 12.5 14.8125H14.75C15.0484 14.8125 15.3345 14.694 15.5455 14.483C15.7565 14.272 15.875 13.9859 15.875 13.6875V1.3125C15.875 1.01413 15.7565 0.727983 15.5455 0.517005C15.3345 0.306026 15.0484 0.1875 14.75 0.1875ZM12.5 13.6875V1.3125H14.75V13.6875H12.5ZM3.5 8.0625H1.25C0.951631 8.0625 0.665483 8.18103 0.454505 8.392C0.243526 8.60298 0.125 8.88913 0.125 9.1875V13.6875C0.125 13.9859 0.243526 14.272 0.454505 14.483C0.665483 14.694 0.951631 14.8125 1.25 14.8125H3.5C3.79837 14.8125 4.08452 14.694 4.2955 14.483C4.50647 14.272 4.625 13.9859 4.625 13.6875V9.1875C4.625 8.88913 4.50647 8.60298 4.2955 8.392C4.08452 8.18103 3.79837 8.0625 3.5 8.0625ZM1.25 13.6875V9.1875H3.5V13.6875H1.25Z" fill="#72227D"/>
</svg>
