<svg width="20" height="21" viewBox="0 0 20 21" fill="none" xmlns="http://www.w3.org/2000/svg">
<g clip-path="url(#clip0_2012_2266)">
<path d="M2.5 8.06664C2.49997 6.82816 2.80663 5.60894 3.3926 4.51785C3.97858 3.42676 4.82564 2.49777 5.85814 1.81381C6.89064 1.12986 8.07644 0.712243 9.30967 0.598247C10.5429 0.48425 11.7852 0.677425 12.9255 1.16052C14.0659 1.64362 15.0689 2.4016 15.845 3.36679C16.621 4.33197 17.146 5.47432 17.373 6.69183C17.5999 7.90933 17.5219 9.1641 17.1458 10.3441C16.7697 11.5241 16.1072 12.5926 15.2175 13.4541C14.9638 13.6991 14.7688 13.9541 14.6513 14.2279L13.6988 16.4391C13.6504 16.5512 13.5703 16.6467 13.4684 16.7138C13.3664 16.7808 13.2471 16.8166 13.125 16.8166H6.875C6.75274 16.8169 6.63311 16.7812 6.5309 16.7141C6.4287 16.647 6.34842 16.5514 6.3 16.4391L5.34875 14.2266C5.21255 13.9345 5.02014 13.672 4.7825 13.4541C4.05953 12.7556 3.48479 11.9185 3.09262 10.9928C2.70045 10.0672 2.4989 9.07195 2.5 8.06664ZM6.25 18.6916C6.25 18.5259 6.31585 18.3669 6.43306 18.2497C6.55027 18.1325 6.70924 18.0666 6.875 18.0666H13.125C13.2908 18.0666 13.4497 18.1325 13.5669 18.2497C13.6842 18.3669 13.75 18.5259 13.75 18.6916C13.75 18.8574 13.6842 19.0164 13.5669 19.1336C13.4497 19.2508 13.2908 19.3166 13.125 19.3166L12.845 19.8754C12.7413 20.083 12.5818 20.2576 12.3844 20.3797C12.187 20.5018 11.9596 20.5665 11.7275 20.5666H8.2725C8.04043 20.5665 7.81297 20.5018 7.6156 20.3797C7.41823 20.2576 7.25874 20.083 7.155 19.8754L6.875 19.3166C6.70924 19.3166 6.55027 19.2508 6.43306 19.1336C6.31585 19.0164 6.25 18.8574 6.25 18.6916Z" fill="#1B1B1B"/>
</g>
<defs>
<clipPath id="clip0_2012_2266">
<rect width="20" height="20" fill="white" transform="translate(0 0.56665)"/>
</clipPath>
</defs>
</svg>
