<svg width="17" height="16" viewBox="0 0 17 16" fill="none" xmlns="http://www.w3.org/2000/svg">
<path d="M11.5 5.5C12.6935 5.5 13.8381 5.97411 14.682 6.81802C15.5259 7.66193 16 8.80653 16 10V15.25H13V10C13 9.60218 12.842 9.22064 12.5607 8.93934C12.2794 8.65804 11.8978 8.5 11.5 8.5C11.1022 8.5 10.7206 8.65804 10.4393 8.93934C10.158 9.22064 10 9.60218 10 10V15.25H7V10C7 8.80653 7.47411 7.66193 8.31802 6.81802C9.16193 5.97411 10.3065 5.5 11.5 5.5Z" stroke="#72227D" stroke-width="1.5" stroke-linecap="round" stroke-linejoin="round"/>
<path d="M4 6.25H1V15.25H4V6.25Z" stroke="#72227D" stroke-width="1.5" stroke-linecap="round" stroke-linejoin="round"/>
<path d="M2.5 4C3.32843 4 4 3.32843 4 2.5C4 1.67157 3.32843 1 2.5 1C1.67157 1 1 1.67157 1 2.5C1 3.32843 1.67157 4 2.5 4Z" stroke="#72227D" stroke-width="1.5" stroke-linecap="round" stroke-linejoin="round"/>
</svg>
