<svg width="25" height="25" viewBox="0 0 25 25" fill="none" xmlns="http://www.w3.org/2000/svg">
<path fill-rule="evenodd" clip-rule="evenodd" d="M8 18.1609C8 17.962 8.07902 17.7712 8.21967 17.6306C8.36032 17.4899 8.55109 17.4109 8.75 17.4109H22.25C22.4489 17.4109 22.6397 17.4899 22.7803 17.6306C22.921 17.7712 23 17.962 23 18.1609C23 18.3598 22.921 18.5506 22.7803 18.6912C22.6397 18.8319 22.4489 18.9109 22.25 18.9109H8.75C8.55109 18.9109 8.36032 18.8319 8.21967 18.6912C8.07902 18.5506 8 18.3598 8 18.1609ZM8 12.1609C8 11.962 8.07902 11.7712 8.21967 11.6306C8.36032 11.4899 8.55109 11.4109 8.75 11.4109H22.25C22.4489 11.4109 22.6397 11.4899 22.7803 11.6306C22.921 11.7712 23 11.962 23 12.1609C23 12.3598 22.921 12.5506 22.7803 12.6912C22.6397 12.8319 22.4489 12.9109 22.25 12.9109H8.75C8.55109 12.9109 8.36032 12.8319 8.21967 12.6912C8.07902 12.5506 8 12.3598 8 12.1609ZM8 6.16089C8 5.96198 8.07902 5.77121 8.21967 5.63056C8.36032 5.48991 8.55109 5.41089 8.75 5.41089H22.25C22.4489 5.41089 22.6397 5.48991 22.7803 5.63056C22.921 5.77121 23 5.96198 23 6.16089C23 6.3598 22.921 6.55057 22.7803 6.69122C22.6397 6.83187 22.4489 6.91089 22.25 6.91089H8.75C8.55109 6.91089 8.36032 6.83187 8.21967 6.69122C8.07902 6.55057 8 6.3598 8 6.16089ZM3.5 7.66089C3.89782 7.66089 4.27936 7.50285 4.56066 7.22155C4.84196 6.94024 5 6.55871 5 6.16089C5 5.76306 4.84196 5.38153 4.56066 5.10023C4.27936 4.81892 3.89782 4.66089 3.5 4.66089C3.10218 4.66089 2.72064 4.81892 2.43934 5.10023C2.15804 5.38153 2 5.76306 2 6.16089C2 6.55871 2.15804 6.94024 2.43934 7.22155C2.72064 7.50285 3.10218 7.66089 3.5 7.66089ZM3.5 13.6609C3.89782 13.6609 4.27936 13.5029 4.56066 13.2215C4.84196 12.9402 5 12.5587 5 12.1609C5 11.7631 4.84196 11.3815 4.56066 11.1002C4.27936 10.8189 3.89782 10.6609 3.5 10.6609C3.10218 10.6609 2.72064 10.8189 2.43934 11.1002C2.15804 11.3815 2 11.7631 2 12.1609C2 12.5587 2.15804 12.9402 2.43934 13.2215C2.72064 13.5029 3.10218 13.6609 3.5 13.6609ZM3.5 19.6609C3.89782 19.6609 4.27936 19.5029 4.56066 19.2215C4.84196 18.9402 5 18.5587 5 18.1609C5 17.7631 4.84196 17.3815 4.56066 17.1002C4.27936 16.8189 3.89782 16.6609 3.5 16.6609C3.10218 16.6609 2.72064 16.8189 2.43934 17.1002C2.15804 17.3815 2 17.7631 2 18.1609C2 18.5587 2.15804 18.9402 2.43934 19.2215C2.72064 19.5029 3.10218 19.6609 3.5 19.6609Z" fill="#BDBDBD"/>
</svg>
