<svg width="25" height="19" viewBox="0 0 25 19" fill="none" xmlns="http://www.w3.org/2000/svg">
<path d="M0.5 3.02258C0.5 2.22693 0.816071 1.46387 1.37868 0.901263C1.94129 0.338653 2.70435 0.022583 3.5 0.022583H21.5C22.2956 0.022583 23.0587 0.338653 23.6213 0.901263C24.1839 1.46387 24.5 2.22693 24.5 3.02258V15.0226C24.5 15.8182 24.1839 16.5813 23.6213 17.1439C23.0587 17.7065 22.2956 18.0226 21.5 18.0226H3.5C2.70435 18.0226 1.94129 17.7065 1.37868 17.1439C0.816071 16.5813 0.5 15.8182 0.5 15.0226V3.02258ZM3.5 1.52258C3.10218 1.52258 2.72064 1.68062 2.43934 1.96192C2.15804 2.24323 2 2.62476 2 3.02258V3.34808L12.5 9.64808L23 3.34808V3.02258C23 2.62476 22.842 2.24323 22.5607 1.96192C22.2794 1.68062 21.8978 1.52258 21.5 1.52258H3.5ZM23 5.09708L15.938 9.33458L23 13.6801V5.09708ZM22.949 15.4111L14.489 10.2046L12.5 11.3971L10.511 10.2046L2.051 15.4096C2.13624 15.7288 2.32447 16.0109 2.58648 16.2122C2.84849 16.4134 3.16962 16.5225 3.5 16.5226H21.5C21.8302 16.5226 22.1512 16.4137 22.4131 16.2128C22.6751 16.0118 22.8635 15.73 22.949 15.4111ZM2 13.6801L9.062 9.33458L2 5.09708V13.6801Z" fill="white"/>
</svg>
