<svg width="24" height="25" viewBox="0 0 24 25" fill="none" xmlns="http://www.w3.org/2000/svg">
<path d="M0 6.56665C0 5.771 0.316071 5.00794 0.87868 4.44533C1.44129 3.88272 2.20435 3.56665 3 3.56665H21C21.7956 3.56665 22.5587 3.88272 23.1213 4.44533C23.6839 5.00794 24 5.771 24 6.56665V18.5667C24 19.3623 23.6839 20.1254 23.1213 20.688C22.5587 21.2506 21.7956 21.5667 21 21.5667H3C2.20435 21.5667 1.44129 21.2506 0.87868 20.688C0.316071 20.1254 0 19.3623 0 18.5667V6.56665ZM3 5.06665C2.60218 5.06665 2.22064 5.22469 1.93934 5.50599C1.65804 5.78729 1.5 6.16883 1.5 6.56665V6.89215L12 13.1922L22.5 6.89215V6.56665C22.5 6.16883 22.342 5.78729 22.0607 5.50599C21.7794 5.22469 21.3978 5.06665 21 5.06665H3ZM22.5 8.64115L15.438 12.8787L22.5 17.2241V8.64115ZM22.449 18.9552L13.989 13.7487L12 14.9412L10.011 13.7487L1.551 18.9537C1.63624 19.2728 1.82447 19.555 2.08648 19.7562C2.34849 19.9575 2.66962 20.0666 3 20.0667H21C21.3302 20.0667 21.6512 19.9578 21.9131 19.7568C22.1751 19.5559 22.3635 19.2741 22.449 18.9552ZM1.5 17.2241L8.562 12.8787L1.5 8.64115V17.2241Z" fill="#1B1B1B"/>
</svg>
