<svg width="834" height="759" viewBox="0 0 834 759" fill="none" xmlns="http://www.w3.org/2000/svg">
<mask id="path-1-inside-1_30_841" fill="white">
<path d="M825.11 457.443C837.588 403.331 836.923 347.392 823.162 293.539C809.4 239.686 782.875 189.22 745.442 145.671C708.008 102.123 660.571 66.5449 606.449 41.4257C552.327 16.3066 492.828 2.25337 432.114 0.249361C371.401 -1.75465 310.939 8.33895 254.96 29.8239C198.981 51.3089 148.836 83.6663 108.035 124.632C67.2331 165.598 36.7603 214.183 18.7482 266.987C0.736218 319.792 -4.37996 375.54 3.75767 430.332L417 379.5L825.11 457.443Z"/>
</mask>
<path d="M825.11 457.443C837.588 403.331 836.923 347.392 823.162 293.539C809.4 239.686 782.875 189.22 745.442 145.671C708.008 102.123 660.571 66.5449 606.449 41.4257C552.327 16.3066 492.828 2.25337 432.114 0.249361C371.401 -1.75465 310.939 8.33895 254.96 29.8239C198.981 51.3089 148.836 83.6663 108.035 124.632C67.2331 165.598 36.7603 214.183 18.7482 266.987C0.736218 319.792 -4.37996 375.54 3.75767 430.332L417 379.5L825.11 457.443Z" stroke="url(#paint0_linear_30_841)" stroke-width="6" mask="url(#path-1-inside-1_30_841)"/>
<mask id="path-2-inside-2_30_841" fill="white">
<path d="M817 409C817 320.683 774.436 235.983 698.671 173.533C622.906 111.084 520.147 76 413 76C305.853 76 203.094 111.084 127.329 173.533C51.5642 235.983 9.00002 320.683 9 409L413 409H817Z"/>
</mask>
<path d="M817 409C817 320.683 774.436 235.983 698.671 173.533C622.906 111.084 520.147 76 413 76C305.853 76 203.094 111.084 127.329 173.533C51.5642 235.983 9.00002 320.683 9 409L413 409H817Z" stroke="url(#paint1_linear_30_841)" stroke-width="6" mask="url(#path-2-inside-2_30_841)"/>
<defs>
<linearGradient id="paint0_linear_30_841" x1="417" y1="0" x2="417" y2="759" gradientUnits="userSpaceOnUse">
<stop stop-color="#F2E5BF"/>
<stop offset="1" stop-color="#FCFAEE"/>
</linearGradient>
<linearGradient id="paint1_linear_30_841" x1="92.1765" y1="177.614" x2="114.392" y2="769.327" gradientUnits="userSpaceOnUse">
<stop stop-color="#F2E5BF"/>
<stop offset="1" stop-color="#FCFAEE"/>
</linearGradient>
</defs>
</svg>
