<svg width="137" height="100" viewBox="0 0 137 100" fill="none" xmlns="http://www.w3.org/2000/svg">
<path fill-rule="evenodd" clip-rule="evenodd" d="M107.316 70.9969C103.31 64.8991 100.095 58.377 96.354 52.1647C95.311 50.4367 94.215 48.7302 93.5447 46.8102C93.1979 45.8146 92.7401 44.716 93.7734 43.8804C94.8006 43.0499 95.8814 43.506 96.8607 44.0905C99.0979 45.4297 100.705 47.4152 102.187 49.4944C104.813 53.1784 107.071 57.0992 109.518 60.8986C113.994 67.8483 119.015 74.4427 123.041 81.6865C123.696 82.8662 124.349 84.0413 124.743 85.3373C125.571 88.0757 123.93 90.3147 121.065 90.289C120.21 90.2802 119.33 90.1369 118.511 89.8956C108.087 86.8243 97.6263 83.8596 87.3388 80.3678C82.8875 78.8568 78.495 77.1129 74.2335 75.0901C73.8008 74.8849 73.3792 74.6436 72.9955 74.361C72.1526 73.7446 71.7018 72.9274 71.9958 71.8608C72.3067 70.7257 73.1652 70.2327 74.2675 70.2187C76.256 70.1964 78.1642 70.7509 80.0927 71.1477C87.4979 72.6693 94.7404 74.7768 101.91 77.1558C102.397 77.3162 102.878 77.5823 103.419 77.497C103.635 77.2421 103.39 77.1494 103.272 77.0404C88.6009 63.6264 71.6624 53.7769 53.7361 45.4619C42.1592 40.0897 30.3756 35.2852 18.0361 31.9364C14.9762 31.1051 11.8895 30.3696 8.82691 29.542C7.4843 29.1786 6.11877 28.8253 4.93478 28.052C3.55445 27.1547 3.63991 25.7505 5.12875 25.0399C6.37684 24.4444 7.74236 24.4323 9.09013 24.4658C13.146 24.5732 17.1092 25.3681 21.0684 26.1621C30.7953 28.1122 39.9173 31.8201 48.9942 35.704C62.1458 41.3341 74.8733 47.7553 86.9366 55.4668C93.7183 59.8017 100.022 64.7593 106.131 69.9824C106.525 70.3217 106.921 70.6601 107.316 70.9969Z" fill="#F2E5BF"/>
<path fill-rule="evenodd" clip-rule="evenodd" d="M53.2726 28.4597C60.8636 31.7903 68.4448 35.719 75.7527 40.1752C76.7332 40.7729 77.7348 41.3752 78.4359 42.3237C79.221 43.3858 79.427 44.5371 78.6306 45.6636C77.8335 46.7878 76.6789 46.9987 75.421 46.5893C74.8812 46.4135 74.3618 46.1289 73.8777 45.8286C66.526 41.2532 58.8607 37.2816 50.9436 33.7888C50.1057 33.4209 49.2692 33.0472 48.5784 32.434C47.5688 31.5426 46.9879 30.4795 47.5246 29.1152C47.9724 27.9763 49.3154 27.3894 50.8203 27.6879C51.5662 27.8381 52.2825 28.1426 53.2726 28.4597Z" fill="#F2E5BF"/>
<path fill-rule="evenodd" clip-rule="evenodd" d="M41.7894 29.8978C40.8274 29.5239 39.7686 29.065 38.9824 28.1748C38.2658 27.3661 37.9699 26.4315 38.383 25.3846C38.7975 24.3351 39.6604 23.8109 40.7374 23.7879C42.7057 23.7476 44.389 24.5179 45.7295 25.9377C46.4331 26.6816 46.62 27.6339 46.2169 28.6138C45.7917 29.6434 44.9601 30.145 43.8769 30.2576C43.1918 30.3286 42.5464 30.1572 41.7894 29.8978Z" fill="#F2E5BF"/>
</svg>
