<svg width="20" height="21" viewBox="0 0 20 21" fill="none" xmlns="http://www.w3.org/2000/svg">
<path fill-rule="evenodd" clip-rule="evenodd" d="M7.5 3.06665C7.62845 3.06671 7.75376 3.10633 7.85888 3.18014C7.964 3.25395 8.04383 3.35836 8.0875 3.47915L12.5 15.6117L14.4125 10.3517C14.4566 10.2313 14.5366 10.1275 14.6417 10.0541C14.7468 9.98078 14.8719 9.94152 15 9.94165H19.375C19.5408 9.94165 19.6997 10.0075 19.8169 10.1247C19.9342 10.2419 20 10.4009 20 10.5667C20 10.7324 19.9342 10.8914 19.8169 11.0086C19.6997 11.1258 19.5408 11.1917 19.375 11.1917H15.4375L13.0875 17.6542C13.0437 17.7748 12.9638 17.8791 12.8587 17.9527C12.7536 18.0264 12.6284 18.0659 12.5 18.0659C12.3716 18.0659 12.2464 18.0264 12.1413 17.9527C12.0362 17.8791 11.9563 17.7748 11.9125 17.6542L7.5 5.52165L5.5875 10.7804C5.54362 10.901 5.46371 11.0051 5.3586 11.0787C5.2535 11.1522 5.1283 11.1917 5 11.1917H0.625C0.45924 11.1917 0.300269 11.1258 0.183058 11.0086C0.065848 10.8914 0 10.7324 0 10.5667C0 10.4009 0.065848 10.2419 0.183058 10.1247C0.300269 10.0075 0.45924 9.94165 0.625 9.94165H4.5625L6.9125 3.47915C6.95617 3.35836 7.036 3.25395 7.14112 3.18014C7.24624 3.10633 7.37155 3.06671 7.5 3.06665Z" fill="#1B1B1B"/>
</svg>
