<svg width="20" height="21" viewBox="0 0 20 21" fill="none" xmlns="http://www.w3.org/2000/svg">
<g clip-path="url(#clip0_941_4898)">
<path d="M19.7813 0.716656C19.8839 0.804234 19.9554 0.922655 19.9852 1.05423C20.0149 1.1858 20.0013 1.32347 19.9463 1.44666C18.0338 5.73416 14.0176 11.6592 11.0776 14.7467C10.2535 15.6104 9.23722 16.2674 8.11134 16.6642C8.08884 16.9479 8.03634 17.3367 7.91134 17.7492C7.66009 18.5729 7.07759 19.5979 5.77634 19.9242C4.51612 20.2242 3.21011 20.2803 1.92884 20.0892C1.69059 20.0515 1.45569 19.9951 1.22634 19.9204C1.01415 19.8558 0.816382 19.751 0.643836 19.6117C0.530049 19.5149 0.442371 19.3911 0.388836 19.2517C0.322483 19.0727 0.324263 18.8756 0.393836 18.6979C0.512586 18.3917 0.788836 18.2229 0.970086 18.1329C1.46259 17.8867 1.75134 17.5667 2.05384 17.1004C2.17259 16.9204 2.28384 16.7292 2.41259 16.5104L2.55884 16.2629C2.74759 15.9442 2.96634 15.5879 3.24134 15.2029C3.90134 14.2792 4.74259 14.0467 5.42384 14.0829C5.58134 14.0917 5.72759 14.1142 5.85884 14.1429C5.93634 13.9279 6.03634 13.6679 6.15634 13.3829C6.48259 12.6092 6.97884 11.6092 7.64009 10.7967C10.3601 7.45916 15.3651 3.03916 19.0363 0.666656C19.1494 0.593705 19.2829 0.559168 19.4171 0.568176C19.5513 0.577184 19.6791 0.629257 19.7813 0.716656Z" fill="#1B1B1B"/>
</g>
<defs>
<clipPath id="clip0_941_4898">
<rect width="20" height="20" fill="white" transform="translate(0 0.56665)"/>
</clipPath>
</defs>
</svg>
