<svg width="87" height="69" viewBox="0 0 87 69" fill="none" xmlns="http://www.w3.org/2000/svg">
<path d="M34.384 4.05175C33.6932 4.03283 35.6949 5.05604 35.8145 5.11907C35.9542 5.22031 35.9396 5.27687 36.1154 5.34164C36.2997 5.40773 36.3775 5.49209 36.5304 5.54831C36.632 5.5873 36.7107 5.65827 36.7613 5.72859C36.8757 5.75856 37.0303 5.79275 37.1444 5.80195C37.5452 5.86931 37.7506 6.02627 38.1003 6.18216C38.2974 6.25199 38.6938 6.39307 38.6938 6.39307C38.8956 6.46058 39.312 6.60551 39.4814 6.72014C39.6321 6.77536 39.935 6.88701 39.935 6.88701C39.9859 6.95609 40.087 7.09405 40.087 7.09405C39.8749 7.1353 39.6977 7.10101 39.9379 7.27047C40.1494 7.38805 40.0772 7.33242 40.2096 7.2741C40.2238 7.24429 40.2515 7.18365 40.2515 7.18365C40.3294 7.24558 40.5302 7.41412 40.6451 7.38566C40.6284 7.32189 40.5927 7.19378 40.5927 7.19378C40.7079 7.22086 40.9387 7.27606 40.9387 7.27606C41.0347 7.34311 41.2254 7.47865 41.2254 7.47865C41.581 7.68363 42.3698 7.98724 42.3698 7.98724C42.6222 8.08412 42.8792 8.18835 43.1348 8.29836L42.46 9.08202C41.7674 8.75081 40.0017 7.8317 39.6407 7.64161C39.5528 7.58104 39.4776 7.50261 39.4219 7.4301C39.3066 7.40343 39.0743 7.35051 39.0743 7.35051C38.9716 7.29714 38.7673 7.20826 38.6521 7.21245C38.4166 7.23488 38.3633 7.17488 38.1525 7.10153C38.2269 7.07977 38.5652 7.01032 38.3917 6.93647C38.1301 6.84383 37.7126 6.64665 37.4693 6.74017C37.2334 6.84222 37.0949 6.53914 36.8143 6.42267C36.5445 6.33671 36.1856 6.23526 36.0084 6.05386C35.9276 5.95946 35.7292 5.77217 35.5624 5.80089C35.4318 5.84952 35.4765 5.92361 35.4 5.85055C35.3171 5.77058 35.0668 5.73724 35.0668 5.73724C35.0283 5.67006 34.9892 5.41422 34.8627 5.5097C34.8187 5.52962 34.7316 5.56923 34.7316 5.56923C34.6232 5.61921 34.5753 5.62004 34.5685 5.51171C34.4618 5.36395 33.9235 5.08977 33.7094 4.81298C33.6999 4.8092 33.6851 4.84149 33.6742 4.85233C33.6677 4.86167 33.6231 4.92151 33.6231 4.92151C33.6136 4.93356 33.6026 4.94482 33.5893 4.95549C33.5971 4.9597 33.6052 4.96577 33.6132 4.97575L33.4764 5.05757C33.4647 5.05279 33.3886 5.14678 33.3886 5.14678C33.2296 5.32415 32.9439 5.7009 32.9439 5.7009C32.6261 6.16099 33.5136 6.53983 33.5453 6.95583C33.5169 7.05022 33.2697 8.13626 33.3182 8.13953C33.3537 8.2839 33.3824 8.38907 33.4061 8.53833C33.3245 9.21483 32.5097 10.9422 32.1957 11.6697C32.1772 11.7098 32.1379 11.79 32.1379 11.79C32.0912 11.9052 32.0409 12.1564 32.101 12.2838C32.1868 12.3716 32.3431 12.4555 32.4589 12.5268C32.6389 12.6477 32.5992 12.7229 32.8067 12.7998C33.0227 12.878 33.1007 12.977 33.2786 13.0432C33.4001 13.0926 33.4717 13.1912 33.5143 13.2767C33.638 13.2958 33.8154 13.3139 33.9344 13.3103C34.1185 13.3587 34.4829 13.4541 34.4829 13.4541C34.6277 13.5359 34.9172 13.6992 34.9172 13.6992L35.1843 13.7862L34.1241 13.4715C33.6725 13.3378 33.0604 13.1269 32.6104 13.0649C31.4903 12.7665 29.7959 12.1573 28.6295 11.7747C28.585 11.7561 28.1761 11.5977 28.1761 11.5977C28.0458 11.5478 27.9517 11.4892 27.8458 11.4169C27.5192 11.344 26.8651 11.1985 26.8651 11.1985C26.5659 11.1922 26.5163 11.1367 26.2445 11.0678C26.3062 11.0604 26.6964 11.0343 26.4683 10.9684C26.1458 10.886 25.5763 10.6698 25.2853 10.7378C25.0444 10.7906 24.6251 10.5128 24.3696 10.4371C23.7442 10.284 23.3442 10.1257 22.7626 9.89058C22.3437 9.73355 22.4182 9.90251 22.238 9.83575C22.0904 9.77473 21.8531 9.73196 21.6916 9.70877C21.8901 9.71687 23.1934 9.78556 23.2074 9.69053C22.9746 9.56747 22.8279 9.86339 22.5659 9.62489L22.3028 9.51292C22.2647 9.5163 22.2807 9.52 22.2594 9.53653C22.2204 9.55947 22.2577 9.53696 22.2509 9.5854C22.207 9.62692 21.8896 9.56525 21.8071 9.54966C21.5847 9.46494 21.118 9.33918 21.118 9.33918C20.6724 9.26685 21.2856 9.47668 21.4079 9.50738C21.716 9.57987 21.5064 9.61471 21.5064 9.61471C21.6494 9.7908 21.737 9.97152 21.6877 10.1468C21.5521 10.3118 20.5993 10.3049 20.2339 10.3793C20.309 10.4114 20.5986 10.5333 20.5054 10.603C20.4388 11.9295 21.4504 10.2639 20.137 11.1496C20.2608 11.2965 20.2939 11.3187 20.3756 11.4913C20.1874 12.0354 17.3393 12.3514 16.5265 12.4604C16.4712 12.6337 16.5127 12.8272 16.7593 12.9719L18.2118 13.5935L19.4944 14.2307C20.1092 14.4343 20.7457 14.6387 21.3555 14.8521C21.5889 14.9572 21.6087 15.0245 21.8714 15.091C22.1259 15.1549 22.2881 15.2505 22.511 15.3085C22.6485 15.3462 22.7757 15.4142 22.8729 15.4953C23.0412 15.5264 23.3847 15.5649 23.3847 15.5649C23.8392 15.6095 24.6764 15.9384 24.6764 15.9384C24.9326 16.005 25.4443 16.138 25.4443 16.138C25.7213 16.206 26.2095 16.3294 26.4655 16.4501C26.6592 16.5023 27.0449 16.6062 27.0449 16.6062C27.1239 16.676 27.2828 16.8156 27.2828 16.8156C27.0477 16.8677 26.8273 16.8381 27.1592 17.0061C27.4406 17.1193 27.3401 17.0669 27.4814 16.999C27.4881 16.9668 27.5023 16.9023 27.5023 16.9023C27.6146 16.9656 27.8988 17.1306 28.0257 17.0964C27.9868 17.0309 27.9054 16.8984 27.9054 16.8984C28.0506 16.9218 28.3385 16.9693 28.3385 16.9693C28.4726 17.0356 28.7424 17.1687 28.7424 17.1687C29.2408 17.3718 30.294 17.6476 30.294 17.6476C31.5667 17.9819 32.8603 18.3449 34.15 18.7136L33.5798 19.3745C33.103 19.2254 32.647 19.0742 32.3375 18.9569C31.6805 18.7758 30.3654 18.4147 30.3654 18.4147C29.8195 18.2826 28.7662 17.9288 28.7662 17.9288C28.8393 17.9745 28.9848 18.0658 28.9848 18.0658L27.7873 17.7315C27.4189 17.595 27.1093 17.4785 26.9157 17.4043C26.8031 17.3484 26.6857 17.2675 26.5975 17.1923C26.4538 17.1693 26.1657 17.1226 26.1657 17.1226C26.0236 17.0714 25.7685 16.9849 25.6277 16.9943C25.3564 17.0269 25.2646 16.9627 25.0029 16.8955C25.0812 16.8709 25.4679 16.7862 25.2418 16.7159C24.9212 16.6322 24.3469 16.4347 24.0754 16.5399C23.8234 16.6514 23.5305 16.3318 23.1692 16.2244C22.7999 16.1383 22.3075 16.0403 22.0012 15.848C21.8378 15.7349 21.5059 15.5511 21.2935 15.5812C21.1219 15.6347 21.2239 15.713 21.0833 15.634C20.9317 15.5477 20.5462 15.5085 20.5462 15.5085C20.4464 15.4281 20.2604 15.1555 20.1161 15.257C20.0567 15.2769 19.941 15.3179 19.9411 15.3175C19.8023 15.3662 19.7213 15.373 19.638 15.2476C19.6141 15.2115 19.3267 15.106 19.3267 15.106C19.2514 14.9091 17.872 14.3394 17.5399 14.2158C17.4889 14.2189 17.5083 14.2253 17.4753 14.2467C17.419 14.2736 17.4674 14.2552 17.4434 14.323C17.3641 14.3889 16.9747 14.2712 16.8483 14.2376C16.5571 14.0902 16.2305 13.983 15.9037 13.9106L16.2978 14.1576C16.7174 14.2809 16.4171 14.313 16.4171 14.313L16.4513 14.3716C16.3129 14.3562 16.267 14.3148 16.0949 14.2607C16.1513 14.2519 16.4515 14.2202 16.284 14.1611C16.0518 14.0893 15.669 13.8953 15.4542 13.9662C15.2699 14.0222 15.0778 13.7792 14.9009 13.7028C14.5037 13.565 14.3 13.4234 13.9856 13.2062C13.7416 13.0516 13.7363 13.2101 13.6292 13.1423C13.545 13.0832 13.3732 13.0278 13.2648 12.9998C13.4368 13.0227 14.3108 13.1246 14.3591 13.0256C14.2437 12.9117 14.0408 13.1834 13.9432 12.9601L13.7974 12.8511C13.7695 12.8558 13.7772 12.8573 13.7574 12.8711C13.7211 12.8895 13.7536 12.8768 13.7316 12.9147C13.6848 12.9519 13.4841 12.8865 13.4136 12.8621C13.2736 12.7713 12.9522 12.6219 12.9522 12.6219C12.6259 12.5196 12.9987 12.7457 13.1194 12.7985C13.3368 12.8867 13.1571 12.9029 13.1571 12.9029C13.2074 13.0748 13.1882 13.2557 13.092 13.3965C12.7786 13.6234 11.6982 13.2899 11.5353 13.5292C11.3167 13.7996 9.72682 13.3213 9.56084 13.3877C9.67371 13.5458 9.72534 13.6028 9.81772 13.7808C9.91808 14.0344 7.222 14.2002 7.21699 14.1663C7.21887 14.1747 5.79246 14.2697 5.79829 14.269C5.69533 14.3953 5.60513 14.5754 5.76477 14.7373C5.83295 14.7928 6.43745 15.1303 6.42892 15.1321C7.9986 16.0142 9.51882 16.8405 11.1293 17.6777C11.3187 17.8024 11.3214 17.8704 11.5515 17.9598C11.7711 18.046 11.903 18.1523 12.0915 18.2243C12.2095 18.2719 12.3166 18.3489 12.3845 18.4307C12.5348 18.4717 12.6897 18.5143 12.8442 18.5331C13.3118 18.6238 13.5706 18.7933 13.9905 18.962C14.2316 19.0401 14.716 19.1912 14.716 19.1912C14.9787 19.2673 15.5021 19.4205 15.7418 19.5418C15.95 19.6035 16.3664 19.7233 16.3664 19.7233C16.4546 19.7981 16.6319 19.9451 16.6319 19.9451C16.3711 19.984 16.1142 19.9449 16.4912 20.1295C16.8121 20.259 16.6963 20.2 16.8615 20.1396C16.8698 20.1078 16.8863 20.0439 16.8863 20.0439C17.0265 20.1179 17.3588 20.2971 17.5154 20.2701C17.463 20.2007 17.362 20.0623 17.362 20.0623C17.5395 20.0954 17.8932 20.1607 17.8932 20.1607C18.068 20.2384 18.4177 20.3912 18.4177 20.3912C18.6673 20.4834 19.0145 20.5893 19.3581 20.6873C19.3146 21.0094 19.2673 21.3116 19.2299 21.5535C18.2012 21.2298 17.1525 20.8802 16.2096 20.5156C16.0767 20.4505 15.9625 20.3726 15.856 20.287C15.7003 20.2573 15.3868 20.1962 15.3868 20.1962C15.242 20.1399 14.9717 20.0402 14.824 20.0421C14.5379 20.0599 14.4551 19.9949 14.1906 19.9134C14.2718 19.8934 14.6758 19.8295 14.4523 19.7489C14.1436 19.6538 13.5964 19.4297 13.3156 19.5144C13.0499 19.607 12.8237 19.28 12.4954 19.1477C12.1538 19.0357 11.7062 18.899 11.4576 18.6838C11.3285 18.5571 11.0612 18.3485 10.8359 18.3471C10.6485 18.3745 10.7242 18.4601 10.6076 18.3666C10.4836 18.2672 10.0954 18.1665 10.0954 18.1665C10.0231 18.08 9.92142 17.7909 9.72807 17.8568C9.65808 17.8647 9.51776 17.8787 9.51776 17.8787C9.34779 17.8947 9.25727 17.885 9.20933 17.751C8.99231 17.5545 6.50932 16.193 6.05338 15.9538C5.99436 15.9473 6.01681 15.9575 5.97412 15.9725C5.90102 15.9893 5.96677 15.9759 5.91876 16.0397C5.88262 16.07 5.76168 16.0308 5.71216 16.0158C5.5752 15.9761 5.48403 15.9376 5.35643 15.8866C5.13664 15.7259 4.90647 15.5991 4.63221 15.4895L4.88068 15.7554C5.21639 15.9152 4.92772 15.9085 4.92772 15.9085C4.98412 16.1569 4.9493 16.4108 4.77646 16.6009C4.6928 16.6837 4.97687 16.9213 4.97287 16.9211C5.48888 17.3225 7.62918 18.6735 7.72665 18.9915C7.70682 19.0934 7.57392 20.2662 7.64382 20.2618C7.74704 20.4448 7.80252 20.5432 7.88078 20.7383C7.87886 21.2596 6.78532 23.2238 6.46221 23.8111C6.4393 23.8496 6.39123 23.9262 6.39123 23.9262C6.32595 24.0568 6.31018 24.3122 6.42527 24.4586C6.59247 24.5881 6.85696 24.7198 7.05479 24.8276C7.34508 24.9942 7.33939 25.0883 7.67228 25.2183C7.98468 25.3399 8.20034 25.4915 8.47977 25.5967C8.66394 25.6698 8.8015 25.7793 8.90806 25.9024C9.12948 25.9534 9.58649 26.0256 9.58649 26.0256C9.88739 26.1134 10.4904 26.2814 10.4904 26.2814C10.7404 26.3939 11.2445 26.6157 11.2445 26.6157L11.5715 26.712L11.5063 26.7392C11.4728 26.8688 11.443 27.0813 11.6109 27.2083C11.9713 27.4009 16.4343 28.9886 16.4066 29.0242C16.6203 29.1331 16.6308 29.1992 16.8767 29.2711C17.1159 29.3412 17.2606 29.4384 17.4664 29.4999C17.5927 29.54 17.7125 29.6119 17.7953 29.6923C17.9522 29.7271 18.2776 29.7732 18.2776 29.7732C18.709 29.8287 19.4753 30.1723 19.4753 30.1723C19.7133 30.2438 20.192 30.3886 20.192 30.3886C20.4232 30.4549 20.9328 30.6053 21.1375 30.7212C21.3172 30.7772 21.6757 30.8896 21.6757 30.8896C21.7448 30.9603 21.8821 31.1019 21.8821 31.1019C21.6547 31.1462 21.442 31.1116 21.7457 31.2855C22.0022 31.4046 21.9132 31.3482 22.0536 31.2867C22.064 31.2559 22.0843 31.1928 22.0843 31.1928C22.1856 31.2582 22.4377 31.4285 22.5654 31.3976C22.5347 31.3316 22.4693 31.1993 22.4693 31.1993C22.6055 31.2265 22.8771 31.2804 22.8771 31.2804C23 31.3495 23.2443 31.4875 23.2443 31.4875L23.3182 31.5211L23.6628 32.5925C22.7824 32.2331 21.8518 31.8366 21.4725 31.6704C21.378 31.6165 21.2572 31.5236 21.1887 31.4535C21.0524 31.4267 20.7822 31.3737 20.7822 31.3737C20.6511 31.3205 20.4185 31.2283 20.2819 31.234C20.0169 31.258 19.9402 31.1946 19.6939 31.1209C19.7724 31.0989 20.1497 31.0254 19.9394 30.9504C19.6376 30.8598 19.1135 30.6527 18.8421 30.7482C18.5896 30.8521 18.3493 30.5325 18.008 30.4162C17.6656 30.3234 17.1976 30.2122 16.9288 30.0187C16.7823 29.9033 16.4895 29.715 16.2777 29.7396C16.1121 29.7889 16.2009 29.8677 16.0731 29.7863C15.9365 29.6982 15.574 29.6517 15.574 29.6517C15.4865 29.5706 15.3352 29.2981 15.1867 29.3941C15.13 29.4129 15.0144 29.4504 15.0145 29.45C14.8767 29.495 14.801 29.4997 14.7322 29.3745C14.6464 29.2497 12.1178 28.3186 12.116 28.3256C12.063 28.3208 12.0996 28.3324 12.0702 28.3649C12.0334 28.3981 12.0633 28.3856 12.0483 28.4438C12.001 28.5139 11.7373 28.4608 11.6316 28.4375C11.4442 28.3363 11.2266 28.2643 11.0109 28.2257L11.2578 28.4256C11.5388 28.4994 11.3337 28.5641 11.3337 28.5641C11.3453 28.5909 11.3568 28.6185 11.3669 28.6453C11.1897 28.567 11.0174 28.4824 10.8835 28.4403C10.1611 28.2459 9.66488 28.05 8.98606 27.7748C8.5075 27.5918 8.57408 27.76 8.37225 27.6833C8.20921 27.6161 7.91565 27.55 7.73532 27.5184L8.88624 27.5755C8.84699 27.5583 8.80663 27.5329 8.76211 27.4955L8.45443 27.3649C8.41071 27.3651 8.42945 27.3708 8.40538 27.3857C8.35665 27.4053 8.40148 27.3852 8.39302 27.4336C8.33885 27.4743 7.96824 27.387 7.87379 27.3674C7.6157 27.2673 7.07859 27.1106 7.07859 27.1106C6.95055 27.1647 7.31213 27.2713 7.41106 27.2986C7.49416 27.3214 7.73581 27.3974 7.52244 27.4123C7.6778 27.5877 7.78322 27.7809 7.71942 27.956C7.42144 28.1953 5.91322 27.9116 5.84229 28.202C5.73821 28.483 4.02287 28.2621 3.88697 28.378C4.03848 28.5149 4.10948 28.5689 4.2546 28.7275C4.4194 28.9634 1.18615 30.1069 1.20409 30.1001C1.16817 30.2392 1.148 30.4458 1.33997 30.5764C1.82287 30.8147 7.22921 32.6059 7.21363 32.6349C7.48133 32.7542 7.51213 32.826 7.81789 32.9107C8.10566 32.9898 8.30914 33.1009 8.56918 33.1747C8.73692 33.2237 8.86762 33.294 8.9969 33.3886C9.19437 33.4321 9.60482 33.4967 9.60482 33.4967C10.1411 33.5752 11.1317 33.9679 11.1317 33.9679C11.4347 34.0541 12.0419 34.2275 12.0419 34.2275C12.3358 34.3078 12.9698 34.4843 13.2418 34.6183C13.4665 34.6847 13.9165 34.8185 13.9165 34.8185L13.9385 34.8365L13.8841 35.0726C13.8406 35.0812 13.8302 35.0966 13.8696 35.1288C13.8277 35.3065 13.7856 35.4695 13.7517 35.6105L13.7399 35.6061C13.5937 35.5332 13.4943 35.4608 13.3729 35.37C13.2054 35.3356 12.8672 35.2672 12.8672 35.2672C12.7005 35.2048 12.4049 35.0994 12.2356 35.0971C11.9114 35.109 11.8002 35.0354 11.4969 34.9505C11.5889 34.9324 12.0546 34.8773 11.7853 34.7893C11.4206 34.685 10.7325 34.4396 10.4041 34.5243C10.1072 34.615 9.73288 34.2665 9.33279 34.1399C8.90593 34.0292 8.31197 33.8922 7.95331 33.6771C7.75473 33.5471 7.37436 33.344 7.11986 33.3585C6.91656 33.4002 7.0353 33.4855 6.87238 33.3959C6.69656 33.2999 6.24303 33.233 6.24303 33.233C6.13295 33.1486 5.92161 32.858 5.7446 32.9515C5.67648 32.9678 5.53948 33.0003 5.53948 33.0003C5.38075 33.0386 5.28196 33.0421 5.18759 32.9094C4.88686 32.727 2.4844 31.887 1.97747 31.7262C1.93746 31.737 1.95306 31.7392 1.92567 31.7639C1.88391 31.7971 1.92021 31.7788 1.90737 31.8441C1.84921 31.9159 1.53452 31.8439 1.41851 31.8201C1.1961 31.7103 0.943706 31.6288 0.695137 31.5827L0.98614 31.7935C1.3142 31.8795 1.08022 31.9367 1.08022 31.9367C1.21603 32.1783 1.27541 32.4402 1.20281 32.665C1.33469 33.1412 3.86123 33.886 4.23607 34.4143C4.25176 34.5227 4.50474 35.7331 4.55967 35.7208C4.70559 35.8919 4.78474 35.9802 4.91395 36.169C5.06831 36.7179 4.61238 38.8537 4.47503 39.5048C4.46384 39.5482 4.44199 39.6328 4.44199 39.6328C4.42001 39.7681 4.45752 40.0301 4.58284 40.162C4.74364 40.2629 4.99055 40.3562 5.17507 40.4342C5.45492 40.5628 5.45083 40.6507 5.75726 40.7391C6.05705 40.8218 6.23491 40.9412 6.49767 41.017C6.66411 41.0679 6.80001 41.1681 6.90088 41.2757C7.09699 41.3025 7.49548 41.3287 7.49548 41.3287C7.7664 41.3886 8.30271 41.5076 8.30271 41.5076C8.53091 41.6013 8.98384 41.7896 8.98384 41.7896C9.27225 41.8663 9.85331 42.022 9.85331 42.022C10.1207 42.0954 10.7701 42.2811 11.0046 42.4161C11.2149 42.4849 11.6351 42.6216 11.6351 42.6216C11.7155 42.7111 11.8773 42.8929 11.8773 42.8929C11.5987 42.9786 11.3542 42.9639 11.7066 43.1531C12.0173 43.2998 11.919 43.2295 12.0878 43.1207C12.0974 43.0836 12.1205 43.0098 12.1205 43.0098C12.2482 43.0855 12.5386 43.2922 12.6887 43.234C12.6522 43.1502 12.5813 42.983 12.5813 42.983C13.2266 43.0809 12.9489 43.0286 13.4716 43.2974C14.0169 43.5509 14.5103 43.692 15.0927 43.8582C15.761 44.0554 16.4506 44.2854 17.1099 44.5018C17.1122 44.4989 22.6888 46.2983 22.6888 46.2983C23.3221 46.524 24.2266 46.8306 24.8815 46.9164C24.9857 46.9297 25.1125 46.9523 25.2461 46.9801C25.1923 47.2353 25.1681 47.4986 25.1669 47.7599C25.0234 47.8334 24.771 47.9307 24.5584 47.886C23.6182 47.4547 24.0851 47.9148 24.593 48.241C24.6214 48.2594 24.9838 48.5414 24.9838 48.5414C25.0502 48.6194 25.0297 48.677 25.1325 48.7207C25.25 48.77 25.2678 48.8358 25.3634 48.8759C25.4333 48.9089 25.4639 48.9754 25.4803 49.0246C25.5579 49.0437 25.6491 49.0602 25.7262 49.059C25.9797 49.0861 26.1031 49.2193 26.3116 49.333C26.4395 49.3827 26.6965 49.4808 26.6965 49.4808C26.8254 49.5264 27.1257 49.6387 27.2191 49.7249C27.3242 49.7657 27.5359 49.845 27.5359 49.845C27.5653 49.9068 27.6308 50.032 27.6308 50.032C27.4714 50.0886 27.3351 50.0715 27.5023 50.2164C27.6553 50.3132 27.6092 50.2599 27.7082 50.196C27.7224 50.1662 27.7464 50.1046 27.7464 50.1046C27.7496 50.1076 27.7734 50.1283 27.7734 50.1283C27.8012 50.165 27.8909 50.2841 27.9578 50.2415C27.9558 50.1833 27.955 50.0673 27.955 50.0673C28.0191 50.0759 28.1471 50.094 28.1471 50.094C28.1964 50.1441 28.2927 50.2443 28.2927 50.2443C28.4819 50.3856 28.9535 50.5549 28.9535 50.5549C29.1338 50.6182 29.3182 50.6839 29.4993 50.75L29.8752 51.9168C29.6051 51.7942 29.3155 51.6719 29.1495 51.6664C28.8848 51.614 27.7739 50.9224 27.5123 50.7545L27.2438 50.6006C27.1672 50.5368 27.1416 50.4826 27.097 50.4139C27.0145 50.3983 26.8465 50.3659 26.8465 50.3659C26.7725 50.3235 26.6389 50.2551 26.5528 50.269C26.379 50.3095 26.3582 50.2615 26.2048 50.2038C26.2519 50.1812 26.5176 50.0828 26.4002 50.0266C26.1961 49.9492 25.9535 49.8144 25.7757 49.9173C25.5882 50.0354 25.5588 49.764 25.3755 49.6717C25.1852 49.6068 24.9743 49.54 24.898 49.3939C24.8714 49.3307 24.7783 49.1525 24.6531 49.1955C24.5616 49.2463 24.5643 49.317 24.5284 49.2558C24.4915 49.1885 24.3284 49.1781 24.3284 49.1781C24.3189 49.1272 24.3564 48.8846 24.244 48.985C24.2093 49.0065 24.1397 49.0506 24.1397 49.0506C24.1376 49.0523 24.0694 49.091 24.0667 49.0859C23.99 49.0851 23.994 49.0288 23.9955 48.9918C23.9554 48.9308 23.4006 48.5136 23.3676 48.3845L23.2988 48.4411C23.2642 48.4718 23.2285 48.4974 23.2626 48.5436C23.4125 48.5304 23.5212 48.6734 23.5212 48.6734L23.27 48.6592C23.1933 48.6024 23.1249 48.7076 23.1249 48.7076C22.8574 48.8129 22.4364 49.1182 22.4364 49.1182C21.8584 49.5305 22.7618 49.8976 22.7667 50.3423C22.7312 50.4331 22.3931 51.5107 22.4586 51.5139C22.4694 51.5506 22.4814 51.5854 22.4925 51.6209C22.4985 51.6224 22.4716 51.896 22.4716 51.896C22.2114 52.6938 21.3375 54.0892 20.8806 54.897C20.8586 54.9353 20.8132 55.0139 20.8136 55.0127C20.7944 55.046 20.6349 55.4884 20.6944 55.4835C20.746 55.5625 20.8596 55.6367 20.9458 55.7038C21.076 55.8167 21.0272 55.8865 21.1876 55.9548C21.3616 56.0265 21.4011 56.1147 21.5413 56.1733C21.6387 56.2188 21.6854 56.3202 21.7029 56.3899C21.8083 56.4048 21.9526 56.4161 22.0515 56.409C22.1987 56.4501 22.4951 56.5301 22.4951 56.5301C22.6077 56.6046 22.8385 56.754 22.8385 56.754C23.0021 56.8099 23.3279 56.92 23.3279 56.92C23.5031 56.981 23.8472 57.1082 23.9747 57.2222C24.098 57.2742 24.3447 57.3776 24.3447 57.3776C24.3799 57.4575 24.4496 57.62 24.4496 57.62C24.2613 57.7101 24.0794 57.716 24.282 57.8775C24.4654 58.0006 24.4205 57.9269 24.5442 57.8237C24.5599 57.7881 24.5888 57.7167 24.5888 57.7167C24.5923 57.7189 24.6161 57.7396 24.6159 57.7404C24.6596 57.7936 24.7564 57.9326 24.8399 57.8661C24.8408 57.7906 24.8433 57.6428 24.8433 57.6428C25.1698 57.6628 25.0252 57.6466 25.2404 57.8374C25.4744 58.0153 25.708 58.088 26.0075 58.1812C27.2424 58.6026 28.4898 59.0722 29.7339 59.5017C30.0474 59.6346 30.4884 59.8035 30.8247 59.7978C30.9992 59.7957 31.3313 59.8599 31.5118 59.9065C31.7341 60.0136 32.7168 60.7566 33.0092 60.9558C33.1113 61.024 33.3843 61.1949 33.3365 61.098C33.5353 61.2022 33.8953 61.3401 34.122 61.3299C34.2092 61.3366 34.2958 61.3615 34.3795 61.3818C34.3107 61.4262 34.1702 61.5128 34.1702 61.5128C34.3441 61.5599 34.6964 61.6552 34.6942 61.6546C34.7967 61.6428 35.0018 61.6191 35.0018 61.6191C34.981 61.6591 34.9441 61.7394 34.9441 61.7394C35.0128 61.7867 35.1495 61.8805 35.1495 61.8805C35.2009 61.8916 35.2891 61.9007 35.3231 61.8756C35.2882 61.826 35.2143 61.7268 35.2165 61.7274C35.242 61.6666 35.2947 61.5437 35.2947 61.5437C35.3798 61.5273 35.5542 61.4944 35.5542 61.4944C35.5044 61.5494 35.408 61.6597 35.408 61.6597C35.5628 61.7899 35.5673 61.8351 35.8038 61.8341C35.9132 61.8364 35.9342 61.7709 36.0449 61.8466C36.0371 61.908 36.0208 62.0275 36.0208 62.0275C36.0402 62.0338 36.2318 62.1 36.2318 62.1C36.2354 62.0957 36.7913 62.2828 36.7913 62.2828C37.4673 62.7788 37.2555 62.8536 38.2168 62.9622C38.5102 62.9974 38.489 63.039 38.642 62.9196C38.8936 62.8189 39.6182 63.2302 39.8872 63.3414C40.0818 63.4243 40.2778 63.5079 40.4714 63.5914C40.5627 63.614 40.7458 63.66 40.7435 63.6594C41.0174 63.8578 41.3187 64.0131 41.676 64.1146C42.4793 64.3149 43.2838 64.5138 44.0887 64.708C44.2447 64.746 44.5667 64.7741 44.5667 64.7741C44.9186 64.9086 45.6216 65.1781 45.6216 65.1781C45.7493 65.2631 45.9031 65.3411 46.0618 65.3843L46.7558 65.5973C46.9195 65.5493 47.092 65.5643 47.2588 65.6638C47.4252 65.7745 47.5073 65.8794 47.6544 66.0085C48.0971 66.3303 48.9307 66.5512 49.5082 66.68C49.5934 66.6478 49.7611 66.5841 49.7611 66.5841C49.9319 66.6212 50.2458 66.7903 50.2458 66.7903C50.476 66.9105 50.7219 66.9921 50.9827 67.0506C50.8796 66.9266 50.6736 66.681 50.6736 66.681C50.9633 66.8122 51.3454 66.9209 51.6568 66.9899C52.2942 67.1434 52.5396 67.371 53.0702 67.578C53.3456 67.6896 53.6312 67.9809 53.7661 67.9629C54.0174 67.9137 54.0743 67.9658 54.3246 68.0146C54.6034 68.0879 54.8117 68.2835 54.9223 67.9681C54.9989 67.8157 55.2912 67.9678 55.4365 68.0537C56.095 66.2111 56.4432 64.3801 56.5572 62.4533L56.9242 62.548L58.1297 57.8784L58.4042 57.9462C58.5628 57.9339 58.8821 57.9093 58.8821 57.9093C59.2131 57.9903 59.8533 58.2459 59.8533 58.2459C60.3317 58.439 61.3554 58.7068 61.3554 58.7068C61.1362 58.5533 60.6981 58.2451 60.6981 58.2451C61.3591 58.4765 62.0612 58.6679 62.7431 58.8338C63.9331 59.1345 64.7289 59.5112 65.8288 59.863C66.2624 60.004 67.1371 60.4575 67.3944 60.479C67.9447 60.5127 68.1448 60.5961 68.6622 60.7195C69.125 60.8412 69.7504 61.1638 70.0371 60.8803C70.2402 60.7424 70.9468 61.0385 71.2026 61.1442C73.261 59.2843 74.8279 57.1442 75.9923 54.8743C76.0418 54.8329 76.1178 54.7327 76.1176 54.7335C75.9898 54.7617 75.7336 54.8172 75.7336 54.8172C75.093 54.8108 73.8094 54.7943 73.8094 54.7943C73.69 54.7678 73.4529 54.715 73.4529 54.715C73.575 54.8905 73.1523 54.692 73.0998 54.6696C71.8913 54.1714 70.8716 54.1666 69.7198 53.8688C69.459 53.798 69.0742 53.6528 68.7232 53.5116C68.9957 53.1451 69.2581 52.7711 69.5115 52.3913C69.7076 52.434 69.8777 52.4893 70.1828 52.5734C70.5539 52.6683 71.2343 52.9686 71.5162 52.7758C71.6668 52.6813 75.6165 54.0268 75.5235 53.9953C77.3031 52.7954 78.2397 51.1166 78.4539 49.2778C78.1283 49.4236 77.4654 49.7352 77.4654 49.7352C77.053 49.7846 76.2049 49.9334 76.2142 49.9318C76.8752 49.6964 78.1913 49.2201 78.1913 49.2201C77.7876 49.1547 76.9769 49.0207 76.9769 49.0207C77.5495 49.3156 76.5307 48.9222 76.6344 48.9622C75.2856 48.5215 73.5127 48.2761 71.9593 47.9702L72.0249 47.8224C72.0684 47.7795 72.1346 47.6763 72.1343 47.6776C72.0248 47.7101 71.805 47.7749 71.805 47.7749C71.6256 47.7805 71.3848 47.7888 71.1447 47.7978C71.0547 47.7767 70.9648 47.7553 70.8773 47.7336C70.2794 47.5713 69.0605 47.0945 69.0663 47.0969C68.6568 46.9348 68.1412 46.8044 67.7104 46.6465C67.0817 46.3776 66.6971 46.288 66.0686 46.0746C65.9287 46.0152 65.9025 45.9067 65.8971 45.8146C65.6121 45.7247 65.0454 45.5449 65.0454 45.5449C64.6295 45.4076 64.1436 45.3562 63.7583 45.2382C63.0482 45.0121 62.3049 44.7956 61.5627 44.5807L61.654 44.2272C62.1076 44.347 62.5566 44.4532 62.5566 44.4532C63.3793 44.6352 64.9563 45.185 64.9563 45.185C65.2768 45.2845 65.9896 45.6099 66.1943 45.635C66.6756 45.6566 66.7421 45.7033 67.1886 45.819C67.5188 45.8968 68.0503 46.1476 68.2755 45.9393C68.4062 45.8282 71.6752 46.9773 71.6336 46.963C72.2417 46.4687 72.7478 45.9123 73.1529 45.3114C73.3008 45.3747 73.4234 45.4196 73.4978 45.4291C74.0739 45.4915 74.293 45.589 74.8278 45.739C75.2658 45.8723 75.9465 46.2497 76.2887 45.9836C76.5239 45.8589 77.2598 46.2012 77.5232 46.3216C78.8463 45.4297 79.8903 44.5066 80.9427 43.4541C81.8145 42.524 82.6835 41.5236 83.3902 40.513C83.4489 40.4767 83.5393 40.3833 83.5392 40.3837C83.4002 40.402 83.1176 40.4378 83.1176 40.4378C82.9693 40.426 81.883 40.3411 81.883 40.3411C81.8818 40.3394 81.0264 40.2657 81.0026 40.2639L80.6077 40.1549C80.7283 40.3393 80.2741 40.1089 80.2149 40.0813C79.4635 39.7428 78.774 39.5745 78.0827 39.4198C78.4556 39.0282 78.8114 38.6277 79.1507 38.2189C80.1555 38.5382 82.1918 39.3141 82.1948 39.3122C82.1906 39.319 82.9775 39.6142 82.9775 39.6142C85.0056 38.5859 86.2579 37.0159 86.6983 35.2126C86.3246 35.3284 85.5635 35.582 85.5635 35.582C85.1125 35.5964 84.19 35.6727 84.1692 35.6748L86.4181 35.1355C85.98 35.0373 85.103 34.8404 85.103 34.8404C85.7001 35.1751 84.6235 34.7078 84.7312 34.7546C84.4134 34.6223 84.0099 34.5089 83.6722 34.4134C83.2047 34.2847 82.7147 34.1617 82.2139 34.0399C82.618 33.6118 83.2867 32.8923 83.2634 32.8448C82.9957 33.0386 82.5011 33.6072 82.143 34.023C80.81 33.7 79.4234 33.3931 78.2694 33.0503C77.6043 32.8442 76.2576 32.2825 76.2656 32.2859C75.8019 32.0926 75.2518 31.9361 74.7707 31.7471C74.097 31.4459 73.6535 31.3244 72.9721 31.078C72.8306 31.0151 72.7912 30.9045 72.7948 30.809C72.4847 30.7034 71.8638 30.4924 71.8638 30.4924C71.41 30.3326 70.887 30.2588 70.4571 30.1192L70.3522 30.0837L70.0868 29.8994C70.6493 30.1111 71.8174 30.4558 71.8174 30.4558C72.717 30.7092 74.4188 31.3929 74.4188 31.3929C74.7536 31.5155 75.5098 31.8983 75.7334 31.9411C76.2557 32.0015 76.3292 32.0553 76.8022 32.2033C77.1376 32.3018 77.7028 32.5909 77.9675 32.4055C78.1144 32.3096 81.4588 33.6433 81.406 33.6222C83.1405 32.4401 84.1399 30.7908 84.5171 29.0227C84.2099 29.1627 83.5843 29.4614 83.5843 29.4614C83.2105 29.5058 82.4332 29.6433 82.4417 29.6416C83.0595 29.417 84.2903 28.9641 84.2903 28.9641C83.933 28.8943 83.2212 28.7559 83.2212 28.7559C83.7062 29.052 82.8257 28.6525 82.9184 28.6945C81.4974 28.1515 79.3718 27.8745 77.8703 27.449C77.3505 27.2879 76.2903 26.8134 76.2982 26.8172C75.9452 26.6587 75.4906 26.5272 75.1166 26.3716C74.5928 26.1162 74.2902 26.035 73.7877 25.8476C74.2868 24.14 74.4213 22.4312 74.2472 20.53C74.2474 20.5292 74.2259 20.0265 74.2291 20.0488C74.2407 19.9942 74.2454 19.8791 74.2453 19.8795C74.2344 19.8904 74.1312 19.9923 74.1312 19.9923C74.1274 20.0072 74.118 20.0277 74.1102 20.0424C73.942 20.1738 73.5542 20.4005 73.5542 20.4005C73.5117 20.3961 73.4253 20.3861 73.4253 20.3861C73.653 20.6351 73.3317 20.4258 73.2999 20.4048C72.8348 20.1289 72.3352 20.2689 71.9104 20.172C71.6348 20.1022 71.0266 19.7382 71.0266 19.7382C70.9642 19.6917 70.2982 19.4546 70.3143 19.4425C69.9309 19.2008 69.7895 19.2127 69.3925 19.0336C69.2992 18.9783 69.2972 18.7853 69.2974 18.7127C69.1325 18.6525 68.799 18.5312 68.799 18.5312C68.6633 18.4741 68.4785 18.4599 68.3097 18.4462L68.5086 17.6758C68.8316 17.7658 69.1326 17.8405 69.1326 17.8405C69.7069 17.9693 70.7593 18.3987 70.7593 18.3987C70.983 18.4785 71.3851 18.7258 71.5021 18.73C71.7777 18.6995 71.7851 18.7335 72.0425 18.8018C72.2833 18.856 72.486 19.0109 72.5679 18.7815C72.6195 18.6539 73.8657 19.2504 73.8657 19.2504C73.8719 19.1763 73.8737 18.7839 73.8737 18.7839C74.2177 17.2133 74.1344 15.5307 73.7294 13.8561C73.6062 14.0705 73.3706 14.5161 73.3706 14.5161C73.3302 14.544 73.0875 14.7385 73.0304 14.7841L72.9947 14.6904C72.9947 14.6904 73.5841 13.8424 73.5784 13.8489C73.3539 13.86 72.9069 13.8838 72.9069 13.8838C73.222 14.0418 72.8262 13.9299 72.8335 13.9269C72.834 13.9249 72.8608 13.9027 72.8658 13.8987C72.8449 13.8982 72.2629 13.884 72.1037 13.8491C71.9131 13.7946 71.3969 13.5006 71.4197 13.5157C71.2749 13.4343 70.9965 13.3562 70.8251 13.2746C70.4844 13.0712 70.3825 13.0806 70.0259 12.9392C69.9401 12.8924 69.9384 12.7642 69.9371 12.7036C69.7871 12.6516 69.4869 12.5486 69.4869 12.5486C69.2713 12.4687 68.9493 12.4626 68.7677 12.4043C68.0829 12.1712 67.2087 11.9384 66.4917 11.7234C66.1118 11.6064 65.3488 11.3376 65.3488 11.3376C65.0991 11.2802 64.5 11.0815 64.4792 11.0743L64.2923 11.0996C63.8798 10.9553 63.0551 10.6622 63.0566 10.6626C62.7824 10.5874 62.2351 10.4355 62.2351 10.4355C62.1604 10.3898 62.0102 10.2978 62.0102 10.2978C61.7485 10.2522 61.2269 10.1607 61.2269 10.1607C60.9975 10.1284 60.539 10.043 60.539 10.043C60.4971 10.0362 60.1001 9.92268 60.1187 9.9068C59.8185 9.72886 57.5275 9.07443 57.1617 8.96855C55.8814 8.59136 55.623 8.38901 54.8932 8.13586C54.8064 8.11169 53.9661 7.77276 53.9661 7.77276C53.7838 7.71734 53.5716 7.63392 53.4002 7.5584C53.4886 7.57637 53.6726 7.60317 53.6726 7.60317C53.738 7.60643 53.4937 7.5187 53.4685 7.50998L53.4686 7.50957C53.2229 7.4272 52.7376 7.26096 52.7376 7.26096C52.7917 7.31765 52.9012 7.42957 52.9012 7.42957C51.6976 6.99027 50.6862 6.58384 49.5438 6.05198C49.4042 5.98509 49.1244 5.77768 49.0989 5.66671C49.0714 5.64464 49.0064 5.59262 49.0414 5.56994C49.0671 5.57352 49.1228 5.54912 49.2091 5.55293C48.5674 5.18115 47.9405 4.85196 47.2486 4.51479C46.8329 4.31368 46.258 4.012 45.807 3.8916C44.7783 3.47058 43.4941 2.82989 42.4215 2.35657C42.3855 2.33626 42.0589 2.16608 42.0589 2.16608C41.956 2.11353 41.8797 2.0489 41.8073 1.97825C41.5405 1.89617 41.0052 1.73243 41.0052 1.73243C40.7521 1.71641 40.7261 1.66388 40.5102 1.58832C40.5689 1.58323 40.8961 1.56906 40.7212 1.501C40.4704 1.41335 40.0481 1.19423 39.8029 1.25423C39.5962 1.29953 39.3662 1.04373 39.1647 0.959552C38.7436 0.816945 38.5243 0.688974 38.1832 0.462201C37.9571 0.325883 37.9635 0.486068 37.8733 0.427999C37.8031 0.377281 37.69 0.351607 37.5989 0.334697C37.7508 0.332086 38.5032 0.338264 38.5317 0.26547C38.4099 0.154324 38.2289 0.435678 38.138 0.220642L38.0111 0.126227C37.9807 0.121895 37.9997 0.129462 37.9775 0.14971C37.9525 0.168349 37.9703 0.161943 37.9577 0.195233C37.9211 0.233361 37.7774 0.198009 37.7128 0.181781C37.6414 0.129432 37.521 0.066204 37.4325 0.0328005C37.2801 0.00620346 37.3971 0.120087 37.5161 0.166668C37.6524 0.215079 37.531 0.259466 37.531 0.259466C37.548 0.434736 37.5344 0.584485 37.4547 0.739627C37.2523 0.963039 36.6821 0.88411 36.5358 1.1718C36.4193 1.38215 36.0578 1.40994 35.9082 1.64479C35.8666 1.71817 35.81 1.87445 35.81 1.87445C35.4147 2.56906 34.9307 2.88052 34.7772 3.75691C34.6957 3.8376 34.5133 4.00849 34.384 4.05175ZM49.2091 5.55293C49.2197 5.553 49.2314 5.55428 49.2433 5.55557L49.2267 5.56319L49.2091 5.55293ZM49.2267 5.56319L49.1499 5.6037C49.2702 5.6299 49.4881 5.71653 49.4881 5.71653C49.3996 5.6642 49.3133 5.61328 49.2267 5.56319ZM74.4609 18.0261C74.3322 18.4619 74.2949 19.3832 74.2453 19.8795C74.2584 19.8693 74.285 19.8479 74.285 19.8479C74.3096 19.6398 74.5009 18.0809 74.4609 18.0261ZM73.2999 20.4048C73.2964 20.4026 73.2966 20.4022 73.2998 20.4052L73.2999 20.4048ZM33.5893 4.95549C33.5736 4.96948 33.5535 4.98147 33.5273 4.98881C33.5386 4.96706 33.5625 4.9402 33.5893 4.95549ZM23.3676 48.3845C23.3632 48.3609 23.3748 48.3471 23.4108 48.3458C23.4177 48.3503 23.3782 48.3749 23.3704 48.383L23.3676 48.3845ZM85.2309 38.973C84.8585 39.1715 83.8922 40.0754 83.5392 40.3837C83.5707 40.3809 83.6343 40.3757 83.6343 40.3757C83.8165 40.2246 85.2685 39.0373 85.2309 38.973ZM73.3875 46.0977C73.0623 46.3608 72.4019 47.3146 72.1343 47.6776C72.1585 47.6715 72.2076 47.66 72.2076 47.66C72.3422 47.4895 73.4138 46.1464 73.3875 46.0977ZM8.88624 27.5755L9.17679 27.5906C9.08486 27.6083 8.99227 27.6223 8.88624 27.5755ZM9.17679 27.5906L9.52027 27.6075C9.39229 27.5423 9.28363 27.5684 9.17679 27.5906ZM77.5154 53.1857C77.1876 53.4182 76.4102 54.3929 76.1176 54.7335C76.1456 54.7284 76.2024 54.7184 76.2024 54.7184C76.3541 54.5537 77.5534 53.2453 77.5154 53.1857Z" fill="#A5B68D" fill-opacity="0.5"/>
</svg>
