<svg width="20" height="21" viewBox="0 0 20 21" fill="none" xmlns="http://www.w3.org/2000/svg">
<g clip-path="url(#clip0_2306_17448)">
<path d="M16.0675 0.749276C15.9503 0.632106 15.7914 0.566284 15.6256 0.566284C15.4599 0.566284 15.301 0.632106 15.1838 0.749276L13.125 2.80803L17.7588 7.44178L19.8175 5.38428C19.8757 5.32622 19.9219 5.25725 19.9534 5.18132C19.9849 5.10539 20.0011 5.02399 20.0011 4.94178C20.0011 4.85957 19.9849 4.77817 19.9534 4.70223C19.9219 4.6263 19.8757 4.55733 19.8175 4.49928L16.0675 0.749276ZM16.875 8.32553L12.2413 3.69178L4.11625 11.8168H4.375C4.54076 11.8168 4.69973 11.8826 4.81694 11.9998C4.93415 12.117 5 12.276 5 12.4418V13.0668H5.625C5.79076 13.0668 5.94973 13.1326 6.06694 13.2498C6.18415 13.367 6.25 13.526 6.25 13.6918V14.3168H6.875C7.04076 14.3168 7.19973 14.3826 7.31694 14.4998C7.43415 14.617 7.5 14.776 7.5 14.9418V15.5668H8.125C8.29076 15.5668 8.44973 15.6326 8.56694 15.7498C8.68415 15.867 8.75 16.026 8.75 16.1918V16.4505L16.875 8.32553ZM7.54 17.6605C7.5137 17.5906 7.50015 17.5165 7.5 17.4418V16.8168H6.875C6.70924 16.8168 6.55027 16.7509 6.43306 16.6337C6.31585 16.5165 6.25 16.3575 6.25 16.1918V15.5668H5.625C5.45924 15.5668 5.30027 15.5009 5.18306 15.3837C5.06585 15.2665 5 15.1075 5 14.9418V14.3168H4.375C4.20924 14.3168 4.05027 14.2509 3.93306 14.1337C3.81585 14.0165 3.75 13.8575 3.75 13.6918V13.0668H3.125C3.05028 13.0667 2.97618 13.0531 2.90625 13.0268L2.6825 13.2493C2.62294 13.3093 2.57616 13.3807 2.545 13.4593L0.0450017 19.7093C-0.000461602 19.8229 -0.011591 19.9473 0.0129933 20.0671C0.0375777 20.187 0.0967945 20.297 0.183303 20.3835C0.269811 20.47 0.379806 20.5292 0.499651 20.5538C0.619497 20.5784 0.743922 20.5672 0.857502 20.5218L7.1075 18.0218C7.18608 17.9906 7.25752 17.9438 7.3175 17.8843L7.54 17.6618V17.6605Z" fill="#1B1B1B"/>
</g>
<defs>
<clipPath id="clip0_2306_17448">
<rect width="20" height="20" fill="white" transform="translate(0 0.56665)"/>
</clipPath>
</defs>
</svg>
