<svg width="20" height="21" viewBox="0 0 20 21" fill="none" xmlns="http://www.w3.org/2000/svg">
<path d="M3.75 18.0667C3.75 18.0667 2.5 18.0667 2.5 16.8167C2.5 15.5667 3.75 11.8167 10 11.8167C16.25 11.8167 17.5 15.5667 17.5 16.8167C17.5 18.0667 16.25 18.0667 16.25 18.0667H3.75ZM10 10.5667C10.9946 10.5667 11.9484 10.1716 12.6517 9.4683C13.3549 8.76504 13.75 7.81121 13.75 6.81665C13.75 5.82209 13.3549 4.86826 12.6517 4.165C11.9484 3.46174 10.9946 3.06665 10 3.06665C9.00544 3.06665 8.05161 3.46174 7.34835 4.165C6.64509 4.86826 6.25 5.82209 6.25 6.81665C6.25 7.81121 6.64509 8.76504 7.34835 9.4683C8.05161 10.1716 9.00544 10.5667 10 10.5667Z" fill="#1B1B1B"/>
</svg>
