<svg width="71" height="20" viewBox="0 0 71 20" fill="none" xmlns="http://www.w3.org/2000/svg">
<path d="M7.93131 0.375999C8.97131 0.375999 9.94731 0.567999 10.8593 0.951999C11.7873 1.336 12.6033 1.888 13.3073 2.608C14.0113 3.312 14.5633 4.152 14.9633 5.128C15.3793 6.088 15.5873 7.152 15.5873 8.32C15.5873 9.52 15.3473 10.632 14.8673 11.656C14.3873 12.68 13.7313 13.56 12.8993 14.296C12.0833 15.032 11.1553 15.568 10.1153 15.904C10.6753 16.176 11.1473 16.432 11.5313 16.672C11.9153 16.912 12.2753 17.12 12.6113 17.296C12.9473 17.488 13.3153 17.632 13.7153 17.728C14.1313 17.84 14.6433 17.896 15.2513 17.896C15.7153 17.896 16.0833 17.872 16.3553 17.824C16.6433 17.792 16.8273 17.768 16.9073 17.752C16.9873 17.752 17.0673 17.768 17.1473 17.8C17.2433 17.832 17.3073 17.872 17.3393 17.92C17.3553 17.936 17.3633 17.96 17.3633 17.992C16.7233 18.328 16.0913 18.608 15.4673 18.832C14.8593 19.072 14.1953 19.192 13.4753 19.192C12.8513 19.192 12.2513 19.064 11.6753 18.808C11.1153 18.552 10.5473 18.24 9.97131 17.872C9.39531 17.52 8.78731 17.168 8.14731 16.816C7.52331 16.464 6.82731 16.192 6.05931 16C4.97131 15.728 3.99531 15.24 3.13131 14.536C2.26731 13.816 1.58731 12.928 1.09131 11.872C0.595313 10.8 0.347313 9.616 0.347313 8.32C0.347313 7.216 0.547313 6.184 0.947313 5.224C1.34731 4.264 1.89131 3.424 2.57931 2.704C3.28331 1.968 4.09131 1.4 5.00331 1C5.93131 0.584 6.90731 0.375999 7.93131 0.375999ZM7.59531 1.168C6.71531 1.168 5.96331 1.368 5.33931 1.768C4.71531 2.152 4.20331 2.664 3.80331 3.304C3.41931 3.944 3.13131 4.656 2.93931 5.44C2.76331 6.224 2.67531 7.008 2.67531 7.792C2.67531 8.704 2.79531 9.616 3.03531 10.528C3.29131 11.424 3.65931 12.248 4.13931 13C4.61931 13.736 5.20331 14.328 5.89131 14.776C6.59531 15.224 7.40331 15.448 8.31531 15.448C9.19531 15.448 9.94731 15.256 10.5713 14.872C11.1953 14.472 11.7073 13.944 12.1073 13.288C12.5073 12.632 12.7953 11.912 12.9713 11.128C13.1633 10.328 13.2593 9.536 13.2593 8.752C13.2593 7.84 13.1313 6.936 12.8753 6.04C12.6353 5.144 12.2673 4.328 11.7713 3.592C11.2913 2.856 10.6993 2.272 9.99531 1.84C9.30731 1.392 8.50731 1.168 7.59531 1.168ZM24.9637 8.512C24.9637 8.496 24.9637 8.464 24.9637 8.416C24.9637 8.256 24.9557 8.064 24.9397 7.84C24.9237 7.6 24.8757 7.4 24.7957 7.24C24.6837 7.016 24.4757 6.88 24.1717 6.832C23.8677 6.784 23.6357 6.76 23.4757 6.76C23.4437 6.728 23.4197 6.64 23.4037 6.496C23.4037 6.336 23.4277 6.224 23.4757 6.16C24.0837 6.128 24.6677 6.072 25.2277 5.992C25.7877 5.912 26.2757 5.808 26.6917 5.68C26.7557 5.68 26.8117 5.76 26.8597 5.92C26.9077 6.08 26.9317 6.192 26.9317 6.256C26.8837 6.352 26.8437 6.544 26.8117 6.832C26.7957 7.12 26.7877 7.432 26.7877 7.768V12.688C26.7877 12.816 26.7957 13.072 26.8117 13.456C26.8277 13.824 26.8677 14.168 26.9317 14.488C26.9797 14.68 27.1557 14.792 27.4597 14.824C27.7797 14.856 28.0197 14.88 28.1797 14.896C28.2597 14.896 28.3077 14.896 28.3237 14.896C28.3557 14.912 28.3717 14.952 28.3717 15.016C28.3877 15.08 28.3957 15.128 28.3957 15.16C28.3957 15.176 28.3797 15.24 28.3477 15.352C28.3157 15.464 28.2677 15.52 28.2037 15.52C27.8037 15.536 27.3637 15.6 26.8837 15.712C26.4197 15.824 26.0197 15.928 25.6837 16.024C25.3477 16.136 25.1717 16.192 25.1557 16.192C25.0917 16.192 25.0437 16.144 25.0117 16.048C24.9797 15.968 24.9637 15.888 24.9637 15.808V14.728C24.9637 14.664 24.9557 14.632 24.9397 14.632C24.9237 14.616 24.9157 14.608 24.9157 14.608C24.7077 14.832 24.4197 15.072 24.0517 15.328C23.6837 15.568 23.2837 15.768 22.8517 15.928C22.4197 16.088 22.0037 16.168 21.6037 16.168C20.9797 16.168 20.4757 16.024 20.0917 15.736C19.7077 15.432 19.4117 15.048 19.2037 14.584C18.9957 14.104 18.8517 13.592 18.7717 13.048C18.7077 12.504 18.6757 11.984 18.6757 11.488V8.512C18.6757 8.352 18.6677 8.144 18.6517 7.888C18.6357 7.632 18.5797 7.416 18.4837 7.24C18.3717 7.016 18.1637 6.88 17.8597 6.832C17.5557 6.784 17.3237 6.76 17.1637 6.76C17.1317 6.728 17.1077 6.64 17.0917 6.496C17.0917 6.336 17.1157 6.224 17.1637 6.16C17.7717 6.128 18.3557 6.072 18.9157 5.992C19.4757 5.912 19.9637 5.808 20.3797 5.68C20.4437 5.68 20.4997 5.744 20.5477 5.872C20.6117 6 20.6437 6.096 20.6437 6.16C20.5957 6.256 20.5557 6.464 20.5237 6.784C20.4917 7.104 20.4757 7.432 20.4757 7.768V11.224C20.4757 12.472 20.6597 13.392 21.0277 13.984C21.4117 14.56 22.0117 14.848 22.8277 14.848C23.1797 14.848 23.5157 14.784 23.8357 14.656C24.1557 14.512 24.4197 14.336 24.6277 14.128C24.8517 13.92 24.9637 13.728 24.9637 13.552V8.512ZM36.0306 5.752C36.3346 5.752 36.6226 5.824 36.8946 5.968C37.1666 6.096 37.3586 6.256 37.4706 6.448C37.5026 6.512 37.5266 6.6 37.5426 6.712C37.5586 6.824 37.5666 6.944 37.5666 7.072C37.5666 7.504 37.4626 7.816 37.2546 8.008C37.0626 8.2 36.9026 8.296 36.7746 8.296C36.6146 8.296 36.4626 8.24 36.3186 8.128C36.1746 8.016 36.0386 7.92 35.9106 7.84C35.7986 7.76 35.6786 7.696 35.5506 7.648C35.4386 7.584 35.2706 7.552 35.0466 7.552C34.7106 7.552 34.3986 7.696 34.1106 7.984C33.8386 8.256 33.6146 8.56 33.4386 8.896C33.2626 9.232 33.1746 9.488 33.1746 9.664V13.288C33.1746 13.64 33.1746 13.968 33.1746 14.272C33.1906 14.576 33.2306 14.824 33.2946 15.016C33.3266 15.096 33.4866 15.168 33.7746 15.232C34.0626 15.296 34.3666 15.344 34.6866 15.376C35.0066 15.392 35.2146 15.4 35.3106 15.4C35.3586 15.464 35.3826 15.576 35.3826 15.736C35.3986 15.896 35.3746 16.008 35.3106 16.072C34.8306 16.04 34.3426 16.016 33.8466 16C33.3506 15.968 32.8706 15.952 32.4066 15.952C31.9586 15.952 31.5266 15.968 31.1106 16C30.6946 16.016 30.2466 16.04 29.7666 16.072C29.7026 16.008 29.6706 15.896 29.6706 15.736C29.6866 15.576 29.7186 15.464 29.7666 15.4C29.8626 15.4 30.0226 15.392 30.2466 15.376C30.4866 15.344 30.7106 15.296 30.9186 15.232C31.1266 15.168 31.2386 15.096 31.2546 15.016C31.3186 14.824 31.3506 14.576 31.3506 14.272C31.3666 13.968 31.3746 13.64 31.3746 13.288V8.92C31.3746 8.76 31.3666 8.552 31.3506 8.296C31.3506 8.04 31.3186 7.84 31.2546 7.696C31.2066 7.552 31.0706 7.456 30.8466 7.408C30.6226 7.344 30.3986 7.312 30.1746 7.312C29.9506 7.296 29.8066 7.288 29.7426 7.288C29.7266 7.256 29.7106 7.16 29.6946 7C29.6786 6.84 29.6946 6.728 29.7426 6.664C30.3506 6.584 30.9426 6.464 31.5186 6.304C32.0946 6.144 32.6146 5.936 33.0786 5.68C33.1426 5.68 33.1986 5.728 33.2466 5.824C33.3106 5.92 33.3426 6 33.3426 6.064C33.3426 6.112 33.3266 6.296 33.2946 6.616C33.2626 6.936 33.2306 7.264 33.1986 7.6C33.1826 7.92 33.1746 8.128 33.1746 8.224C33.1746 8.272 33.1826 8.296 33.1986 8.296C33.2306 8.296 33.2546 8.288 33.2706 8.272C33.4306 7.936 33.6546 7.576 33.9426 7.192C34.2466 6.792 34.5826 6.456 34.9506 6.184C35.3186 5.896 35.6786 5.752 36.0306 5.752ZM43.6431 5.776C44.0911 5.776 44.5071 5.92 44.8911 6.208C45.2911 6.496 45.6111 6.88 45.8511 7.36C46.0911 7.84 46.2111 8.384 46.2111 8.992V13.816C46.2111 14.12 46.2671 14.384 46.3791 14.608C46.4911 14.816 46.6751 14.92 46.9311 14.92C47.1551 14.92 47.3311 14.872 47.4591 14.776C47.5871 14.68 47.6671 14.624 47.6991 14.608C47.7311 14.608 47.7551 14.632 47.7711 14.68C47.7871 14.728 47.7951 14.768 47.7951 14.8C47.7951 14.976 47.7551 15.128 47.6751 15.256C47.5791 15.336 47.4191 15.448 47.1951 15.592C46.9871 15.736 46.7631 15.864 46.5231 15.976C46.2991 16.088 46.0991 16.144 45.9231 16.144C45.5871 16.144 45.2831 15.976 45.0111 15.64C44.7551 15.304 44.5871 14.96 44.5071 14.608C44.4431 14.672 44.2911 14.792 44.0511 14.968C43.8271 15.144 43.5631 15.328 43.2591 15.52C42.9551 15.696 42.6511 15.856 42.3471 16C42.0591 16.128 41.8111 16.192 41.6031 16.192C40.8351 16.192 40.1871 15.936 39.6591 15.424C39.1311 14.896 38.8671 14.256 38.8671 13.504C38.8671 13.024 38.9951 12.616 39.2511 12.28C39.5231 11.928 39.7871 11.704 40.0431 11.608C40.4911 11.448 40.9871 11.28 41.5311 11.104C42.0911 10.912 42.6111 10.728 43.0911 10.552C43.5711 10.376 43.9231 10.24 44.1471 10.144C44.2751 10.096 44.3551 10.04 44.3871 9.976C44.4191 9.896 44.4351 9.752 44.4351 9.544V8.92C44.4351 8.568 44.3471 8.224 44.1711 7.888C43.9951 7.536 43.7551 7.248 43.4511 7.024C43.1471 6.784 42.8031 6.664 42.4191 6.664C42.0191 6.664 41.7231 6.792 41.5311 7.048C41.3391 7.304 41.2031 7.664 41.1231 8.128C40.9791 8.88 40.6111 9.256 40.0191 9.256C39.7631 9.256 39.5631 9.152 39.4191 8.944C39.2911 8.736 39.2271 8.512 39.2271 8.272C39.2271 8.224 39.2431 8.136 39.2751 8.008C39.3071 7.864 39.3471 7.76 39.3951 7.696C39.6351 7.472 39.9791 7.208 40.4271 6.904C40.8751 6.6 41.3791 6.336 41.9391 6.112C42.5151 5.888 43.0831 5.776 43.6431 5.776ZM42.3951 14.92C42.6671 14.92 42.9631 14.856 43.2831 14.728C43.6031 14.6 43.8751 14.464 44.0991 14.32C44.3231 14.16 44.4351 14.04 44.4351 13.96V10.768C44.1311 10.864 43.7471 10.984 43.2831 11.128C42.8191 11.272 42.4751 11.384 42.2511 11.464C41.8351 11.624 41.4911 11.856 41.2191 12.16C40.9471 12.464 40.8111 12.84 40.8111 13.288C40.8111 13.72 40.9631 14.104 41.2671 14.44C41.5711 14.76 41.9471 14.92 42.3951 14.92ZM55.7413 5.728C56.5893 5.728 57.2293 5.904 57.6613 6.256C58.0933 6.608 58.3813 7.152 58.5253 7.888C58.6853 8.624 58.7653 9.56 58.7653 10.696V13.288C58.7653 13.64 58.7653 13.968 58.7653 14.272C58.7813 14.576 58.8213 14.824 58.8853 15.016C58.9173 15.096 59.0293 15.168 59.2213 15.232C59.4293 15.296 59.6453 15.344 59.8693 15.376C60.0933 15.392 60.2533 15.4 60.3493 15.4C60.3973 15.464 60.4213 15.576 60.4213 15.736C60.4373 15.896 60.4133 16.008 60.3493 16.072C59.8693 16.04 59.4453 16.016 59.0773 16C58.7253 15.968 58.3173 15.952 57.8533 15.952C57.4053 15.952 56.9973 15.968 56.6293 16C56.2613 16.016 55.8373 16.04 55.3573 16.072C55.2933 16.008 55.2613 15.896 55.2613 15.736C55.2773 15.576 55.3093 15.464 55.3573 15.4C55.4533 15.4 55.6133 15.392 55.8373 15.376C56.0773 15.344 56.3013 15.296 56.5093 15.232C56.7173 15.168 56.8293 15.096 56.8453 15.016C56.9093 14.824 56.9413 14.576 56.9413 14.272C56.9573 13.968 56.9653 13.64 56.9653 13.288V10.936C56.9653 9.96 56.9013 9.2 56.7733 8.656C56.6453 8.096 56.4133 7.696 56.0773 7.456C55.7413 7.216 55.2693 7.096 54.6613 7.096C54.3733 7.096 54.0533 7.192 53.7013 7.384C53.3653 7.56 53.0693 7.752 52.8133 7.96C52.5573 8.168 52.4293 8.312 52.4293 8.392V13.288C52.4293 13.64 52.4293 13.968 52.4293 14.272C52.4453 14.576 52.4853 14.824 52.5493 15.016C52.5813 15.096 52.6933 15.168 52.8853 15.232C53.0933 15.296 53.3093 15.344 53.5333 15.376C53.7573 15.392 53.9173 15.4 54.0133 15.4C54.0613 15.464 54.0853 15.576 54.0853 15.736C54.1013 15.896 54.0773 16.008 54.0133 16.072C53.5333 16.04 53.1093 16.016 52.7413 16C52.3893 15.968 51.9813 15.952 51.5173 15.952C51.0693 15.952 50.6613 15.968 50.2933 16C49.9253 16.016 49.5013 16.04 49.0213 16.072C48.9573 16.008 48.9253 15.896 48.9253 15.736C48.9413 15.576 48.9733 15.464 49.0213 15.4C49.1173 15.4 49.2773 15.392 49.5013 15.376C49.7413 15.344 49.9653 15.296 50.1733 15.232C50.3813 15.168 50.4933 15.096 50.5093 15.016C50.5733 14.824 50.6053 14.576 50.6053 14.272C50.6213 13.968 50.6293 13.64 50.6293 13.288V9.016C50.6293 8.856 50.6213 8.632 50.6053 8.344C50.6053 8.056 50.5733 7.84 50.5093 7.696C50.4613 7.552 50.3253 7.456 50.1013 7.408C49.8773 7.344 49.6533 7.312 49.4293 7.312C49.2053 7.296 49.0613 7.288 48.9973 7.288C48.9813 7.256 48.9653 7.16 48.9493 7C48.9333 6.84 48.9493 6.728 48.9973 6.664C49.6053 6.584 50.1973 6.464 50.7733 6.304C51.3493 6.144 51.8693 5.936 52.3333 5.68C52.3973 5.68 52.4533 5.728 52.5013 5.824C52.5653 5.92 52.5973 6 52.5973 6.064C52.5973 6.112 52.5813 6.24 52.5493 6.448C52.5333 6.64 52.5093 6.832 52.4773 7.024C52.4613 7.216 52.4533 7.344 52.4533 7.408C52.4533 7.472 52.4693 7.504 52.5013 7.504C52.5173 7.504 52.5413 7.488 52.5733 7.456C52.7333 7.28 52.9893 7.056 53.3413 6.784C53.7093 6.512 54.1093 6.272 54.5413 6.064C54.9733 5.84 55.3733 5.728 55.7413 5.728ZM66.3666 5.776C66.8146 5.776 67.2306 5.92 67.6146 6.208C68.0146 6.496 68.3346 6.88 68.5746 7.36C68.8146 7.84 68.9346 8.384 68.9346 8.992V13.816C68.9346 14.12 68.9906 14.384 69.1026 14.608C69.2146 14.816 69.3986 14.92 69.6546 14.92C69.8786 14.92 70.0546 14.872 70.1826 14.776C70.3106 14.68 70.3906 14.624 70.4226 14.608C70.4546 14.608 70.4786 14.632 70.4946 14.68C70.5106 14.728 70.5186 14.768 70.5186 14.8C70.5186 14.976 70.4786 15.128 70.3986 15.256C70.3026 15.336 70.1426 15.448 69.9186 15.592C69.7106 15.736 69.4866 15.864 69.2466 15.976C69.0226 16.088 68.8226 16.144 68.6466 16.144C68.3106 16.144 68.0066 15.976 67.7346 15.64C67.4786 15.304 67.3106 14.96 67.2306 14.608C67.1666 14.672 67.0146 14.792 66.7746 14.968C66.5506 15.144 66.2866 15.328 65.9826 15.52C65.6786 15.696 65.3746 15.856 65.0706 16C64.7826 16.128 64.5346 16.192 64.3266 16.192C63.5586 16.192 62.9106 15.936 62.3826 15.424C61.8546 14.896 61.5906 14.256 61.5906 13.504C61.5906 13.024 61.7186 12.616 61.9746 12.28C62.2466 11.928 62.5106 11.704 62.7666 11.608C63.2146 11.448 63.7106 11.28 64.2546 11.104C64.8146 10.912 65.3346 10.728 65.8146 10.552C66.2946 10.376 66.6466 10.24 66.8706 10.144C66.9986 10.096 67.0786 10.04 67.1106 9.976C67.1426 9.896 67.1586 9.752 67.1586 9.544V8.92C67.1586 8.568 67.0706 8.224 66.8946 7.888C66.7186 7.536 66.4786 7.248 66.1746 7.024C65.8706 6.784 65.5266 6.664 65.1426 6.664C64.7426 6.664 64.4466 6.792 64.2546 7.048C64.0626 7.304 63.9266 7.664 63.8466 8.128C63.7026 8.88 63.3346 9.256 62.7426 9.256C62.4866 9.256 62.2866 9.152 62.1426 8.944C62.0146 8.736 61.9506 8.512 61.9506 8.272C61.9506 8.224 61.9666 8.136 61.9986 8.008C62.0306 7.864 62.0706 7.76 62.1186 7.696C62.3586 7.472 62.7026 7.208 63.1506 6.904C63.5986 6.6 64.1026 6.336 64.6626 6.112C65.2386 5.888 65.8066 5.776 66.3666 5.776ZM65.1186 14.92C65.3906 14.92 65.6866 14.856 66.0066 14.728C66.3266 14.6 66.5986 14.464 66.8226 14.32C67.0466 14.16 67.1586 14.04 67.1586 13.96V10.768C66.8546 10.864 66.4706 10.984 66.0066 11.128C65.5426 11.272 65.1986 11.384 64.9746 11.464C64.5586 11.624 64.2146 11.856 63.9426 12.16C63.6706 12.464 63.5346 12.84 63.5346 13.288C63.5346 13.72 63.6866 14.104 63.9906 14.44C64.2946 14.76 64.6706 14.92 65.1186 14.92Z" fill="white"/>
</svg>
