<svg width="15" height="17" viewBox="0 0 15 17" fill="none" xmlns="http://www.w3.org/2000/svg">
<path d="M7.33333 10.75C8.22843 10.75 9.08688 11.1056 9.71981 11.7385C10.3527 12.3714 10.7083 13.2299 10.7083 14.125C10.7083 14.2742 10.6491 14.4173 10.5436 14.5227C10.4381 14.6282 10.295 14.6875 10.1458 14.6875H4.52083C4.37164 14.6875 4.22857 14.6282 4.12308 14.5227C4.01759 14.4173 3.95833 14.2742 3.95833 14.125C3.95833 13.2299 4.31391 12.3714 4.94684 11.7385C5.57978 11.1056 6.43822 10.75 7.33333 10.75ZM14.0833 15.8125C14.0833 15.9617 14.0241 16.1048 13.9186 16.2102C13.8131 16.3157 13.67 16.375 13.5208 16.375H1.14583C0.996644 16.375 0.85357 16.3157 0.748081 16.2102C0.642592 16.1048 0.583328 15.9617 0.583328 15.8125C0.583328 15.6633 0.642592 15.5202 0.748081 15.4148C0.85357 15.3093 0.996644 15.25 1.14583 15.25H2.27083V14.35C2.27083 11.9627 3.38289 10.0131 5.17333 9.26163C5.32512 9.20026 5.45513 9.09495 5.54667 8.9592C5.63822 8.82345 5.68712 8.66345 5.68712 8.49972C5.68712 8.33599 5.63822 8.17599 5.54667 8.04024C5.45513 7.90449 5.32512 7.79918 5.17333 7.73781C3.38233 6.98688 2.27083 5.03725 2.27083 2.65V1.75H1.14583C0.996644 1.75 0.85357 1.69074 0.748081 1.58525C0.642592 1.47976 0.583328 1.33668 0.583328 1.1875C0.583328 1.03832 0.642592 0.895242 0.748081 0.789752C0.85357 0.684263 0.996644 0.625 1.14583 0.625H13.5208C13.67 0.625 13.8131 0.684263 13.9186 0.789752C14.0241 0.895242 14.0833 1.03832 14.0833 1.1875C14.0833 1.33668 14.0241 1.47976 13.9186 1.58525C13.8131 1.69074 13.67 1.75 13.5208 1.75H12.3958V2.65C12.3958 5.03725 11.2838 6.98688 9.49333 7.73837C9.34153 7.79974 9.21153 7.90505 9.11998 8.0408C9.02844 8.17655 8.97953 8.33655 8.97953 8.50028C8.97953 8.66401 9.02844 8.82401 9.11998 8.95976C9.21153 9.09551 9.34153 9.20082 9.49333 9.26219C11.2843 10.0131 12.3958 11.9627 12.3958 14.35V15.25H13.5208C13.67 15.25 13.8131 15.3093 13.9186 15.4148C14.0241 15.5202 14.0833 15.6633 14.0833 15.8125ZM11.2708 15.25V14.35C11.2708 12.4246 10.4231 10.8721 9.05852 10.2989C8.70241 10.1518 8.39797 9.90236 8.18376 9.58212C7.96954 9.26189 7.85519 8.88528 7.85519 8.5C7.85519 8.11472 7.96954 7.73811 8.18376 7.41788C8.39797 7.09764 8.70241 6.84819 9.05852 6.70112C10.4231 6.12794 11.2708 4.57544 11.2708 2.65V1.75H3.39583V2.65C3.39583 4.57544 4.24352 6.12794 5.60814 6.70112C5.96424 6.84819 6.26868 7.09764 6.4829 7.41788C6.69711 7.73811 6.81147 8.11472 6.81147 8.5C6.81147 8.88528 6.69711 9.26189 6.4829 9.58212C6.26868 9.90236 5.96424 10.1518 5.60814 10.2989C4.24352 10.8721 3.39583 12.4246 3.39583 14.35V15.25H11.2708Z" fill="#72227D"/>
</svg>
