<svg width="49" height="47" viewBox="0 0 49 47" fill="none" xmlns="http://www.w3.org/2000/svg">
<path d="M31.7057 27.5365H30.0983L29.5286 27.0163C31.9702 24.3193 33.2317 20.6397 32.5399 16.7289C31.5836 11.3732 26.8633 7.09644 21.1663 6.44143C12.5599 5.43966 5.31661 12.298 6.37461 20.447C7.06638 25.8412 11.5833 30.3106 17.2395 31.2161C21.3698 31.8711 25.2559 30.6767 28.1044 28.3649L28.6538 28.9043V30.4262L37.3009 38.6138C38.1351 39.4037 39.4983 39.4037 40.3325 38.6138C41.1667 37.824 41.1667 36.5332 40.3325 35.7433L31.7057 27.5365ZM19.4979 27.5365C14.4317 27.5365 10.3421 23.6643 10.3421 18.8673C10.3421 14.0703 14.4317 10.1981 19.4979 10.1981C24.5642 10.1981 28.6538 14.0703 28.6538 18.8673C28.6538 23.6643 24.5642 27.5365 19.4979 27.5365Z" fill="#613121"/>
</svg>
