<svg width="48" height="46" viewBox="0 0 48 46" fill="none" xmlns="http://www.w3.org/2000/svg">
<path d="M36 11.7147H32C32 7.52956 28.42 4.13983 24 4.13983C19.58 4.13983 16 7.52956 16 11.7147H12C9.8 11.7147 8 13.419 8 15.5021V38.2265C8 40.3096 9.8 42.0139 12 42.0139H36C38.2 42.0139 40 40.3096 40 38.2265V15.5021C40 13.419 38.2 11.7147 36 11.7147ZM24 7.92724C26.2 7.92724 28 9.63158 28 11.7147H20C20 9.63158 21.8 7.92724 24 7.92724ZM36 38.2265H12V15.5021H16V19.2895C16 20.331 16.9 21.1832 18 21.1832C19.1 21.1832 20 20.331 20 19.2895V15.5021H28V19.2895C28 20.331 28.9 21.1832 30 21.1832C31.1 21.1832 32 20.331 32 19.2895V15.5021H36V38.2265Z" fill="#613121"/>
</svg>
