<svg width="24" height="24" viewBox="0 0 24 24" fill="none" xmlns="http://www.w3.org/2000/svg">
<g clip-path="url(#clip0_84_45790)">
<path d="M5.48171 1.9922C5.39316 1.87829 5.28138 1.78453 5.15381 1.71714C5.02624 1.64974 4.88579 1.61027 4.74178 1.60133C4.59778 1.59239 4.45353 1.6142 4.3186 1.6653C4.18367 1.71639 4.06116 1.79561 3.95921 1.8977L2.40821 3.4502C1.68371 4.1762 1.41671 5.2037 1.73321 6.1052C3.04682 9.83658 5.18365 13.2243 7.98521 16.0172C10.7781 18.8187 14.1658 20.9555 17.8972 22.2692C18.7987 22.5857 19.8262 22.3187 20.5522 21.5942L22.1032 20.0432C22.2053 19.9412 22.2845 19.8187 22.3356 19.6838C22.3867 19.5489 22.4085 19.4046 22.3996 19.2606C22.3906 19.1166 22.3512 18.9762 22.2838 18.8486C22.2164 18.721 22.1226 18.6092 22.0087 18.5207L18.5482 15.8297C18.4265 15.7353 18.285 15.6698 18.1343 15.6381C17.9836 15.6064 17.8276 15.6093 17.6782 15.6467L14.3932 16.4672C13.9547 16.5768 13.4953 16.571 13.0598 16.4503C12.6242 16.3297 12.2273 16.0983 11.9077 15.7787L8.22371 12.0932C7.90386 11.7738 7.6722 11.3769 7.55128 10.9413C7.43036 10.5058 7.4243 10.0463 7.53371 9.6077L8.35571 6.3227C8.39307 6.17329 8.39601 6.01735 8.36431 5.86664C8.33261 5.71593 8.26709 5.57439 8.17271 5.4527L5.48171 1.9922ZM2.82671 0.766698C3.0892 0.504123 3.40455 0.300394 3.75182 0.16904C4.09908 0.0376865 4.47032 -0.0182865 4.84088 0.00483791C5.21144 0.0279623 5.57284 0.129655 5.90108 0.303163C6.22932 0.476672 6.5169 0.718026 6.74471 1.0112L9.43571 4.4702C9.92921 5.1047 10.1032 5.9312 9.90821 6.7112L9.08771 9.9962C9.04529 10.1663 9.04758 10.3446 9.09436 10.5136C9.14114 10.6826 9.23083 10.8366 9.35471 10.9607L13.0402 14.6462C13.1645 14.7703 13.3187 14.8602 13.488 14.907C13.6573 14.9537 13.8358 14.9559 14.0062 14.9132L17.2897 14.0927C17.6746 13.9965 18.0764 13.989 18.4646 14.0708C18.8529 14.1527 19.2174 14.3217 19.5307 14.5652L22.9897 17.2562C24.2332 18.2237 24.3472 20.0612 23.2342 21.1727L21.6832 22.7237C20.5732 23.8337 18.9142 24.3212 17.3677 23.7767C13.4095 22.384 9.81561 20.118 6.85271 17.1467C3.88164 14.1842 1.61562 10.5909 0.222706 6.6332C-0.320294 5.0882 0.167206 3.4277 1.27721 2.3177L2.82821 0.766698H2.82671Z" fill="#1B1B1B"/>
</g>
<defs>
<clipPath id="clip0_84_45790">
<rect width="24" height="24" fill="white"/>
</clipPath>
</defs>
</svg>
