<svg width="18" height="16" viewBox="0 0 18 16" fill="none" xmlns="http://www.w3.org/2000/svg">
<path d="M5.84657 8.93869C5.11069 8.93869 4.39134 8.72048 3.77948 8.31164C3.16762 7.90281 2.69073 7.32171 2.40913 6.64185C2.12752 5.96198 2.05385 5.21388 2.19742 4.49214C2.34099 3.7704 2.69535 3.10744 3.21571 2.5871C3.73606 2.06676 4.39902 1.71241 5.12077 1.56886C5.84251 1.42531 6.59061 1.499 7.27047 1.78062C7.95033 2.06224 8.53141 2.53915 8.94023 3.15102C9.34905 3.76289 9.56725 4.48225 9.56723 5.21813C9.56609 6.20455 9.17372 7.15024 8.47621 7.84774C7.77869 8.54523 6.83299 8.93757 5.84657 8.93869ZM5.84657 2.43497C5.29612 2.43497 4.75802 2.5982 4.30034 2.90402C3.84265 3.20983 3.48592 3.64451 3.27527 4.15306C3.06462 4.66162 3.00951 5.22121 3.1169 5.76109C3.22428 6.30097 3.48935 6.79689 3.87858 7.18612C4.26782 7.57535 4.76373 7.84042 5.30361 7.94781C5.84349 8.0552 6.40309 8.00008 6.91164 7.78943C7.4202 7.57878 7.85487 7.22205 8.16068 6.76437C8.4665 6.30668 8.62973 5.76858 8.62973 5.21813C8.62889 4.48025 8.33539 3.77283 7.81363 3.25107C7.29187 2.72931 6.58445 2.43581 5.84657 2.43497Z" fill="#72227D"/>
<path d="M10.7243 15.7677H0.968689C0.844369 15.7677 0.72514 15.7183 0.637232 15.6304C0.549325 15.5425 0.499939 15.4233 0.499939 15.2989V13.3477C0.499939 11.9297 1.06324 10.5698 2.06591 9.56713C3.06859 8.56446 4.42851 8.00116 5.8465 8.00116C7.2645 8.00116 8.62442 8.56446 9.62709 9.56713C10.6298 10.5698 11.1931 11.9297 11.1931 13.3477V15.2989C11.1931 15.4233 11.1437 15.5425 11.0558 15.6304C10.9679 15.7183 10.8486 15.7677 10.7243 15.7677ZM1.43744 14.8302H10.2556V13.3477C10.2556 12.1784 9.79104 11.0569 8.96418 10.23C8.13732 9.40319 7.01586 8.93866 5.8465 8.93866C4.67715 8.93866 3.55568 9.40319 2.72882 10.23C1.90196 11.0569 1.43744 12.1784 1.43744 13.3477V14.8302ZM12.4999 7.44131C11.7641 7.44133 11.0447 7.22314 10.4328 6.81432C9.82096 6.4055 9.34406 5.82442 9.06243 5.14456C8.78081 4.4647 8.70712 3.71659 8.85067 2.99485C8.99422 2.27311 9.34857 1.61014 9.86891 1.08979C10.3893 0.569437 11.0522 0.21507 11.7739 0.0714999C12.4957 -0.0720701 13.2438 0.00160602 13.9237 0.283211C14.6035 0.564816 15.1846 1.0417 15.5935 1.65356C16.0023 2.26542 16.2205 2.98478 16.2205 3.72066C16.2194 4.70707 15.827 5.65276 15.1295 6.35027C14.432 7.04777 13.4864 7.44015 12.4999 7.44131ZM12.4999 0.937502C11.9495 0.937483 11.4114 1.1007 10.9537 1.4065C10.496 1.71231 10.1392 2.14697 9.92857 2.65552C9.71791 3.16408 9.66278 3.72368 9.77016 4.26357C9.87753 4.80345 10.1426 5.29937 10.5318 5.68861C10.9211 6.07785 11.417 6.34293 11.9568 6.45033C12.4967 6.55773 13.0563 6.50262 13.5649 6.29197C14.0735 6.08132 14.5081 5.7246 14.8139 5.26691C15.1198 4.80922 15.283 4.27112 15.283 3.72066C15.2822 2.98279 14.9887 2.27539 14.4669 1.75363C13.9452 1.23188 13.2378 0.93837 12.4999 0.937502Z" fill="#72227D"/>
<path d="M17.3778 14.2702H10.9829C10.8585 14.2702 10.7393 14.2209 10.6514 14.1329C10.5635 14.045 10.5141 13.9258 10.5141 13.8015C10.5141 13.6772 10.5635 13.5579 10.6514 13.47C10.7393 13.3821 10.8585 13.3327 10.9829 13.3327H16.9091V11.8504C16.9088 11.0803 16.707 10.3237 16.3236 9.65589C15.9402 8.98805 15.3886 8.43224 14.7238 8.04373C14.0589 7.65522 13.3039 7.44757 12.5338 7.44142C11.7638 7.43527 11.0056 7.63084 10.3346 8.00867C10.2264 8.06926 10.0986 8.08449 9.97915 8.05104C9.85973 8.01758 9.75844 7.93817 9.69745 7.83019C9.63646 7.72221 9.62074 7.59447 9.65374 7.47493C9.68674 7.35538 9.76577 7.25379 9.87352 7.19239C10.6871 6.73399 11.6066 6.49664 12.5405 6.50395C13.4743 6.51126 14.39 6.76298 15.1963 7.23406C16.0027 7.70514 16.6716 8.37916 17.1366 9.18906C17.6016 9.99895 17.8463 10.9165 17.8466 11.8504V13.8015C17.8466 13.9258 17.7972 14.045 17.7093 14.1329C17.6214 14.2209 17.5022 14.2702 17.3778 14.2702Z" fill="#72227D"/>
</svg>
