<svg width="18" height="18" viewBox="0 0 18 18" fill="none" xmlns="http://www.w3.org/2000/svg">
<path d="M0 18L1.27613 13.3822C0.492023 12.0275 0.0802486 10.4911 0.0822623 8.92768C0.0731814 4.00094 4.09228 0 9.03176 0C11.4291 0 13.6801 0.925258 15.375 2.61306C16.2105 3.44039 16.8726 4.42454 17.3232 5.50848C17.7738 6.59243 18.0038 7.7546 18 8.92768C18 13.8448 13.9809 17.8458 9.04084 17.8458C7.53715 17.8458 6.06978 17.4736 4.75732 16.7573L0 18ZM4.96725 15.1514L5.24075 15.3146C6.3887 15.9908 7.69789 16.348 9.03176 16.3489C13.1331 16.3489 16.4781 13.0196 16.4781 8.93619C16.4781 6.95858 15.7036 5.08998 14.2998 3.69306C13.6094 3.00198 12.7886 2.45373 11.8844 2.07991C10.9803 1.70609 10.0108 1.51409 9.03176 1.51498C4.92131 1.51551 1.57741 4.84484 1.57741 8.92821C1.57741 10.3251 1.96949 11.6955 2.71679 12.8749L2.88986 13.1562L2.13348 15.8958L4.96779 15.1519L4.96725 15.1514Z" fill="#72227D"/>
<path fill-rule="evenodd" clip-rule="evenodd" d="M6.79892 5.18996C6.63493 4.81773 6.45278 4.80869 6.29787 4.80869C6.16113 4.79965 6.01476 4.79964 5.85985 4.79964C5.71456 4.79964 5.46831 4.85388 5.25891 5.08095C5.04898 5.30747 4.47528 5.84295 4.47528 6.9405C4.47528 8.03858 5.27707 9.09997 5.38658 9.24514C5.49555 9.39031 6.93567 11.7125 9.21445 12.6112C11.1097 13.3551 11.4927 13.2099 11.9029 13.1642C12.3126 13.119 13.2245 12.6292 13.4157 12.1028C13.5979 11.5859 13.5979 11.1323 13.5434 11.0414C13.4889 10.951 13.3334 10.8962 13.115 10.7782C12.8869 10.6697 11.7934 10.1252 11.584 10.0523C11.3741 9.98003 11.2283 9.94387 11.0824 10.1614C10.9366 10.3884 10.5082 10.8872 10.372 11.0324C10.2438 11.1775 10.1076 11.1956 9.88857 11.0866C9.66101 10.9781 8.94095 10.742 8.08414 9.98003C7.41856 9.38978 6.972 8.65542 6.83525 8.43793C6.70812 8.21087 6.81709 8.09282 6.93567 7.98381C7.0361 7.88437 7.16376 7.72112 7.27327 7.59403C7.38224 7.46641 7.41856 7.36697 7.50083 7.2218C7.57347 7.07663 7.53715 6.9405 7.48266 6.83202C7.42764 6.73205 6.99977 5.63397 6.79892 5.18942V5.18996Z" fill="#72227D"/>
</svg>
