<svg width="24" height="25" viewBox="0 0 24 25" fill="none" xmlns="http://www.w3.org/2000/svg">
<path d="M5.48171 2.01472C5.39316 1.90081 5.28138 1.80705 5.15381 1.73966C5.02624 1.67227 4.88579 1.63279 4.74178 1.62385C4.59778 1.61492 4.45353 1.63672 4.3186 1.68782C4.18367 1.73891 4.06116 1.81814 3.95921 1.92022L2.40821 3.47272C1.68371 4.19872 1.41671 5.22622 1.73321 6.12772C3.04682 9.8591 5.18365 13.2469 7.98521 16.0397C10.7781 18.8412 14.1658 20.9781 17.8972 22.2917C18.7987 22.6082 19.8262 22.3412 20.5522 21.6167L22.1032 20.0657C22.2053 19.9638 22.2845 19.8413 22.3356 19.7063C22.3867 19.5714 22.4085 19.4271 22.3996 19.2831C22.3906 19.1391 22.3512 18.9987 22.2838 18.8711C22.2164 18.7435 22.1226 18.6318 22.0087 18.5432L18.5482 15.8522C18.4265 15.7578 18.285 15.6923 18.1343 15.6606C17.9836 15.6289 17.8276 15.6319 17.6782 15.6692L14.3932 16.4897C13.9547 16.5993 13.4953 16.5935 13.0598 16.4728C12.6242 16.3522 12.2273 16.1208 11.9077 15.8012L8.22371 12.1157C7.90386 11.7963 7.6722 11.3994 7.55128 10.9639C7.43036 10.5283 7.4243 10.0688 7.53371 9.63022L8.35571 6.34522C8.39307 6.19581 8.39601 6.03987 8.36431 5.88916C8.33261 5.73846 8.26709 5.59691 8.17271 5.47522L5.48171 2.01472ZM2.82671 0.78922C3.0892 0.526645 3.40455 0.322916 3.75182 0.191562C4.09908 0.0602085 4.47032 0.00423546 4.84088 0.0273599C5.21144 0.0504843 5.57284 0.152177 5.90108 0.325685C6.22932 0.499194 6.5169 0.740548 6.74471 1.03372L9.43571 4.49272C9.92921 5.12722 10.1032 5.95372 9.90821 6.73372L9.08771 10.0187C9.04529 10.1889 9.04758 10.3671 9.09436 10.5361C9.14114 10.7051 9.23083 10.8591 9.35471 10.9832L13.0402 14.6687C13.1645 14.7928 13.3187 14.8827 13.488 14.9295C13.6573 14.9763 13.8358 14.9784 14.0062 14.9357L17.2897 14.1152C17.6746 14.019 18.0764 14.0115 18.4646 14.0934C18.8529 14.1752 19.2174 14.3443 19.5307 14.5877L22.9897 17.2787C24.2332 18.2462 24.3472 20.0837 23.2342 21.1952L21.6832 22.7462C20.5732 23.8562 18.9142 24.3437 17.3677 23.7992C13.4095 22.4065 9.81561 20.1405 6.85271 17.1692C3.88164 14.2067 1.61562 10.6134 0.222706 6.65572C-0.320294 5.11072 0.167206 3.45022 1.27721 2.34022L2.82821 0.78922H2.82671Z" fill="white"/>
</svg>
