<svg width="24" height="24" viewBox="0 0 24 24" fill="none" xmlns="http://www.w3.org/2000/svg">
<g clip-path="url(#clip0_84_45805)">
<path d="M12.7733 1.5285C12.5162 1.50952 12.2585 1.50002 12.0008 1.5V4.22187e-07C12.2956 0.000144164 12.5903 0.0111516 12.8843 0.0330004L12.7733 1.5285ZM15.7793 2.2035C15.2984 2.01796 14.8046 1.86805 14.3018 1.755L14.6303 0.291C15.2048 0.42 15.7703 0.591 16.3193 0.804L15.7793 2.2035ZM17.8343 3.2685C17.6198 3.12547 17.4002 2.99038 17.1758 2.8635L17.9153 1.5585C18.4281 1.8491 18.919 2.17699 19.3838 2.5395L18.4613 3.723C18.2579 3.56435 18.0488 3.41324 17.8343 3.27V3.2685ZM20.5853 5.9535C20.2886 5.53196 19.9612 5.13288 19.6058 4.7595L20.6918 3.7245C21.0968 4.152 21.4718 4.6095 21.8123 5.0895L20.5853 5.9535ZM21.7013 7.9815C21.6028 7.74369 21.4958 7.50953 21.3803 7.2795L22.7198 6.6045C22.9847 7.13113 23.2103 7.67661 23.3948 8.2365L21.9698 8.706C21.8892 8.4613 21.7996 8.21964 21.7013 7.9815ZM22.4963 11.742C22.4841 11.2265 22.434 10.7126 22.3463 10.2045L23.8238 9.9495C23.9243 10.5285 23.9828 11.1165 23.9978 11.7045L22.4978 11.742H22.4963ZM22.2998 14.049C22.3493 13.794 22.3898 13.5405 22.4213 13.284L23.9108 13.4685C23.8387 14.0537 23.7234 14.6328 23.5658 15.201L22.1198 14.8005C22.1888 14.553 22.2488 14.3025 22.2998 14.049ZM20.8718 17.6175C21.1478 17.1825 21.3908 16.7265 21.6008 16.2555L22.9718 16.863C22.7318 17.403 22.4543 17.922 22.1393 18.42L20.8718 17.6175ZM19.4258 19.425C19.6088 19.242 19.7843 19.053 19.9508 18.858L21.0878 19.8375C20.8952 20.0608 20.6946 20.2769 20.4863 20.4855L19.4258 19.425Z" fill="#212529"/>
<path d="M12.0008 1.5C10.2741 1.50012 8.5741 1.92607 7.05135 2.74011C5.5286 3.55415 4.2301 4.73115 3.27087 6.16687C2.31163 7.6026 1.72127 9.25272 1.55207 10.9711C1.38287 12.6895 1.64006 14.423 2.30084 16.0183C2.96163 17.6135 4.00563 19.0212 5.34037 20.1166C6.67511 21.212 8.25939 21.9613 9.95288 22.2982C11.6464 22.6351 13.3968 22.5492 15.0492 22.048C16.7015 21.5468 18.2048 20.6459 19.4258 19.425L20.4863 20.4855C19.0909 21.8817 17.3727 22.9121 15.4838 23.4855C13.595 24.0589 11.5939 24.1575 9.65788 23.7727C7.72182 23.3879 5.91057 22.5315 4.3846 21.2793C2.85864 20.0272 1.66508 18.418 0.909681 16.5943C0.15428 14.7707 -0.139641 12.7888 0.0539606 10.8244C0.247562 8.85999 0.922709 6.97365 2.01958 5.33253C3.11645 3.6914 4.60118 2.34617 6.34222 1.416C8.08326 0.485843 10.0268 -0.000523098 12.0008 4.22187e-07V1.5Z" fill="#212529"/>
<path d="M11.2508 4.5C11.4497 4.5 11.6405 4.57902 11.7811 4.71967C11.9218 4.86032 12.0008 5.05109 12.0008 5.25V13.065L16.8728 15.849C17.0405 15.9502 17.1619 16.1129 17.2112 16.3024C17.2605 16.492 17.2337 16.6933 17.1366 16.8633C17.0394 17.0333 16.8796 17.1586 16.6913 17.2124C16.5029 17.2661 16.3011 17.2441 16.1288 17.151L10.8788 14.151C10.764 14.0854 10.6686 13.9907 10.6022 13.8764C10.5358 13.762 10.5008 13.6322 10.5008 13.5V5.25C10.5008 5.05109 10.5798 4.86032 10.7205 4.71967C10.8611 4.57902 11.0519 4.5 11.2508 4.5Z" fill="#212529"/>
</g>
<defs>
<clipPath id="clip0_84_45805">
<rect width="24" height="24" fill="white"/>
</clipPath>
</defs>
</svg>
