<svg width="20" height="21" viewBox="0 0 20 21" fill="none" xmlns="http://www.w3.org/2000/svg">
<path d="M13.0976 2.62539C13.1218 2.54693 13.1302 2.46448 13.1225 2.38275C13.1147 2.30103 13.091 2.22163 13.0526 2.14908C13.0141 2.07653 12.9618 2.01227 12.8986 1.95994C12.8353 1.90762 12.7624 1.86827 12.6839 1.84414C12.6054 1.82001 12.523 1.81157 12.4413 1.81931C12.3595 1.82704 12.2801 1.8508 12.2076 1.88922C12.135 1.92764 12.0708 1.97997 12.0184 2.04323C11.9661 2.10649 11.9268 2.17943 11.9026 2.25789L6.90264 18.5079C6.85391 18.6664 6.87012 18.8377 6.94771 18.9842C7.02531 19.1307 7.15792 19.2404 7.31639 19.2891C7.47486 19.3379 7.64619 19.3217 7.79271 19.2441C7.93922 19.1665 8.04891 19.0339 8.09764 18.8754L13.0976 2.62539ZM6.06764 5.74914C6.12584 5.8072 6.17202 5.87617 6.20353 5.9521C6.23504 6.02803 6.25126 6.10944 6.25126 6.19164C6.25126 6.27385 6.23504 6.35526 6.20353 6.43119C6.17202 6.50712 6.12584 6.57609 6.06764 6.63414L2.13389 10.5666L6.06764 14.4991C6.185 14.6165 6.25093 14.7757 6.25093 14.9416C6.25093 15.1076 6.185 15.2668 6.06764 15.3841C5.95028 15.5015 5.79111 15.5674 5.62514 15.5674C5.45917 15.5674 5.3 15.5015 5.18264 15.3841L0.807641 11.0091C0.749437 10.9511 0.703258 10.8821 0.67175 10.8062C0.640242 10.7303 0.624023 10.6489 0.624023 10.5666C0.624023 10.4844 0.640242 10.403 0.67175 10.3271C0.703258 10.2512 0.749437 10.1822 0.807641 10.1241L5.18264 5.74914C5.2407 5.69094 5.30967 5.64476 5.3856 5.61325C5.46153 5.58175 5.54293 5.56553 5.62514 5.56553C5.70735 5.56553 5.78875 5.58175 5.86468 5.61325C5.94061 5.64476 6.00958 5.69094 6.06764 5.74914ZM13.9326 5.74914C13.8744 5.8072 13.8283 5.87617 13.7968 5.9521C13.7652 6.02803 13.749 6.10944 13.749 6.19164C13.749 6.27385 13.7652 6.35526 13.7968 6.43119C13.8283 6.50712 13.8744 6.57609 13.9326 6.63414L17.8664 10.5666L13.9326 14.4991C13.8745 14.5573 13.8284 14.6262 13.797 14.7022C13.7655 14.7781 13.7494 14.8595 13.7494 14.9416C13.7494 15.0238 13.7655 15.1052 13.797 15.1811C13.8284 15.257 13.8745 15.326 13.9326 15.3841C13.9908 15.4423 14.0597 15.4884 14.1357 15.5198C14.2116 15.5512 14.293 15.5674 14.3751 15.5674C14.4573 15.5674 14.5387 15.5512 14.6146 15.5198C14.6905 15.4884 14.7595 15.4423 14.8176 15.3841L19.1926 11.0091C19.2508 10.9511 19.297 10.8821 19.3285 10.8062C19.36 10.7303 19.3763 10.6489 19.3763 10.5666C19.3763 10.4844 19.36 10.403 19.3285 10.3271C19.297 10.2512 19.2508 10.1822 19.1926 10.1241L14.8176 5.74914C14.7596 5.69094 14.6906 5.64476 14.6147 5.61325C14.5388 5.58175 14.4574 5.56553 14.3751 5.56553C14.2929 5.56553 14.2115 5.58175 14.1356 5.61325C14.0597 5.64476 13.9907 5.69094 13.9326 5.74914Z" fill="#1B1B1B"/>
</svg>
