<svg width="20" height="21" viewBox="0 0 20 21" fill="none" xmlns="http://www.w3.org/2000/svg">
<g clip-path="url(#clip0_1958_938)">
<path d="M10 20.5667C11.9891 20.5667 13.8968 19.7765 15.3033 18.37C16.7098 16.9634 17.5 15.0558 17.5 13.0667C17.5 10.9979 16.0975 9.43665 14.46 7.61415C12.8175 5.78665 10.9375 3.6954 10 0.56665C10 0.56665 2.5 7.67415 2.5 13.0667C2.5 15.0558 3.29018 16.9634 4.6967 18.37C6.10322 19.7765 8.01088 20.5667 10 20.5667ZM8.3075 6.37415L9.1925 7.25915C8.83 7.62165 7.7825 8.8979 6.80875 10.8467L5.69125 10.2867C6.71625 8.2354 7.8375 6.8454 8.3075 6.37415Z" fill="#1B1B1B"/>
</g>
<defs>
<clipPath id="clip0_1958_938">
<rect width="20" height="20" fill="white" transform="translate(0 0.56665)"/>
</clipPath>
</defs>
</svg>
