<svg width="20" height="21" viewBox="0 0 20 21" fill="none" xmlns="http://www.w3.org/2000/svg">
<g clip-path="url(#clip0_941_4886)">
<path d="M19.4312 8.76426C19.5479 9.43546 19.606 10.1155 19.605 10.7968C19.605 13.8393 18.5175 16.4118 16.625 18.153H16.6275C14.9725 19.6818 12.6975 20.5668 10 20.5668C7.34783 20.5668 4.8043 19.5132 2.92893 17.6378C1.05357 15.7625 0 13.2189 0 10.5668C0 7.9146 1.05357 5.37106 2.92893 3.49569C4.8043 1.62033 7.34783 0.566761 10 0.566761C12.4824 0.537688 14.8798 1.4703 16.69 3.16926L13.835 6.02426C12.803 5.04048 11.4256 4.50175 10 4.52426C7.39125 4.52426 5.175 6.28426 4.385 8.65426C3.96613 9.89614 3.96613 11.2411 4.385 12.483H4.38875C5.1825 14.8493 7.395 16.6093 10.0037 16.6093C11.3512 16.6093 12.5087 16.2643 13.4062 15.6543H13.4025C13.9236 15.309 14.3694 14.8618 14.7129 14.3395C15.0565 13.8172 15.2906 13.2308 15.4012 12.6155H10V8.76551H19.4312V8.76426Z" fill="#1B1B1B"/>
</g>
<defs>
<clipPath id="clip0_941_4886">
<rect width="20" height="20" fill="white" transform="translate(0 0.56665)"/>
</clipPath>
</defs>
</svg>
