<svg width="20" height="21" viewBox="0 0 20 21" fill="none" xmlns="http://www.w3.org/2000/svg">
<path d="M1.25 3.69165C1.25 3.19437 1.44754 2.71746 1.79917 2.36583C2.15081 2.01419 2.62772 1.81665 3.125 1.81665H6.875C7.37228 1.81665 7.84919 2.01419 8.20083 2.36583C8.55246 2.71746 8.75 3.19437 8.75 3.69165V7.44165C8.75 7.93893 8.55246 8.41584 8.20083 8.76748C7.84919 9.11911 7.37228 9.31665 6.875 9.31665H3.125C2.62772 9.31665 2.15081 9.11911 1.79917 8.76748C1.44754 8.41584 1.25 7.93893 1.25 7.44165V3.69165ZM11.25 3.69165C11.25 3.19437 11.4475 2.71746 11.7992 2.36583C12.1508 2.01419 12.6277 1.81665 13.125 1.81665H16.875C17.3723 1.81665 17.8492 2.01419 18.2008 2.36583C18.5525 2.71746 18.75 3.19437 18.75 3.69165V7.44165C18.75 7.93893 18.5525 8.41584 18.2008 8.76748C17.8492 9.11911 17.3723 9.31665 16.875 9.31665H13.125C12.6277 9.31665 12.1508 9.11911 11.7992 8.76748C11.4475 8.41584 11.25 7.93893 11.25 7.44165V3.69165ZM1.25 13.6917C1.25 13.1944 1.44754 12.7175 1.79917 12.3658C2.15081 12.0142 2.62772 11.8167 3.125 11.8167H6.875C7.37228 11.8167 7.84919 12.0142 8.20083 12.3658C8.55246 12.7175 8.75 13.1944 8.75 13.6917V17.4417C8.75 17.9389 8.55246 18.4158 8.20083 18.7675C7.84919 19.1191 7.37228 19.3167 6.875 19.3167H3.125C2.62772 19.3167 2.15081 19.1191 1.79917 18.7675C1.44754 18.4158 1.25 17.9389 1.25 17.4417V13.6917ZM11.25 13.6917C11.25 13.1944 11.4475 12.7175 11.7992 12.3658C12.1508 12.0142 12.6277 11.8167 13.125 11.8167H16.875C17.3723 11.8167 17.8492 12.0142 18.2008 12.3658C18.5525 12.7175 18.75 13.1944 18.75 13.6917V17.4417C18.75 17.9389 18.5525 18.4158 18.2008 18.7675C17.8492 19.1191 17.3723 19.3167 16.875 19.3167H13.125C12.6277 19.3167 12.1508 19.1191 11.7992 18.7675C11.4475 18.4158 11.25 17.9389 11.25 17.4417V13.6917Z" fill="#1B1B1B"/>
</svg>
