<svg width="20" height="21" viewBox="0 0 20 21" fill="none" xmlns="http://www.w3.org/2000/svg">
<path fill-rule="evenodd" clip-rule="evenodd" d="M9.99981 4.68292L17.4998 12.1829V17.4417C17.4998 17.9389 17.3023 18.4159 16.9506 18.7675C16.599 19.1191 16.1221 19.3167 15.6248 19.3167H4.37481C3.87753 19.3167 3.40062 19.1191 3.04899 18.7675C2.69736 18.4159 2.49981 17.9389 2.49981 17.4417V12.1829L9.99981 4.68292ZM16.2498 3.69167V8.06667L13.7498 5.56667V3.69167C13.7498 3.52591 13.8157 3.36694 13.9329 3.24973C14.0501 3.13251 14.2091 3.06667 14.3748 3.06667H15.6248C15.7906 3.06667 15.9495 3.13251 16.0668 3.24973C16.184 3.36694 16.2498 3.52591 16.2498 3.69167Z" fill="#1B1B1B"/>
<path fill-rule="evenodd" clip-rule="evenodd" d="M9.11606 2.44167C9.35047 2.20733 9.66836 2.07568 9.99981 2.07568C10.3313 2.07568 10.6492 2.20733 10.8836 2.44167L19.1923 10.7492C19.3097 10.8665 19.3756 11.0257 19.3756 11.1917C19.3756 11.3576 19.3097 11.5168 19.1923 11.6342C19.075 11.7515 18.9158 11.8175 18.7498 11.8175C18.5838 11.8175 18.4247 11.7515 18.3073 11.6342L9.99981 3.32542L1.69231 11.6342C1.57495 11.7515 1.41578 11.8175 1.24981 11.8175C1.08384 11.8175 0.924671 11.7515 0.807313 11.6342C0.689955 11.5168 0.624023 11.3576 0.624023 11.1917C0.624023 11.0257 0.689955 10.8665 0.807313 10.7492L9.11606 2.44167Z" fill="#1B1B1B"/>
</svg>
