<svg width="20" height="21" viewBox="0 0 20 21" fill="none" xmlns="http://www.w3.org/2000/svg">
<path d="M7.1001 7.80665L9.18135 10.2542L7.10135 12.7017C6.61873 13.1776 6.00616 13.5003 5.34067 13.629C4.67517 13.7578 3.98646 13.687 3.36112 13.4254C2.73578 13.1638 2.20173 12.7232 1.82612 12.159C1.45051 11.5947 1.25011 10.932 1.25011 10.2542C1.25011 9.57631 1.45051 8.9136 1.82612 8.34934C2.20173 7.78509 2.73578 7.34447 3.36112 7.0829C3.98646 6.82133 4.67517 6.75048 5.34067 6.87926C6.00616 7.00803 6.61873 7.33069 7.10135 7.80665H7.1001ZM10.0001 9.28915L8.0201 6.9579L8.0026 6.93915C7.34699 6.28372 6.51176 5.8374 5.60251 5.65663C4.69326 5.47586 3.75082 5.56876 2.89436 5.92359C2.03791 6.27841 1.30589 6.87922 0.790877 7.65005C0.275863 8.42087 0.000976563 9.32711 0.000976562 10.2542C0.000976563 11.1812 0.275863 12.0874 0.790877 12.8583C1.30589 13.6291 2.03791 14.2299 2.89436 14.5847C3.75082 14.9395 4.69326 15.0324 5.60251 14.8517C6.51176 14.6709 7.34699 14.2246 8.0026 13.5692L8.0201 13.5504L10.0001 11.2192L11.9801 13.5504L11.9976 13.5692C12.6532 14.2246 13.4884 14.6709 14.3977 14.8517C15.3069 15.0324 16.2494 14.9395 17.1058 14.5847C17.9623 14.2299 18.6943 13.6291 19.2093 12.8583C19.7243 12.0874 19.9992 11.1812 19.9992 10.2542C19.9992 9.32711 19.7243 8.42087 19.2093 7.65005C18.6943 6.87922 17.9623 6.27841 17.1058 5.92359C16.2494 5.56876 15.3069 5.47586 14.3977 5.65663C13.4884 5.8374 12.6532 6.28372 11.9976 6.93915L11.9801 6.9579L10.0001 9.28915ZM10.8201 10.2542L12.8989 7.80665C13.3815 7.33069 13.994 7.00803 14.6595 6.87926C15.325 6.75048 16.0137 6.82133 16.6391 7.0829C17.2644 7.34447 17.7985 7.78509 18.1741 8.34934C18.5497 8.9136 18.7501 9.57631 18.7501 10.2542C18.7501 10.932 18.5497 11.5947 18.1741 12.159C17.7985 12.7232 17.2644 13.1638 16.6391 13.4254C16.0137 13.687 15.325 13.7578 14.6595 13.629C13.994 13.5003 13.3815 13.1776 12.8989 12.7017L10.8201 10.2542Z" fill="#1B1B1B"/>
</svg>
