<svg width="32" height="33" viewBox="0 0 32 33" fill="none" xmlns="http://www.w3.org/2000/svg">
<g clip-path="url(#clip0_253_12988)">
<path d="M0 3.11134C0 1.84534 1.052 0.819336 2.35 0.819336H29.65C30.948 0.819336 32 1.84534 32 3.11134V30.5273C32 31.7933 30.948 32.8193 29.65 32.8193H2.35C1.052 32.8193 0 31.7933 0 30.5273V3.11134ZM9.886 27.6073V13.1573H5.084V27.6073H9.886ZM7.486 11.1833C9.16 11.1833 10.202 10.0753 10.202 8.68734C10.172 7.26934 9.162 6.19134 7.518 6.19134C5.874 6.19134 4.8 7.27134 4.8 8.68734C4.8 10.0753 5.842 11.1833 7.454 11.1833H7.486ZM17.302 27.6073V19.5373C17.302 19.1053 17.334 18.6733 17.462 18.3653C17.808 17.5033 18.598 16.6093 19.926 16.6093C21.664 16.6093 22.358 17.9333 22.358 19.8773V27.6073H27.16V19.3193C27.16 14.8793 24.792 12.8153 21.632 12.8153C19.084 12.8153 17.942 14.2153 17.302 15.2013V15.2513H17.27C17.2806 15.2346 17.2913 15.218 17.302 15.2013V13.1573H12.502C12.562 14.5133 12.502 27.6073 12.502 27.6073H17.302Z" fill="#1B1B1B"/>
</g>
<defs>
<clipPath id="clip0_253_12988">
<rect width="32" height="32" fill="white" transform="translate(0 0.819336)"/>
</clipPath>
</defs>
</svg>
