<svg width="32" height="33" viewBox="0 0 32 33" fill="none" xmlns="http://www.w3.org/2000/svg">
<g clip-path="url(#clip0_156_10217)">
<path d="M0 2.31458C0 1.04858 1.052 0.022583 2.35 0.022583H29.65C30.948 0.022583 32 1.04858 32 2.31458V29.7306C32 30.9966 30.948 32.0226 29.65 32.0226H2.35C1.052 32.0226 0 30.9966 0 29.7306V2.31458ZM9.886 26.8106V12.3606H5.084V26.8106H9.886ZM7.486 10.3866C9.16 10.3866 10.202 9.27858 10.202 7.89058C10.172 6.47258 9.162 5.39458 7.518 5.39458C5.874 5.39458 4.8 6.47458 4.8 7.89058C4.8 9.27858 5.842 10.3866 7.454 10.3866H7.486ZM17.302 26.8106V18.7406C17.302 18.3086 17.334 17.8766 17.462 17.5686C17.808 16.7066 18.598 15.8126 19.926 15.8126C21.664 15.8126 22.358 17.1366 22.358 19.0806V26.8106H27.16V18.5226C27.16 14.0826 24.792 12.0186 21.632 12.0186C19.084 12.0186 17.942 13.4186 17.302 14.4046V14.4546H17.27C17.2806 14.4379 17.2913 14.4212 17.302 14.4046V12.3606H12.502C12.562 13.7166 12.502 26.8106 12.502 26.8106H17.302Z" fill="black"/>
</g>
<defs>
<clipPath id="clip0_156_10217">
<rect width="32" height="32" fill="white" transform="translate(0 0.022583)"/>
</clipPath>
</defs>
</svg>
