<svg xmlns="http://www.w3.org/2000/svg" width="88" height="37" viewBox="0 0 88 37" fill="none">
<path d="M6.08425 36.416C5.27358 36.1173 4.42025 35.7333 3.52425 35.264C2.62825 34.8373 1.86025 34.2613 1.22025 33.536C0.622917 32.8107 0.32425 31.936 0.32425 30.912C0.32425 30.4427 0.38825 29.9733 0.51625 29.504C0.64425 28.992 0.90025 28.5867 1.28425 28.288C1.32692 28.4587 1.32692 28.6293 1.28425 28.8C1.28425 28.9707 1.28425 29.1627 1.28425 29.376C1.28425 30.7413 1.77492 31.744 2.75625 32.384C3.73758 33.024 4.82558 33.344 6.02025 33.344C7.38558 33.344 8.64425 33.0027 9.79625 32.32C10.9909 31.6373 11.9936 30.8267 12.8043 29.888V29.44H12.8683L13.2523 28.928C13.4656 28.8427 13.6576 28.736 13.8283 28.608C13.9989 28.48 14.1483 28.352 14.2763 28.224V27.712C14.8736 27.4133 15.4069 26.9227 15.8763 26.24C16.3883 25.5147 16.8149 24.8747 17.1562 24.32C17.4976 24.32 17.7323 24.128 17.8603 23.744C17.9883 23.3173 18.0736 22.976 18.1163 22.72L18.1803 22.656L18.1163 22.528C17.2203 22.528 16.3029 22.6347 15.3643 22.848C14.4683 23.0187 13.5509 23.1467 12.6123 23.232C11.8016 23.9147 10.8843 24.256 9.86025 24.256C9.39092 24.256 8.90025 24.128 8.38825 23.872C7.87625 23.616 7.62025 23.2107 7.62025 22.656C7.62025 22.3573 7.72692 21.9947 7.94025 21.568C8.19625 21.1413 8.49492 20.7573 8.83625 20.416C9.22025 20.032 9.56158 19.84 9.86025 19.84L9.98825 20.224H11.0123C11.4816 20.224 11.9296 20.2027 12.3563 20.16C12.8256 20.1173 13.2736 20.096 13.7003 20.096L14.2763 19.776L14.8523 20.096C15.0656 19.9253 15.4923 19.84 16.1323 19.84C16.7296 19.84 17.3909 19.8827 18.1163 19.968C18.8843 20.0533 19.4603 20.0747 19.8443 20.032C20.1856 19.3067 20.5483 18.624 20.9323 17.984C21.3163 17.3013 21.6363 16.6187 21.8923 15.936L22.3403 15.552C22.7243 14.1013 23.1936 12.6933 23.7483 11.328C24.3029 9.92 24.8149 8.512 25.2843 7.104H23.0443C22.5749 7.104 22.0843 7.12533 21.5723 7.168C21.1029 7.21067 20.6549 7.33867 20.2283 7.552L19.4603 7.488C18.8629 7.40267 18.2656 7.46667 17.6683 7.68C17.1136 7.89333 16.5803 8.128 16.0683 8.384L15.8123 8.32L15.6203 8.512C13.3589 8.896 11.1829 9.77067 9.09225 11.136C7.04425 12.5013 5.31625 14.08 3.90825 15.872L4.54825 16.256L5.70025 16.128L5.89225 16.32C5.67892 16.5333 5.42292 16.704 5.12425 16.832C4.82558 16.96 4.52692 17.0667 4.22825 17.152L3.71625 16.704L3.20425 16.896C3.07625 16.64 3.01225 16.4053 3.01225 16.192C3.01225 15.424 3.37492 14.5707 4.10025 13.632C4.86825 12.6933 5.50825 11.9467 6.02025 11.392V11.008C6.91625 10.2827 8.04692 9.55733 9.41225 8.832C10.8203 8.064 12.3349 7.38133 13.9563 6.784C15.5776 6.18667 17.1989 5.71733 18.8203 5.376C20.4416 4.992 21.9136 4.8 23.2363 4.8C23.5349 4.8 23.8123 4.82133 24.0683 4.864C24.3243 4.864 24.5803 4.88533 24.8363 4.928C25.0069 4.8 25.1989 4.71467 25.4123 4.672C25.6256 4.62933 25.8176 4.58666 25.9883 4.544L25.6683 4.48C26.0096 3.92533 26.1803 3.34933 26.1803 2.752C26.2656 2.70933 26.3509 2.66666 26.4363 2.624C26.5643 2.58133 26.6709 2.56 26.7563 2.56C27.2256 2.56 27.8443 2.60267 28.6123 2.688C29.4229 2.77333 30.1269 2.98667 30.7243 3.328C31.3643 3.62667 31.6416 4.13867 31.5563 4.864C32.2816 4.77866 33.0069 4.736 33.7323 4.736C34.4576 4.69333 35.1829 4.672 35.9083 4.672C37.1883 4.672 38.4683 4.75733 39.7483 4.928C41.0709 5.09867 42.3083 5.54667 43.4603 6.272L43.2683 6.528C43.3963 6.95467 43.6523 7.232 44.0363 7.36L44.2283 7.872L43.7803 8.192L44.0363 8.896C43.7376 9.70667 43.4389 10.24 43.1403 10.496C42.8416 10.752 42.2443 10.9227 41.3483 11.008L40.8363 10.688L38.6603 11.648L38.5963 11.584L38.8523 11.008V10.944C38.5963 11.1573 38.3189 11.3493 38.0203 11.52C37.7216 11.6907 37.4016 11.7973 37.0603 11.84L36.8683 11.712L37.0603 11.52C37.8709 11.264 38.5536 10.8587 39.1083 10.304C39.6629 9.74933 40.1536 9.13066 40.5803 8.448L40.4523 7.424L38.7243 6.592L38.6603 6.4C38.1056 6.22933 37.5296 6.144 36.9323 6.144C36.3349 6.10133 35.7376 6.08 35.1403 6.08C34.5429 6.08 33.9456 6.144 33.3483 6.272C32.7936 6.4 32.2176 6.48533 31.6203 6.528L31.8763 7.04C31.8336 7.21067 31.7483 7.50933 31.6203 7.936C31.4923 8.36267 31.3216 8.59733 31.1083 8.64L30.3403 8.128L30.2763 8.192C30.2336 8.74667 30.0843 9.30133 29.8283 9.856C29.5723 10.368 29.2736 10.8373 28.9323 11.264C28.2069 11.3067 27.8443 11.712 27.8443 12.48L28.2283 12.736L28.4843 12.352L28.7403 12.288L28.8683 12.48C28.5696 12.9493 28.2496 13.2907 27.9083 13.504C27.5669 13.504 27.2683 13.632 27.0123 13.888C26.7989 14.144 26.5216 14.2933 26.1803 14.336C25.8389 14.5067 25.6043 14.7413 25.4763 15.04C25.3909 15.3387 25.1136 15.616 24.6443 15.872L24.7083 16C24.5376 16.1707 24.2603 16.512 23.8763 17.024C23.5349 17.4933 23.2149 17.984 22.9163 18.496C22.6176 18.9653 22.4469 19.328 22.4043 19.584H22.5323L22.7243 19.968C23.1509 19.84 23.5563 19.776 23.9403 19.776C24.3243 19.7333 24.7296 19.712 25.1563 19.712C25.5829 19.712 25.9883 19.712 26.3723 19.712C26.7563 19.712 27.1403 19.6907 27.5243 19.648C31.7909 18.9227 35.9723 18.3467 40.0683 17.92L40.3883 17.792L40.5163 17.92C40.3883 18.2613 39.8336 18.5813 38.8523 18.88C37.9136 19.1787 36.7616 19.456 35.3963 19.712C34.0309 19.9253 32.6443 20.1173 31.2363 20.288C29.8283 20.4587 28.5483 20.5867 27.3963 20.672C26.2869 20.7573 25.4976 20.8 25.0283 20.8C25.0283 20.9707 24.6869 21.1627 24.0043 21.376C23.3216 21.5893 22.5963 21.824 21.8283 22.08C21.1029 22.2933 20.5909 22.592 20.2923 22.976V23.808L19.9722 23.68C19.6309 23.7227 19.3963 23.8933 19.2683 24.192C19.1403 24.448 19.0549 24.7467 19.0123 25.088C18.5856 25.344 18.1803 25.664 17.7963 26.048C17.4123 26.3893 17.0069 26.7307 16.5803 27.072L16.6443 27.776H16.3883C16.3029 28.0747 16.0469 28.3733 15.6203 28.672C15.2363 28.928 14.9163 29.1627 14.6603 29.376L14.3403 29.952L14.6603 30.208L14.2123 30.464C13.8283 31.0187 13.2096 31.7227 12.3563 32.576C11.5456 33.4293 10.8416 33.984 10.2443 34.24C9.73225 34.88 9.11358 35.3493 8.38825 35.648C7.66292 35.9467 6.89492 36.2027 6.08425 36.416ZM25.5403 12.096H26.2443L26.3083 11.776L26.2443 11.52C26.0309 11.5627 25.7963 11.7547 25.5403 12.096ZM27.1403 11.968L27.3323 11.712L27.2043 11.584H27.0763L26.9483 11.776L27.1403 11.968ZM25.6683 13.12L25.6043 12.8L25.3483 12.992L25.6683 13.12ZM25.8603 14.272L26.0523 14.208L26.1163 13.888L25.9243 13.824L25.7963 14.208L25.8603 14.272ZM6.59625 15.936L6.72425 15.552L6.91625 15.616L6.98025 15.872L6.91625 15.936H6.59625ZM41.5283 34.304C41.0589 34.304 40.5469 34.112 39.9923 33.728C39.4376 33.3867 38.9256 32.96 38.4563 32.448C38.0296 31.936 37.7096 31.488 37.4963 31.104C38.0083 30.592 38.3496 30.0587 38.5203 29.504C38.8616 29.1627 39.1603 28.7787 39.4163 28.352C39.6723 27.9253 39.8856 27.4987 40.0563 27.072H40.2483C40.4189 26.816 40.5469 26.5387 40.6323 26.24C40.7603 25.9413 40.9096 25.664 41.0803 25.408L41.4003 24.192L42.3603 23.68L43.0642 22.592L43.5763 21.888L43.2563 21.504L43.3203 21.248L43.5763 21.184L43.8963 21.44L44.4723 20.864H44.3443L43.9603 21.056L44.4083 19.968V19.84L43.8323 20.224C43.9176 19.968 44.0456 19.7333 44.2163 19.52C44.3869 19.3067 44.6216 19.2 44.9203 19.2L45.3043 18.304L45.2403 17.92L46.5843 16.192L46.4563 15.68C46.6269 15.424 46.7763 15.1893 46.9043 14.976C47.0749 14.72 47.2029 14.4427 47.2883 14.144L48.1203 13.888L48.1843 13.632L47.8643 12.928C47.8643 12.288 48.2056 11.9253 48.8883 11.84L48.5043 11.648L48.4403 11.584L48.9523 11.072L49.0163 11.328L49.4643 10.88L49.1443 10.432C49.3576 10.1333 49.4856 9.81333 49.5283 9.472C49.5709 9.088 49.5923 8.72533 49.5923 8.384C50.4029 7.40267 50.8936 6.44267 51.0643 5.504C51.2776 4.52267 51.4056 3.43467 51.4483 2.24L51.0643 1.92C50.0403 1.96267 49.0589 2.13333 48.1203 2.432C47.2243 2.73067 46.3069 3.11467 45.3683 3.584C44.3869 4.096 43.7043 4.58667 43.3203 5.056C42.9363 5.52533 42.6163 5.99467 42.3603 6.464C42.1469 6.93333 41.6989 7.46667 41.0163 8.064C40.7176 8.36267 40.2696 8.64 39.6723 8.896C39.1176 9.10933 38.8829 9.51467 38.9683 10.112C37.7309 10.5387 36.9629 11.3067 36.6643 12.416C36.4083 13.5253 36.2803 14.6347 36.2803 15.744C36.2376 15.7867 36.1949 15.872 36.1523 16C36.1096 16.128 36.0669 16.2347 36.0243 16.32C35.5976 15.936 35.3203 15.3173 35.1923 14.464C35.0643 13.568 35.0003 12.8427 35.0003 12.288C35.0003 11.3493 35.3629 10.368 36.0883 9.344C36.8136 8.27733 37.7523 7.25333 38.9043 6.272C40.0989 5.248 41.3576 4.33066 42.6803 3.52C44.0029 2.70933 45.2829 2.06933 46.5203 1.6C47.7576 1.088 48.7816 0.831999 49.5923 0.831999C50.4029 0.831999 51.2989 1.024 52.2803 1.408C53.3043 1.74933 54.1789 2.26133 54.9043 2.944C55.6723 3.62667 56.0563 4.416 56.0563 5.312C56.0563 5.99467 55.8216 6.80533 55.3523 7.744C54.8829 8.64 54.4989 9.38667 54.2003 9.984C54.0723 10.0693 53.6883 10.56 53.0483 11.456C52.4083 12.352 51.6616 13.4613 50.8083 14.784C49.9549 16.064 49.1016 17.3653 48.2483 18.688C47.3949 19.968 46.6696 21.0773 46.0723 22.016C45.5176 22.9547 45.1976 23.5093 45.1123 23.68C44.8989 23.9787 44.6003 24.384 44.2163 24.896C43.8323 25.408 43.6403 25.856 43.6403 26.24L43.7043 26.688C44.3443 26.048 45.2189 25.1093 46.3283 23.872C47.4803 22.592 48.7389 21.1627 50.1042 19.584C51.5123 18.0053 52.9629 16.4267 54.4563 14.848C55.9923 13.2267 57.4643 11.7333 58.8723 10.368C60.3229 9.00267 61.6456 7.91467 62.8403 7.104C64.0349 6.25067 64.9949 5.824 65.7203 5.824C66.0189 5.824 66.4883 5.84533 67.1283 5.888C67.7683 5.93067 68.3443 6.05867 68.8563 6.272C69.4109 6.44267 69.6883 6.76266 69.6883 7.232C69.6883 7.53067 69.6456 7.82933 69.5603 8.128C69.4749 8.384 69.4536 8.68267 69.4963 9.024C69.0696 10.6027 68.6429 12.16 68.2163 13.696C67.7896 15.232 67.0856 16.6827 66.1043 18.048C65.8909 18.3467 65.7843 18.7947 65.7843 19.392C65.7843 19.648 65.8056 19.8187 65.8483 19.904C65.6349 20.2453 65.5709 20.5653 65.6562 20.864C65.7416 21.12 65.5709 21.4827 65.1443 21.952C65.1443 22.2507 65.2296 22.5067 65.4003 22.72C65.6136 22.8907 65.7629 23.104 65.8483 23.36C66.4029 22.5067 67.1069 21.4187 67.9603 20.096C68.8136 18.7307 69.7523 17.3013 70.7763 15.808C71.8429 14.3147 72.9309 12.864 74.0403 11.456C75.1923 10.048 76.3016 8.85333 77.3683 7.872C78.4349 6.848 79.3949 6.16533 80.2483 5.824C80.5896 5.824 81.1229 5.84533 81.8483 5.888C82.5736 5.93067 83.2349 6.03733 83.8323 6.208C84.4723 6.37867 84.7923 6.69867 84.7923 7.168C84.7923 8.064 84.6429 9.23733 84.3443 10.688C84.0883 12.096 83.7469 13.4827 83.3203 14.848C82.8936 16.2133 82.4029 17.2587 81.8483 17.984L82.4243 18.944C82.1683 19.4133 81.9763 19.9253 81.8483 20.48C81.7203 20.992 81.4643 21.4827 81.0803 21.952C81.0803 22.848 80.9736 23.744 80.7603 24.64C80.5469 25.4933 80.4403 26.3893 80.4403 27.328C80.4403 27.4987 80.4616 27.6907 80.5043 27.904C80.5469 28.1173 80.5469 28.3307 80.5043 28.544L80.8883 29.376C81.1869 29.2907 81.4856 29.184 81.7843 29.056C82.0829 28.8853 82.2963 28.6507 82.4243 28.352L82.8083 28.288H83.3203C83.9176 27.7333 84.5149 27.2 85.1123 26.688C85.7523 26.1333 86.3496 25.5787 86.9043 25.024L87.0963 25.216C86.4136 26.496 85.4749 27.7973 84.2803 29.12C83.1283 30.4427 82.1256 31.7867 81.2723 33.152C81.1869 33.1947 81.0589 33.2373 80.8883 33.28C80.7603 33.3653 80.6536 33.408 80.5683 33.408C79.7576 33.408 78.9896 33.024 78.2643 32.256C77.5816 31.5307 77.2403 30.7627 77.2403 29.952C77.2403 28.032 77.3683 26.0907 77.6243 24.128C77.9229 22.1227 78.1789 20.2027 78.3923 18.368L78.2643 17.6C78.7336 15.9787 79.0749 14.336 79.2883 12.672C79.5016 11.008 79.6723 9.32267 79.8003 7.616C79.4163 7.82933 78.7976 8.42667 77.9443 9.408C77.0909 10.3893 76.1096 11.5627 75.0003 12.928C73.8909 14.2933 72.7816 15.7013 71.6723 17.152C70.6056 18.56 69.6456 19.84 68.7923 20.992C67.9389 22.144 67.3416 22.976 67.0003 23.488C66.7869 23.8293 66.4669 24.3413 66.0403 25.024C65.6563 25.7067 65.2936 26.3893 64.9523 27.072C64.6536 27.7547 64.4616 28.3093 64.3763 28.736C64.3336 28.992 64.2909 29.376 64.2483 29.888C64.2483 30.3573 64.1629 30.8053 63.9923 31.232C63.8643 31.616 63.6083 31.808 63.2243 31.808C62.7976 31.808 62.4136 31.5947 62.0723 31.168C61.7309 30.6987 61.5603 30.3147 61.5603 30.016C61.5603 29.2053 61.6669 28.096 61.8803 26.688C62.0936 25.2373 62.3069 23.7653 62.5203 22.272C62.7336 20.7787 62.8403 19.584 62.8403 18.688C62.8403 18.4747 62.8189 18.2827 62.7763 18.112C62.7763 17.9413 62.7549 17.792 62.7123 17.664L63.0323 17.216L63.3523 15.104L63.7363 15.232H63.9283L64.2483 14.784L64.0563 14.272L63.2883 14.528C63.3736 13.3333 63.5869 12.1813 63.9283 11.072C64.3123 9.96267 64.5469 8.832 64.6323 7.68C63.5656 8.064 62.5843 8.66133 61.6883 9.472C60.8349 10.2827 60.0029 11.136 59.1923 12.032C58.3816 12.928 57.5069 13.7387 56.5683 14.464L56.3763 14.848C56.0349 15.104 55.4163 15.7013 54.5203 16.64C53.6669 17.536 52.7069 18.6027 51.6403 19.84C50.5736 21.0347 49.5283 22.2293 48.5043 23.424C47.5229 24.6187 46.7123 25.664 46.0723 26.56C45.4749 27.456 45.2189 28.032 45.3043 28.288C44.9629 28.8427 44.6003 29.376 44.2163 29.888C43.8323 30.4 43.4696 30.8907 43.1283 31.36C43.2136 31.5307 43.2563 31.68 43.2563 31.808C43.2563 32.192 43.0429 32.384 42.6163 32.384C42.2323 32.384 41.9976 32.512 41.9123 32.768L42.3603 33.344C42.3176 33.5147 42.2109 33.7067 42.0403 33.92C41.9123 34.176 41.7416 34.304 41.5283 34.304ZM48.8243 12.672C49.2509 12.5013 49.4643 12.224 49.4643 11.84V11.648L49.0163 11.904V12.16L48.8243 12.672ZM47.7363 13.696L47.8003 13.632L48.0563 13.504V13.632L47.7363 13.696ZM45.5603 18.496L45.8163 18.432L46.2003 17.6H46.0083L45.5603 18.496ZM87.6083 24.832L87.2243 24.704L87.5443 24.192L87.6723 24.128L87.8003 24.32L87.6083 24.832Z" fill="#613121"/>
</svg>