<svg width="20" height="21" viewBox="0 0 20 21" fill="none" xmlns="http://www.w3.org/2000/svg">
<path d="M16.25 3.69165C16.25 3.19437 16.4475 2.71746 16.7992 2.36583C17.1508 2.01419 17.6277 1.81665 18.125 1.81665C18.6223 1.81665 19.0992 2.01419 19.4508 2.36583C19.8025 2.71746 20 3.19437 20 3.69165V17.4417C20 17.9389 19.8025 18.4158 19.4508 18.7675C19.0992 19.1191 18.6223 19.3167 18.125 19.3167C17.6277 19.3167 17.1508 19.1191 16.7992 18.7675C16.4475 18.4158 16.25 17.9389 16.25 17.4417V3.69165ZM15 4.59665C12.4163 5.78415 9.32625 6.4479 6.25 6.66665V14.4629C6.70405 14.4885 7.15749 14.5239 7.61 14.5691C10.1762 14.8242 12.6575 15.4042 15 16.5192V4.59665ZM5 14.3979V6.73415C4.15 6.7679 3.25125 6.7879 2.49 6.8004C1.82792 6.80957 1.19595 7.07845 0.730204 7.5491C0.264462 8.01975 0.00223098 8.65452 0 9.31665L0 11.8167C0 13.1992 1.12 14.3117 2.4925 14.3279C2.69918 14.3305 2.90585 14.3338 3.1125 14.3379C3.74188 14.3505 4.37109 14.3705 5 14.3979ZM6.7375 15.7492C7.09375 15.7754 7.44875 15.8079 7.8 15.8467L8.11625 17.9592C8.15066 18.1399 8.14474 18.3261 8.09889 18.5043C8.05304 18.6825 7.96841 18.8484 7.85103 18.9902C7.73365 19.1319 7.58643 19.246 7.41987 19.3242C7.25331 19.4025 7.07153 19.443 6.8875 19.4429H6.2025C5.95953 19.4429 5.72183 19.3721 5.51847 19.2391C5.31512 19.1061 5.15493 18.9167 5.0575 18.6942L3.415 15.5942C4.12031 15.6117 4.82537 15.6384 5.53 15.6742C5.93875 15.6954 6.3425 15.7204 6.7375 15.7492Z" fill="#1B1B1B"/>
</svg>
