<svg width="20" height="21" viewBox="0 0 20 21" fill="none" xmlns="http://www.w3.org/2000/svg">
<g clip-path="url(#clip0_1958_5996)">
<path fill-rule="evenodd" clip-rule="evenodd" d="M18.4537 0.660375C18.5443 0.716369 18.619 0.794558 18.6709 0.88753C18.7227 0.980501 18.7499 1.08517 18.75 1.19163V19.9416C18.75 20.1074 18.6842 20.2664 18.5669 20.3836C18.4497 20.5008 18.2908 20.5666 18.125 20.5666H14.375C14.2092 20.5666 14.0503 20.5008 13.9331 20.3836C13.8158 20.2664 13.75 20.1074 13.75 19.9416V18.0666H12.5V19.9416C12.5 20.1074 12.4342 20.2664 12.3169 20.3836C12.1997 20.5008 12.0408 20.5666 11.875 20.5666H0.625C0.45924 20.5666 0.300269 20.5008 0.183058 20.3836C0.065848 20.2664 0 20.1074 0 19.9416V13.0666C9.95584e-05 12.9355 0.0414351 12.8077 0.118156 12.7014C0.194877 12.5951 0.303098 12.5156 0.4275 12.4741L7.5 10.1166V6.19163C7.5 6.07565 7.53228 5.96197 7.5932 5.86329C7.65413 5.76461 7.74132 5.68483 7.845 5.63288L17.845 0.632875C17.9404 0.585133 18.0464 0.562596 18.153 0.567409C18.2595 0.572223 18.3631 0.604227 18.4537 0.660375ZM7.5 11.4341L1.25 13.5166V19.3166H7.5V11.4341ZM8.75 19.3166H11.25V17.4416C11.25 17.2759 11.3158 17.1169 11.4331 16.9997C11.5503 16.8825 11.7092 16.8166 11.875 16.8166H14.375C14.5408 16.8166 14.6997 16.8825 14.8169 16.9997C14.9342 17.1169 15 17.2759 15 17.4416V19.3166H17.5V2.20288L8.75 6.57788V19.3166Z" fill="#1B1B1B"/>
<path d="M2.5 14.3166H3.75V15.5666H2.5V14.3166ZM5 14.3166H6.25V15.5666H5V14.3166ZM2.5 16.8166H3.75V18.0666H2.5V16.8166ZM5 16.8166H6.25V18.0666H5V16.8166ZM10 11.8166H11.25V13.0666H10V11.8166ZM12.5 11.8166H13.75V13.0666H12.5V11.8166ZM10 14.3166H11.25V15.5666H10V14.3166ZM12.5 14.3166H13.75V15.5666H12.5V14.3166ZM15 11.8166H16.25V13.0666H15V11.8166ZM15 14.3166H16.25V15.5666H15V14.3166ZM10 9.31663H11.25V10.5666H10V9.31663ZM12.5 9.31663H13.75V10.5666H12.5V9.31663ZM15 9.31663H16.25V10.5666H15V9.31663ZM10 6.81663H11.25V8.06663H10V6.81663ZM12.5 6.81663H13.75V8.06663H12.5V6.81663ZM15 6.81663H16.25V8.06663H15V6.81663ZM15 4.31663H16.25V5.56663H15V4.31663Z" fill="#1B1B1B"/>
</g>
<defs>
<clipPath id="clip0_1958_5996">
<rect width="20" height="20" fill="white" transform="translate(0 0.56665)"/>
</clipPath>
</defs>
</svg>
