<?xml version="1.0" standalone="no"?>
<!DOCTYPE svg PUBLIC "-//W3C//DTD SVG 20010904//EN"
 "http://www.w3.org/TR/2001/REC-SVG-20010904/DTD/svg10.dtd">
<svg version="1.0" xmlns="http://www.w3.org/2000/svg"
 width="512.000000pt" height="512.000000pt" viewBox="0 0 512.000000 512.000000"
 preserveAspectRatio="xMidYMid meet">

<g transform="translate(0.000000,512.000000) scale(0.100000,-0.100000)"
fill="#000000" stroke="none">
<path d="M2315 5109 c-800 -83 -1501 -518 -1927 -1196 -604 -961 -490 -2237
274 -3068 425 -462 951 -737 1583 -827 119 -17 512 -16 635 1 562 77 1067 321
1454 699 432 424 681 920 768 1527 17 118 17 512 0 630 -71 496 -262 943 -557
1300 -418 506 -982 825 -1630 921 -123 18 -478 26 -600 13z m1037 -957 c81
-40 148 -110 180 -190 l23 -57 0 -1340 0 -1340 -22 -55 c-29 -70 -97 -148
-159 -182 -89 -48 -120 -49 -849 -46 l-680 3 -60 24 c-81 33 -163 115 -196
196 l-24 60 0 1340 0 1340 23 56 c41 103 135 186 241 215 35 10 213 13 751 11
l705 -2 67 -33z"/>
<path d="M1985 3954 c-11 -3 -31 -10 -43 -17 -54 -26 -52 20 -52 -1149 0
-1191 -4 -1110 60 -1143 43 -22 1177 -22 1220 0 64 33 60 -48 60 1142 0 796
-3 1089 -12 1107 -6 14 -23 34 -37 43 -24 17 -70 18 -601 20 -316 0 -584 -1
-595 -3z"/>
<path d="M2470 1438 c-111 -56 -142 -198 -66 -301 32 -43 117 -81 171 -75 110
13 193 112 183 219 -14 137 -164 219 -288 157z"/>
</g>
</svg>
