<svg width="15" height="25" viewBox="0 0 15 25" fill="none" xmlns="http://www.w3.org/2000/svg">
<path d="M12 2.41089C12.3978 2.41089 12.7794 2.56892 13.0607 2.85023C13.342 3.13153 13.5 3.51306 13.5 3.91089V21.9109C13.5 22.3087 13.342 22.6902 13.0607 22.9715C12.7794 23.2529 12.3978 23.4109 12 23.4109H3C2.60218 23.4109 2.22064 23.2529 1.93934 22.9715C1.65804 22.6902 1.5 22.3087 1.5 21.9109V3.91089C1.5 3.51306 1.65804 3.13153 1.93934 2.85023C2.22064 2.56892 2.60218 2.41089 3 2.41089H12ZM3 0.910889C2.20435 0.910889 1.44129 1.22696 0.87868 1.78957C0.31607 2.35218 0 3.11524 0 3.91089V21.9109C0 22.7065 0.31607 23.4696 0.87868 24.0322C1.44129 24.5948 2.20435 24.9109 3 24.9109H12C12.7956 24.9109 13.5587 24.5948 14.1213 24.0322C14.6839 23.4696 15 22.7065 15 21.9109V3.91089C15 3.11524 14.6839 2.35218 14.1213 1.78957C13.5587 1.22696 12.7956 0.910889 12 0.910889H3Z" fill="white"/>
<path d="M7.5 21.9109C7.89782 21.9109 8.27936 21.7529 8.56066 21.4715C8.84196 21.1902 9 20.8087 9 20.4109C9 20.0131 8.84196 19.6315 8.56066 19.3502C8.27936 19.0689 7.89782 18.9109 7.5 18.9109C7.10218 18.9109 6.72064 19.0689 6.43934 19.3502C6.15804 19.6315 6 20.0131 6 20.4109C6 20.8087 6.15804 21.1902 6.43934 21.4715C6.72064 21.7529 7.10218 21.9109 7.5 21.9109Z" fill="white"/>
</svg>
