<svg width="20" height="21" viewBox="0 0 20 21" fill="none" xmlns="http://www.w3.org/2000/svg">
<g clip-path="url(#clip0_941_4874)">
<path d="M0 2.44165C0 2.27589 0.065848 2.11692 0.183058 1.99971C0.300269 1.8825 0.45924 1.81665 0.625 1.81665H2.5C2.63941 1.81669 2.77481 1.86334 2.88466 1.94918C2.99452 2.03502 3.07251 2.15513 3.10625 2.2904L3.6125 4.31665H18.125C18.2168 4.31674 18.3074 4.33703 18.3904 4.37609C18.4735 4.41515 18.5469 4.47202 18.6055 4.54265C18.6641 4.61329 18.7064 4.69596 18.7294 4.7848C18.7524 4.87363 18.7556 4.96645 18.7388 5.05665L16.8638 15.0567C16.8369 15.1999 16.7609 15.3292 16.6489 15.4223C16.5368 15.5155 16.3957 15.5665 16.25 15.5667H5C4.85429 15.5665 4.71321 15.5155 4.60114 15.4223C4.48907 15.3292 4.41306 15.1999 4.38625 15.0567L2.5125 5.0754L2.0125 3.06665H0.625C0.45924 3.06665 0.300269 3.0008 0.183058 2.88359C0.065848 2.76638 0 2.60741 0 2.44165ZM6.25 15.5667C5.58696 15.5667 4.95107 15.83 4.48223 16.2989C4.01339 16.7677 3.75 17.4036 3.75 18.0667C3.75 18.7297 4.01339 19.3656 4.48223 19.8344C4.95107 20.3033 5.58696 20.5667 6.25 20.5667C6.91304 20.5667 7.54893 20.3033 8.01777 19.8344C8.48661 19.3656 8.75 18.7297 8.75 18.0667C8.75 17.4036 8.48661 16.7677 8.01777 16.2989C7.54893 15.83 6.91304 15.5667 6.25 15.5667ZM15 15.5667C14.337 15.5667 13.7011 15.83 13.2322 16.2989C12.7634 16.7677 12.5 17.4036 12.5 18.0667C12.5 18.7297 12.7634 19.3656 13.2322 19.8344C13.7011 20.3033 14.337 20.5667 15 20.5667C15.663 20.5667 16.2989 20.3033 16.7678 19.8344C17.2366 19.3656 17.5 18.7297 17.5 18.0667C17.5 17.4036 17.2366 16.7677 16.7678 16.2989C16.2989 15.83 15.663 15.5667 15 15.5667ZM6.25 16.8167C6.58152 16.8167 6.89946 16.9483 7.13388 17.1828C7.3683 17.4172 7.5 17.7351 7.5 18.0667C7.5 18.3982 7.3683 18.7161 7.13388 18.9505C6.89946 19.185 6.58152 19.3167 6.25 19.3167C5.91848 19.3167 5.60054 19.185 5.36612 18.9505C5.1317 18.7161 5 18.3982 5 18.0667C5 17.7351 5.1317 17.4172 5.36612 17.1828C5.60054 16.9483 5.91848 16.8167 6.25 16.8167ZM15 16.8167C15.3315 16.8167 15.6495 16.9483 15.8839 17.1828C16.1183 17.4172 16.25 17.7351 16.25 18.0667C16.25 18.3982 16.1183 18.7161 15.8839 18.9505C15.6495 19.185 15.3315 19.3167 15 19.3167C14.6685 19.3167 14.3505 19.185 14.1161 18.9505C13.8817 18.7161 13.75 18.3982 13.75 18.0667C13.75 17.7351 13.8817 17.4172 14.1161 17.1828C14.3505 16.9483 14.6685 16.8167 15 16.8167Z" fill="#1B1B1B"/>
</g>
<defs>
<clipPath id="clip0_941_4874">
<rect width="20" height="20" fill="white" transform="translate(0 0.56665)"/>
</clipPath>
</defs>
</svg>
