<svg width="25" height="25" viewBox="0 0 25 25" fill="none" xmlns="http://www.w3.org/2000/svg">
<path d="M17 9.91089C17 11.1044 16.5259 12.249 15.682 13.0929C14.8381 13.9368 13.6935 14.4109 12.5 14.4109C11.3065 14.4109 10.1619 13.9368 9.31802 13.0929C8.47411 12.249 8 11.1044 8 9.91089C8 8.71741 8.47411 7.57282 9.31802 6.72891C10.1619 5.88499 11.3065 5.41089 12.5 5.41089C13.6935 5.41089 14.8381 5.88499 15.682 6.72891C16.5259 7.57282 17 8.71741 17 9.91089Z" fill="#BDBDBD"/>
<path fill-rule="evenodd" clip-rule="evenodd" d="M0.5 12.9109C0.5 9.72829 1.76428 6.67604 4.01472 4.42561C6.26515 2.17517 9.3174 0.910889 12.5 0.910889C15.6826 0.910889 18.7348 2.17517 20.9853 4.42561C23.2357 6.67604 24.5 9.72829 24.5 12.9109C24.5 16.0935 23.2357 19.1457 20.9853 21.3962C18.7348 23.6466 15.6826 24.9109 12.5 24.9109C9.3174 24.9109 6.26515 23.6466 4.01472 21.3962C1.76428 19.1457 0.5 16.0935 0.5 12.9109ZM12.5 2.41089C10.5227 2.41099 8.58555 2.96943 6.9116 4.02193C5.23766 5.07443 3.89492 6.5782 3.03795 8.36018C2.18097 10.1422 1.84458 12.1299 2.0675 14.0946C2.29042 16.0594 3.06358 17.9212 4.298 19.4659C5.363 17.7499 7.7075 15.9109 12.5 15.9109C17.2925 15.9109 19.6355 17.7484 20.702 19.4659C21.9364 17.9212 22.7096 16.0594 22.9325 14.0946C23.1554 12.1299 22.819 10.1422 21.9621 8.36018C21.1051 6.5782 19.7623 5.07443 18.0884 4.02193C16.4144 2.96943 14.4773 2.41099 12.5 2.41089Z" fill="#BDBDBD"/>
</svg>
