<svg width="12" height="15" viewBox="0 0 12 15" fill="none" xmlns="http://www.w3.org/2000/svg">
<path d="M6.17992 7.44132C5.44404 7.44132 4.72468 7.2231 4.11282 6.81427C3.50096 6.40543 3.02408 5.82434 2.74247 5.14447C2.46087 4.4646 2.38719 3.7165 2.53076 2.99476C2.67433 2.27302 3.0287 1.61006 3.54905 1.08972C4.0694 0.569385 4.73237 0.215033 5.45411 0.0714816C6.17585 -0.0720701 6.92396 0.00162461 7.60382 0.283247C8.28367 0.564869 8.86476 1.04177 9.27358 1.65364C9.6824 2.26551 9.90059 2.98487 9.90057 3.72075C9.89943 4.70717 9.50707 5.65286 8.80955 6.35036C8.11204 7.04786 7.16634 7.4402 6.17992 7.44132ZM6.17992 0.937595C5.62946 0.937595 5.09137 1.10083 4.63368 1.40664C4.17599 1.71246 3.81927 2.14713 3.60862 2.65568C3.39797 3.16424 3.34285 3.72384 3.45024 4.26372C3.55763 4.8036 3.8227 5.29951 4.21193 5.68874C4.60116 6.07797 5.09707 6.34304 5.63695 6.45043C6.17683 6.55782 6.73643 6.5027 7.24498 6.29205C7.75354 6.0814 8.18821 5.72468 8.49403 5.26699C8.79984 4.8093 8.96307 4.27121 8.96307 3.72075C8.96223 2.98287 8.66873 2.27546 8.14697 1.7537C7.62521 1.23193 6.9178 0.938439 6.17992 0.937595Z" fill="#72227D"/>
<path d="M11.0577 14.2703H1.30209C1.17777 14.2703 1.05854 14.2209 0.970637 14.133C0.882729 14.0451 0.833344 13.9259 0.833344 13.8016V11.8503C0.833344 10.4324 1.39664 9.07243 2.39932 8.06976C3.40199 7.06708 4.76191 6.50378 6.17991 6.50378C7.5979 6.50378 8.95782 7.06708 9.9605 8.06976C10.9632 9.07243 11.5265 10.4324 11.5265 11.8503V13.8016C11.5265 13.9259 11.4771 14.0451 11.3892 14.133C11.3013 14.2209 11.182 14.2703 11.0577 14.2703ZM1.77084 13.3328H10.589V11.8503C10.589 10.681 10.1244 9.55953 9.29758 8.73267C8.47072 7.90581 7.34926 7.44128 6.17991 7.44128C5.01055 7.44128 3.88909 7.90581 3.06223 8.73267C2.23537 9.55953 1.77084 10.681 1.77084 11.8503V13.3328Z" fill="#72227D"/>
</svg>
