<svg width="20" height="21" viewBox="0 0 20 21" fill="none" xmlns="http://www.w3.org/2000/svg">
<g clip-path="url(#clip0_337_15815)">
<path d="M16.0673 0.749276C15.9501 0.632106 15.7911 0.566284 15.6254 0.566284C15.4597 0.566284 15.3007 0.632106 15.1835 0.749276L13.1248 2.80803L17.7585 7.44178L19.8173 5.38428C19.8755 5.32622 19.9216 5.25725 19.9531 5.18132C19.9847 5.10539 20.0009 5.02399 20.0009 4.94178C20.0009 4.85957 19.9847 4.77817 19.9531 4.70223C19.9216 4.6263 19.8755 4.55733 19.8173 4.49928L16.0673 0.749276ZM16.8748 8.32553L12.241 3.69178L4.11601 11.8168H4.37476C4.54052 11.8168 4.69949 11.8826 4.8167 11.9998C4.93391 12.117 4.99976 12.276 4.99976 12.4418V13.0668H5.62476C5.79052 13.0668 5.94949 13.1326 6.0667 13.2498C6.18391 13.367 6.24976 13.526 6.24976 13.6918V14.3168H6.87476C7.04052 14.3168 7.19949 14.3826 7.3167 14.4998C7.43391 14.617 7.49976 14.776 7.49976 14.9418V15.5668H8.12476C8.29052 15.5668 8.44949 15.6326 8.5667 15.7498C8.68391 15.867 8.74976 16.026 8.74976 16.1918V16.4505L16.8748 8.32553ZM7.53976 17.6605C7.51345 17.5906 7.49991 17.5165 7.49976 17.4418V16.8168H6.87476C6.709 16.8168 6.55003 16.7509 6.43282 16.6337C6.31561 16.5165 6.24976 16.3575 6.24976 16.1918V15.5668H5.62476C5.459 15.5668 5.30003 15.5009 5.18282 15.3837C5.06561 15.2665 4.99976 15.1075 4.99976 14.9418V14.3168H4.37476C4.209 14.3168 4.05003 14.2509 3.93282 14.1337C3.81561 14.0165 3.74976 13.8575 3.74976 13.6918V13.0668H3.12476C3.05003 13.0667 2.97594 13.0531 2.90601 13.0268L2.68226 13.2493C2.62269 13.3093 2.57592 13.3807 2.54476 13.4593L0.0447576 19.7093C-0.000705742 19.8229 -0.0118351 19.9473 0.0127492 20.0671C0.0373335 20.187 0.0965504 20.297 0.183059 20.3835C0.269567 20.47 0.379562 20.5292 0.499407 20.5538C0.619252 20.5784 0.743678 20.5672 0.857258 20.5218L7.10726 18.0218C7.18584 17.9906 7.25728 17.9438 7.31726 17.8843L7.53976 17.6618V17.6605Z" fill="#1B1B1B"/>
</g>
<defs>
<clipPath id="clip0_337_15815">
<rect width="20" height="20" fill="white" transform="translate(0 0.56665)"/>
</clipPath>
</defs>
</svg>
