<svg width="25" height="25" viewBox="0 0 25 25" fill="none" xmlns="http://www.w3.org/2000/svg">
<g clip-path="url(#clip0_876_5261)">
<path d="M17 2.41089C17.3978 2.41089 17.7794 2.56892 18.0607 2.85023C18.342 3.13153 18.5 3.51306 18.5 3.91089V21.9109C18.5 22.3087 18.342 22.6902 18.0607 22.9715C17.7794 23.2529 17.3978 23.4109 17 23.4109H8C7.60218 23.4109 7.22064 23.2529 6.93934 22.9715C6.65804 22.6902 6.5 22.3087 6.5 21.9109V3.91089C6.5 3.51306 6.65804 3.13153 6.93934 2.85023C7.22064 2.56892 7.60218 2.41089 8 2.41089H17ZM8 0.910889C7.20435 0.910889 6.44129 1.22696 5.87868 1.78957C5.31607 2.35218 5 3.11524 5 3.91089V21.9109C5 22.7065 5.31607 23.4696 5.87868 24.0322C6.44129 24.5948 7.20435 24.9109 8 24.9109H17C17.7956 24.9109 18.5587 24.5948 19.1213 24.0322C19.6839 23.4696 20 22.7065 20 21.9109V3.91089C20 3.11524 19.6839 2.35218 19.1213 1.78957C18.5587 1.22696 17.7956 0.910889 17 0.910889H8Z" fill="white"/>
<path d="M12.5 21.9109C12.8978 21.9109 13.2794 21.7529 13.5607 21.4715C13.842 21.1902 14 20.8087 14 20.4109C14 20.0131 13.842 19.6315 13.5607 19.3502C13.2794 19.0689 12.8978 18.9109 12.5 18.9109C12.1022 18.9109 11.7206 19.0689 11.4393 19.3502C11.158 19.6315 11 20.0131 11 20.4109C11 20.8087 11.158 21.1902 11.4393 21.4715C11.7206 21.7529 12.1022 21.9109 12.5 21.9109Z" fill="white"/>
</g>
<defs>
<clipPath id="clip0_876_5261">
<rect width="24" height="24" fill="white" transform="translate(0.5 0.910889)"/>
</clipPath>
</defs>
</svg>
