<svg width="20" height="21" viewBox="0 0 20 21" fill="none" xmlns="http://www.w3.org/2000/svg">
<g clip-path="url(#clip0_941_4868)">
<path d="M3.75 3.06665C3.75 2.40361 4.01339 1.76772 4.48223 1.29888C4.95107 0.830043 5.58696 0.56665 6.25 0.56665L13.75 0.56665C14.413 0.56665 15.0489 0.830043 15.5178 1.29888C15.9866 1.76772 16.25 2.40361 16.25 3.06665V18.0667C16.25 18.7297 15.9866 19.3656 15.5178 19.8344C15.0489 20.3033 14.413 20.5667 13.75 20.5667H6.25C5.58696 20.5667 4.95107 20.3033 4.48223 19.8344C4.01339 19.3656 3.75 18.7297 3.75 18.0667V3.06665ZM11.25 16.8167C11.25 16.4851 11.1183 16.1672 10.8839 15.9328C10.6495 15.6983 10.3315 15.5667 10 15.5667C9.66848 15.5667 9.35054 15.6983 9.11612 15.9328C8.8817 16.1672 8.75 16.4851 8.75 16.8167C8.75 17.1482 8.8817 17.4661 9.11612 17.7005C9.35054 17.935 9.66848 18.0667 10 18.0667C10.3315 18.0667 10.6495 17.935 10.8839 17.7005C11.1183 17.4661 11.25 17.1482 11.25 16.8167Z" fill="#1B1B1B"/>
</g>
<defs>
<clipPath id="clip0_941_4868">
<rect width="20" height="20" fill="white" transform="translate(0 0.56665)"/>
</clipPath>
</defs>
</svg>
