<svg width="20" height="21" viewBox="0 0 20 21" fill="none" xmlns="http://www.w3.org/2000/svg">
<path d="M3.89 5.1229C3.86472 4.86261 3.89417 4.59991 3.97646 4.35168C4.05874 4.10345 4.19204 3.87517 4.3678 3.68152C4.54356 3.48787 4.75788 3.33313 4.99699 3.22724C5.23611 3.12135 5.49474 3.06665 5.75625 3.06665H8.75C8.91576 3.06665 9.07473 3.1325 9.19194 3.24971C9.30915 3.36692 9.375 3.52589 9.375 3.69165V4.16915C9.375 5.03915 8.75375 5.64665 8.285 6.0054C8.22858 6.04549 8.17988 6.09547 8.14125 6.1529C8.13499 6.16266 8.12995 6.17316 8.12625 6.18415L8.125 6.19165V6.1954L8.12875 6.2079C8.13375 6.2204 8.14625 6.2429 8.17375 6.27415C8.26941 6.37617 8.38405 6.45854 8.51125 6.51665C8.8625 6.69165 9.3875 6.81665 10 6.81665C10.615 6.81665 11.14 6.69165 11.4875 6.51665C11.6151 6.45868 11.7302 6.3763 11.8263 6.27415C11.8446 6.25408 11.8598 6.23132 11.8713 6.20665L11.875 6.19415V6.18415C11.8713 6.17315 11.8663 6.16266 11.86 6.1529C11.8214 6.09547 11.7727 6.04549 11.7163 6.0054C11.2475 5.64665 10.6263 5.03915 10.6263 4.16915V3.69165C10.6263 3.52611 10.6919 3.36732 10.8089 3.25015C10.9258 3.13298 11.0845 3.06698 11.25 3.06665H14.2438C14.5053 3.06665 14.7639 3.12135 15.003 3.22724C15.2421 3.33313 15.4564 3.48787 15.6322 3.68152C15.808 3.87517 15.9413 4.10345 16.0235 4.35168C16.1058 4.59991 16.1353 4.86261 16.11 5.1229L15.8063 8.69165H16.1025C16.3463 8.69165 16.6275 8.5079 16.9463 8.09165C17.2087 7.74915 17.6063 7.44165 18.125 7.44165C18.835 7.44165 19.3088 8.0004 19.5675 8.51915C19.8463 9.0754 20 9.8004 20 10.5667C20 11.3329 19.8463 12.0579 19.5675 12.6142C19.3088 13.1329 18.835 13.6917 18.125 13.6917C17.6063 13.6917 17.2087 13.3841 16.9463 13.0416C16.6275 12.6254 16.3463 12.4417 16.1025 12.4417H15.8063L16.11 16.0104C16.1353 16.2707 16.1058 16.5334 16.0235 16.7816C15.9413 17.0299 15.808 17.2581 15.6322 17.4518C15.4564 17.6454 15.2421 17.8002 15.003 17.9061C14.7639 18.012 14.5053 18.0667 14.2438 18.0667H11.25C11.0842 18.0667 10.9253 18.0008 10.8081 17.8836C10.6908 17.7664 10.625 17.6074 10.625 17.4417V16.9642C10.625 16.0942 11.2463 15.4867 11.715 15.1279C11.7714 15.0878 11.8201 15.0378 11.8588 14.9804C11.865 14.9706 11.8701 14.9601 11.8737 14.9492L11.875 14.9417V14.9379L11.8713 14.9254C11.8597 14.9012 11.8445 14.8788 11.8263 14.8591C11.7306 14.7571 11.616 14.6747 11.4888 14.6166C11.1375 14.4417 10.6125 14.3167 10 14.3167C9.38625 14.3167 8.86 14.4417 8.5125 14.6166C8.38483 14.6746 8.26975 14.757 8.17375 14.8591C8.15541 14.8792 8.14023 14.902 8.12875 14.9267L8.125 14.9392V14.9417L8.12625 14.9492C8.12995 14.9601 8.13499 14.9706 8.14125 14.9804C8.16125 15.0142 8.20375 15.0654 8.285 15.1279C8.75375 15.4867 9.375 16.0942 9.375 16.9642V17.4417C9.375 17.6074 9.30915 17.7664 9.19194 17.8836C9.07473 18.0008 8.91576 18.0667 8.75 18.0667H5.75625C5.49474 18.0667 5.23611 18.012 4.99699 17.9061C4.75788 17.8002 4.54356 17.6454 4.3678 17.4518C4.19204 17.2581 4.05874 17.0299 3.97646 16.7816C3.89417 16.5334 3.86472 16.2707 3.89 16.0104L4.195 12.4417H3.8975C3.65375 12.4417 3.3725 12.6254 3.05375 13.0416C2.79125 13.3841 2.39375 13.6917 1.875 13.6917C1.165 13.6917 0.69125 13.1329 0.4325 12.6142C0.15375 12.0579 0 11.3329 0 10.5667C0 9.8004 0.15375 9.0754 0.4325 8.51915C0.69125 8.0004 1.165 7.44165 1.875 7.44165C2.39375 7.44165 2.79125 7.74915 3.05375 8.09165C3.3725 8.5079 3.65375 8.69165 3.8975 8.69165H4.195L3.89 5.1229Z" fill="#1B1B1B"/>
</svg>
