<svg width="20" height="21" viewBox="0 0 20 21" fill="none" xmlns="http://www.w3.org/2000/svg">
<path d="M13.75 1.99522C13.75 1.61634 13.8817 1.25298 14.1161 0.985069C14.3505 0.71716 14.6685 0.56665 15 0.56665H17.5C17.8315 0.56665 18.1495 0.71716 18.3839 0.985069C18.6183 1.25298 18.75 1.61634 18.75 1.99522V19.1381H19.375C19.5408 19.1381 19.6997 19.2133 19.8169 19.3473C19.9342 19.4812 20 19.6629 20 19.8524C20 20.0418 19.9342 20.2235 19.8169 20.3574C19.6997 20.4914 19.5408 20.5667 19.375 20.5667H0.625C0.45924 20.5667 0.300269 20.4914 0.183058 20.3574C0.065848 20.2235 0 20.0418 0 19.8524C0 19.6629 0.065848 19.4812 0.183058 19.3473C0.300269 19.2133 0.45924 19.1381 0.625 19.1381H1.25V14.8524C1.25 14.4735 1.3817 14.1101 1.61612 13.8422C1.85054 13.5743 2.16848 13.4238 2.5 13.4238H5C5.33152 13.4238 5.64946 13.5743 5.88388 13.8422C6.1183 14.1101 6.25 14.4735 6.25 14.8524V19.1381H7.5V9.13808C7.5 8.7592 7.6317 8.39584 7.86612 8.12793C8.10054 7.86002 8.41848 7.70951 8.75 7.70951H11.25C11.5815 7.70951 11.8995 7.86002 12.1339 8.12793C12.3683 8.39584 12.5 8.7592 12.5 9.13808V19.1381H13.75V1.99522Z" fill="#1B1B1B"/>
</svg>
