<svg width="30" height="32" viewBox="0 0 30 32" fill="none" xmlns="http://www.w3.org/2000/svg">
<path d="M30 16.0667C30 20.1775 28.4196 24.12 25.6066 27.0268C22.7936 29.9336 18.9782 31.5667 15 31.5667C11.0218 31.5667 7.20644 29.9336 4.3934 27.0268C1.58035 24.12 0 20.1775 0 16.0667C0 11.9558 1.58035 8.01331 4.3934 5.1065C7.20644 2.19968 11.0218 0.56665 15 0.56665C18.9782 0.56665 22.7936 2.19968 25.6066 5.1065C28.4196 8.01331 30 11.9558 30 16.0667ZM15.5381 12.0095C14.0794 12.6373 11.1619 13.9354 6.78938 15.9039C6.08063 16.1945 5.7075 16.4813 5.67375 16.7603C5.6175 17.2311 6.18938 17.4171 6.9675 17.6709L7.29563 17.7775C8.06063 18.0352 9.09188 18.3355 9.62625 18.3471C10.1137 18.3587 10.6556 18.1533 11.2537 17.7271C15.3394 14.877 17.4488 13.4375 17.58 13.4065C17.6737 13.3832 17.805 13.3561 17.8913 13.4375C17.9794 13.5169 17.97 13.67 17.9606 13.7107C17.9044 13.9606 15.66 16.1151 14.4994 17.2311C14.1375 17.5798 13.8806 17.8259 13.8281 17.8821C13.7125 18.0042 13.595 18.1243 13.4756 18.2425C12.7631 18.9516 12.2306 19.4825 13.5037 20.3505C14.1169 20.769 14.6081 21.1119 15.0975 21.4568C15.63 21.8326 16.1625 22.2066 16.8525 22.6755C17.0269 22.7917 17.1956 22.9177 17.3588 23.0378C17.9794 23.495 18.54 23.9058 19.2281 23.8399C19.6294 23.8012 20.0438 23.4137 20.2537 22.2512C20.7506 19.5057 21.7275 13.5595 21.9525 11.1086C21.9662 10.9048 21.9581 10.7002 21.9281 10.4983C21.9105 10.3354 21.8342 10.1853 21.7144 10.0778C21.5438 9.95614 21.3404 9.8931 21.1331 9.89765C20.5706 9.90734 19.7025 10.2193 15.5381 12.0095Z" fill="#1B1B1B"/>
</svg>
