<svg width="32" height="33" viewBox="0 0 32 33" fill="none" xmlns="http://www.w3.org/2000/svg">
<g clip-path="url(#clip0_253_12992)">
<path d="M32 16.8193C32 21.0628 30.3143 25.1325 27.3137 28.133C24.3131 31.1336 20.2435 32.8193 16 32.8193C11.7565 32.8193 7.68687 31.1336 4.68629 28.133C1.68571 25.1325 0 21.0628 0 16.8193C0 12.5759 1.68571 8.50621 4.68629 5.50563C7.68687 2.50505 11.7565 0.819336 16 0.819336C20.2435 0.819336 24.3131 2.50505 27.3137 5.50563C30.3143 8.50621 32 12.5759 32 16.8193ZM16.574 12.6313C15.018 13.2793 11.906 14.6193 7.242 16.6513C6.486 16.9513 6.088 17.2473 6.052 17.5353C5.992 18.0213 6.602 18.2133 7.432 18.4753L7.782 18.5853C8.598 18.8513 9.698 19.1613 10.268 19.1733C10.788 19.1853 11.366 18.9733 12.004 18.5333C16.362 15.5913 18.612 14.1053 18.752 14.0733C18.852 14.0493 18.992 14.0213 19.084 14.1053C19.178 14.1873 19.168 14.3453 19.158 14.3873C19.098 14.6453 16.704 16.8693 15.466 18.0213C15.08 18.3813 14.806 18.6353 14.75 18.6933C14.6267 18.8194 14.5013 18.9434 14.374 19.0653C13.614 19.7973 13.046 20.3453 14.404 21.2413C15.058 21.6733 15.582 22.0273 16.104 22.3833C16.672 22.7713 17.24 23.1573 17.976 23.6413C18.162 23.7613 18.342 23.8913 18.516 24.0153C19.178 24.4873 19.776 24.9113 20.51 24.8433C20.938 24.8033 21.38 24.4033 21.604 23.2033C22.134 20.3693 23.176 14.2313 23.416 11.7013C23.4306 11.491 23.4219 11.2797 23.39 11.0713C23.3712 10.9032 23.2898 10.7483 23.162 10.6373C22.98 10.5117 22.7631 10.4466 22.542 10.4513C21.942 10.4613 21.016 10.7833 16.574 12.6313Z" fill="#1B1B1B"/>
</g>
<defs>
<clipPath id="clip0_253_12992">
<rect width="32" height="32" fill="white" transform="translate(0 0.819336)"/>
</clipPath>
</defs>
</svg>
