<svg width="32" height="33" viewBox="0 0 32 33" fill="none" xmlns="http://www.w3.org/2000/svg">
<g clip-path="url(#clip0_156_10219)">
<path d="M32 16.0226C32 20.266 30.3143 24.3357 27.3137 27.3363C24.3131 30.3369 20.2435 32.0226 16 32.0226C11.7565 32.0226 7.68687 30.3369 4.68629 27.3363C1.68571 24.3357 0 20.266 0 16.0226C0 11.7791 1.68571 7.70946 4.68629 4.70887C7.68687 1.70829 11.7565 0.022583 16 0.022583C20.2435 0.022583 24.3131 1.70829 27.3137 4.70887C30.3143 7.70946 32 11.7791 32 16.0226ZM16.574 11.8346C15.018 12.4826 11.906 13.8226 7.242 15.8546C6.486 16.1546 6.088 16.4506 6.052 16.7386C5.992 17.2246 6.602 17.4166 7.432 17.6786L7.782 17.7886C8.598 18.0546 9.698 18.3646 10.268 18.3766C10.788 18.3886 11.366 18.1766 12.004 17.7366C16.362 14.7946 18.612 13.3086 18.752 13.2766C18.852 13.2526 18.992 13.2246 19.084 13.3086C19.178 13.3906 19.168 13.5486 19.158 13.5906C19.098 13.8486 16.704 16.0726 15.466 17.2246C15.08 17.5846 14.806 17.8386 14.75 17.8966C14.6267 18.0226 14.5013 18.1466 14.374 18.2686C13.614 19.0006 13.046 19.5486 14.404 20.4446C15.058 20.8766 15.582 21.2306 16.104 21.5866C16.672 21.9746 17.24 22.3606 17.976 22.8446C18.162 22.9646 18.342 23.0946 18.516 23.2186C19.178 23.6906 19.776 24.1146 20.51 24.0466C20.938 24.0066 21.38 23.6066 21.604 22.4066C22.134 19.5726 23.176 13.4346 23.416 10.9046C23.4306 10.6943 23.4219 10.483 23.39 10.2746C23.3712 10.1064 23.2898 9.9515 23.162 9.84058C22.98 9.71496 22.7631 9.64988 22.542 9.65458C21.942 9.66458 21.016 9.98658 16.574 11.8346Z" fill="white"/>
</g>
<defs>
<clipPath id="clip0_156_10219">
<rect width="32" height="32" fill="white" transform="translate(0 0.022583)"/>
</clipPath>
</defs>
</svg>
