<svg width="20" height="21" viewBox="0 0 20 21" fill="none" xmlns="http://www.w3.org/2000/svg">
<g clip-path="url(#clip0_337_7109)">
<path fill-rule="evenodd" clip-rule="evenodd" d="M2.35635 1.20522C2.57507 0.986829 2.8377 0.817416 3.12685 0.708205C3.41599 0.598995 3.72504 0.552481 4.03352 0.571746C4.342 0.591012 4.64287 0.675616 4.91618 0.819953C5.18949 0.96429 5.429 1.16506 5.61885 1.40897L7.8626 4.29147C8.27385 4.82022 8.41885 5.50897 8.25635 6.15897L7.5726 8.89647C7.53725 9.03825 7.53916 9.18677 7.57814 9.32761C7.61713 9.46844 7.69187 9.5968 7.7951 9.70022L10.8664 12.7715C10.9699 12.8749 11.0985 12.9498 11.2395 12.9888C11.3806 13.0278 11.5294 13.0295 11.6714 12.994L14.4076 12.3102C14.7284 12.23 15.0632 12.2238 15.3867 12.292C15.7102 12.3602 16.014 12.5011 16.2751 12.704L19.1576 14.9465C20.1939 15.7527 20.2889 17.284 19.3614 18.2102L18.0689 19.5027C17.1439 20.4277 15.7614 20.834 14.4726 20.3802C11.1741 19.2196 8.17919 17.3313 5.7101 14.8552C3.23421 12.3865 1.34586 9.39204 0.1851 6.09397C-0.2674 4.80647 0.13885 3.42272 1.06385 2.49772L2.35635 1.20522Z" fill="#1B1B1B"/>
</g>
<defs>
<clipPath id="clip0_337_7109">
<rect width="20" height="20" fill="white" transform="translate(0 0.56665)"/>
</clipPath>
</defs>
</svg>
