<svg width="31" height="26" viewBox="0 0 31 26" fill="none" xmlns="http://www.w3.org/2000/svg">
<path d="M9.73787 25.6292C21.4365 25.6292 27.8361 15.9358 27.8361 7.54453C27.8361 7.27328 27.8361 6.99815 27.8244 6.7269C29.0704 5.82497 30.1457 4.70832 31 3.42928C29.8362 3.94242 28.6028 4.28062 27.3401 4.4329C28.6702 3.63782 29.6665 2.38684 30.1436 0.912463C28.8939 1.65283 27.5261 2.17256 26.1001 2.4489C25.1414 1.42788 23.8727 0.751491 22.4907 0.524493C21.1086 0.297495 19.6903 0.532561 18.4553 1.19328C17.2204 1.854 16.2378 2.90349 15.6597 4.1792C15.0817 5.45492 14.9404 6.88564 15.2578 8.24978C12.7289 8.12297 10.2548 7.46599 7.99615 6.32146C5.73746 5.17693 3.74458 3.57041 2.14675 1.60609C1.3356 3.00706 1.08805 4.66424 1.45438 6.2411C1.8207 7.81797 2.77344 9.1963 4.11912 10.0962C3.11073 10.062 2.12451 9.79117 1.24 9.30571V9.3929C1.24174 10.8605 1.75016 12.2825 2.67932 13.4186C3.60848 14.5546 4.90139 15.335 6.3395 15.6278C5.79363 15.7782 5.22976 15.8531 4.66356 15.8506C4.26441 15.8518 3.86605 15.8148 3.47394 15.7402C3.8804 17.0035 4.67184 18.1081 5.73742 18.8992C6.80299 19.6903 8.08932 20.1283 9.41625 20.1518C7.16208 21.9223 4.37759 22.8826 1.51125 22.8779C1.00618 22.88 0.50147 22.8509 0 22.7907C2.90918 24.6454 6.28776 25.6302 9.73787 25.6292Z" fill="#1B1B1B"/>
</svg>
