<svg width="32" height="33" viewBox="0 0 32 33" fill="none" xmlns="http://www.w3.org/2000/svg">
<path d="M10.052 30.0226C22.128 30.0226 28.734 20.0166 28.734 11.3546C28.734 11.0746 28.734 10.7906 28.722 10.5106C30.0081 9.5796 31.1181 8.42693 32 7.10663C30.7986 7.63633 29.5255 7.98544 28.222 8.14263C29.5951 7.3219 30.6234 6.03056 31.116 4.50863C29.826 5.27287 28.414 5.80937 26.942 6.09463C25.9524 5.04067 24.6428 4.34246 23.2162 4.10814C21.7895 3.87382 20.3254 4.11647 19.0507 4.7985C17.7759 5.48053 16.7616 6.56388 16.1649 7.88075C15.5682 9.19761 15.4224 10.6745 15.75 12.0826C13.1395 11.9517 10.5856 11.2736 8.25409 10.0921C5.92254 8.91066 3.86537 7.25231 2.216 5.22463C1.37868 6.67079 1.12315 8.38143 1.50129 10.0092C1.87944 11.6369 2.86291 13.0597 4.252 13.9886C3.21108 13.9533 2.19304 13.6737 1.28 13.1726V13.2626C1.28179 14.7776 1.80661 16.2455 2.76575 17.4181C3.72488 18.5908 5.0595 19.3964 6.544 19.6986C5.98053 19.8539 5.39846 19.9312 4.814 19.9286C4.40197 19.9299 3.99076 19.8917 3.586 19.8146C4.00557 21.1187 4.82255 22.259 5.92249 23.0756C7.02244 23.8922 8.35027 24.3443 9.72 24.3686C7.39311 26.1962 4.5188 27.1874 1.56 27.1826C1.03864 27.1848 0.517646 27.1548 0 27.0926C3.00303 29.0072 6.4906 30.0237 10.052 30.0226Z" fill="white"/>
</svg>
