<svg width="176" height="21" viewBox="0 0 176 21" fill="none" xmlns="http://www.w3.org/2000/svg">
<g clip-path="url(#clip0_1752_11868)">
<path d="M16.7 6.71838C16.2736 6.71838 15.8647 6.7919 15.5632 6.92275C15.2616 7.05361 15.0923 7.23109 15.0923 7.41615V14.0523C15.078 14.1479 15.109 14.2438 15.1835 14.3341C15.258 14.4243 15.3743 14.5069 15.5254 14.5769C15.6764 14.6468 15.8588 14.7025 16.0614 14.7406C16.2641 14.7788 16.4826 14.7984 16.7034 14.7984C16.9242 14.7984 17.1427 14.7788 17.3453 14.7406C17.548 14.7025 17.7304 14.6468 17.8814 14.5769C18.0325 14.5069 18.1488 14.4243 18.2233 14.3341C18.2978 14.2438 18.3288 14.1479 18.3145 14.0523V7.41615C18.3127 7.23082 18.1418 7.05335 17.8392 6.92257C17.5367 6.7918 17.127 6.71838 16.7 6.71838Z" fill="#68D457"/>
<path d="M36.3728 6.71838C35.9458 6.71838 35.5361 6.7918 35.2336 6.92257C34.931 7.05335 34.7601 7.23082 34.7583 7.41615V14.0523C34.744 14.1479 34.775 14.2438 34.8495 14.3341C34.924 14.4243 35.0404 14.5069 35.1914 14.5769C35.3424 14.6468 35.5248 14.7025 35.7275 14.7406C35.9301 14.7788 36.1486 14.7984 36.3694 14.7984C36.5902 14.7984 36.8087 14.7788 37.0114 14.7406C37.214 14.7025 37.3964 14.6468 37.5475 14.5769C37.6985 14.5069 37.8148 14.4243 37.8893 14.3341C37.9638 14.2438 37.9949 14.1479 37.9805 14.0523V7.41615C37.9805 7.23109 37.8112 7.05361 37.5097 6.92275C37.2081 6.7919 36.7992 6.71838 36.3728 6.71838Z" fill="#68D457"/>
<path d="M51.0863 6.71838C50.6599 6.71838 50.2509 6.7919 49.9494 6.92275C49.6479 7.05361 49.4785 7.23109 49.4785 7.41615V14.0523C49.4785 14.2374 49.6479 14.4148 49.9494 14.5457C50.2509 14.6766 50.6599 14.7501 51.0863 14.7501C51.5127 14.7501 51.9216 14.6766 52.2231 14.5457C52.5246 14.4148 52.694 14.2374 52.694 14.0523V7.41615C52.694 7.23109 52.5246 7.05361 52.2231 6.92275C51.9216 6.7919 51.5127 6.71838 51.0863 6.71838Z" fill="#68D457"/>
<path d="M60.9095 6.71838C60.4831 6.71838 60.0742 6.7919 59.7727 6.92275C59.4712 7.05361 59.3018 7.23109 59.3018 7.41615V14.0523C59.3018 14.2374 59.4712 14.4148 59.7727 14.5457C60.0742 14.6766 60.4831 14.7501 60.9095 14.7501C61.3359 14.7501 61.7449 14.6766 62.0464 14.5457C62.3479 14.4148 62.5173 14.2374 62.5173 14.0523V7.41615C62.5173 7.23109 62.3479 7.05361 62.0464 6.92275C61.7449 6.7919 61.3359 6.71838 60.9095 6.71838Z" fill="#68D457"/>
<path d="M65.8201 6.71838C65.3937 6.71838 64.9848 6.7919 64.6833 6.92275C64.3818 7.05361 64.2124 7.23109 64.2124 7.41615V14.0523C64.1981 14.1479 64.2291 14.2438 64.3036 14.3341C64.3781 14.4243 64.4945 14.5069 64.6455 14.5769C64.7965 14.6468 64.9789 14.7025 65.1816 14.7406C65.3842 14.7788 65.6027 14.7984 65.8235 14.7984C66.0443 14.7984 66.2628 14.7788 66.4655 14.7406C66.6681 14.7025 66.8505 14.6468 67.0016 14.5769C67.1526 14.5069 67.2689 14.4243 67.3434 14.3341C67.4179 14.2438 67.449 14.1479 67.4347 14.0523V7.41615C67.4329 7.23082 67.262 7.05335 66.9594 6.92257C66.6568 6.7918 66.2471 6.71838 65.8201 6.71838Z" fill="#68D457"/>
<path d="M90.3845 6.71838C89.9575 6.71838 89.5479 6.7918 89.2453 6.92257C88.9427 7.05335 88.7718 7.23082 88.77 7.41615V14.0523C88.7557 14.1479 88.7868 14.2438 88.8612 14.3341C88.9357 14.4243 89.0521 14.5069 89.2031 14.5769C89.3541 14.6468 89.5366 14.7025 89.7392 14.7406C89.9418 14.7788 90.1603 14.7984 90.3811 14.7984C90.602 14.7984 90.8205 14.7788 91.0231 14.7406C91.2257 14.7025 91.4082 14.6468 91.5592 14.5769C91.7102 14.5069 91.8265 14.4243 91.901 14.3341C91.9755 14.2438 92.0066 14.1479 91.9923 14.0523V7.41615C91.9923 7.23109 91.8229 7.05361 91.5214 6.92275C91.2199 6.7919 90.8109 6.71838 90.3845 6.71838Z" fill="#68D457"/>
<path d="M119.853 6.71838C119.426 6.71838 119.018 6.7919 118.716 6.92275C118.415 7.05361 118.245 7.23109 118.245 7.41615V14.0523C118.245 14.2374 118.415 14.4148 118.716 14.5457C119.018 14.6766 119.426 14.7501 119.853 14.7501C120.279 14.7501 120.688 14.6766 120.99 14.5457C121.291 14.4148 121.461 14.2374 121.461 14.0523V7.41615C121.461 7.23109 121.291 7.05361 120.99 6.92275C120.688 6.7919 120.279 6.71838 119.853 6.71838Z" fill="#68D457"/>
<path d="M134.588 6.71838C134.161 6.71838 133.752 6.7919 133.451 6.92275C133.149 7.05361 132.98 7.23109 132.98 7.41615V14.0523C132.966 14.1479 132.997 14.2438 133.071 14.3341C133.146 14.4243 133.262 14.5069 133.413 14.5769C133.564 14.6468 133.747 14.7025 133.949 14.7406C134.152 14.7788 134.37 14.7984 134.591 14.7984C134.812 14.7984 135.03 14.7788 135.233 14.7406C135.436 14.7025 135.618 14.6468 135.769 14.5769C135.92 14.5069 136.037 14.4243 136.111 14.3341C136.185 14.2438 136.217 14.1479 136.202 14.0523V7.41615C136.2 7.23082 136.03 7.05335 135.727 6.92257C135.424 6.7918 135.015 6.71838 134.588 6.71838Z" fill="#68D457"/>
<path d="M139.485 6.71839C139.273 6.718 139.064 6.73576 138.868 6.77066C138.672 6.80555 138.494 6.85689 138.344 6.92172C138.194 6.98655 138.075 7.0636 137.994 7.14845C137.912 7.2333 137.871 7.32428 137.871 7.41616V14.0523C137.856 14.148 137.887 14.2439 137.962 14.3341C138.036 14.4243 138.153 14.5069 138.304 14.5769C138.455 14.6468 138.637 14.7025 138.84 14.7407C139.042 14.7788 139.261 14.7984 139.482 14.7984C139.703 14.7984 139.921 14.7788 140.124 14.7407C140.326 14.7025 140.509 14.6468 140.66 14.5769C140.811 14.5069 140.927 14.4243 141.002 14.3341C141.076 14.2439 141.107 14.148 141.093 14.0523V7.41616C141.093 7.2311 140.923 7.05362 140.622 6.92276C140.32 6.7919 139.912 6.71839 139.485 6.71839Z" fill="#68D457"/>
<path d="M159.158 6.71838C158.731 6.71838 158.322 6.7919 158.021 6.92275C157.719 7.05361 157.55 7.23109 157.55 7.41615V14.0523C157.55 14.2374 157.719 14.4148 158.021 14.5457C158.322 14.6766 158.731 14.7501 159.158 14.7501C159.584 14.7501 159.993 14.6766 160.294 14.5457C160.596 14.4148 160.765 14.2374 160.765 14.0523V7.41615C160.765 7.23109 160.596 7.05361 160.294 6.92275C159.993 6.7919 159.584 6.71838 159.158 6.71838Z" fill="#68D457"/>
<path d="M164.063 6.71838C163.636 6.71838 163.227 6.7919 162.926 6.92275C162.624 7.05361 162.455 7.23109 162.455 7.41615V14.0523C162.455 14.2374 162.624 14.4148 162.926 14.5457C163.227 14.6766 163.636 14.7501 164.063 14.7501C164.489 14.7501 164.898 14.6766 165.2 14.5457C165.501 14.4148 165.671 14.2374 165.671 14.0523V7.41615C165.671 7.23109 165.501 7.05361 165.2 6.92275C164.898 6.7919 164.489 6.71838 164.063 6.71838Z" fill="#68D457"/>
<path d="M168.974 6.71838C168.548 6.71838 168.139 6.7919 167.837 6.92275C167.536 7.05361 167.366 7.23109 167.366 7.41615V14.0523C167.366 14.2374 167.536 14.4148 167.837 14.5457C168.139 14.6766 168.548 14.7501 168.974 14.7501C169.4 14.7501 169.809 14.6766 170.111 14.5457C170.412 14.4148 170.582 14.2374 170.582 14.0523V7.41615C170.582 7.23109 170.412 7.05361 170.111 6.92275C169.809 6.7919 169.4 6.71838 168.974 6.71838Z" fill="#68D457"/>
<path d="M173.885 6.71838C173.459 6.71838 173.05 6.7919 172.748 6.92275C172.447 7.05361 172.277 7.23109 172.277 7.41615V14.0523C172.277 14.2374 172.447 14.4148 172.748 14.5457C173.05 14.6766 173.459 14.7501 173.885 14.7501C174.311 14.7501 174.72 14.6766 175.022 14.5457C175.323 14.4148 175.493 14.2374 175.493 14.0523V7.41615C175.493 7.23109 175.323 7.05361 175.022 6.92275C174.72 6.7919 174.311 6.71838 173.885 6.71838Z" fill="#68D457"/>
<path d="M2.10774 6.71838C1.68134 6.71838 1.27241 6.7919 0.970895 6.92275C0.669384 7.05361 0.5 7.23109 0.5 7.41615V14.0523C0.5 14.2374 0.669384 14.4148 0.970895 14.5457C1.27241 14.6766 1.68134 14.7501 2.10774 14.7501C2.53414 14.7501 2.94308 14.6766 3.24459 14.5457C3.5461 14.4148 3.71548 14.2374 3.71548 14.0523V7.41615C3.71548 7.23109 3.5461 7.05361 3.24459 6.92275C2.94308 6.7919 2.53414 6.71838 2.10774 6.71838Z" fill="#68D457"/>
<path d="M7.01936 6.71838C6.59296 6.71838 6.18402 6.7919 5.88251 6.92275C5.581 7.05361 5.41159 7.23109 5.41159 7.41615V14.0523C5.39729 14.1479 5.42836 14.2438 5.50285 14.3341C5.57734 14.4243 5.69368 14.5069 5.84469 14.5769C5.9957 14.6468 6.17817 14.7025 6.38079 14.7406C6.58342 14.7788 6.8019 14.7984 7.02273 14.7984C7.24356 14.7984 7.46206 14.7788 7.66469 14.7406C7.86732 14.7025 8.04979 14.6468 8.2008 14.5769C8.35181 14.5069 8.46814 14.4243 8.54263 14.3341C8.61713 14.2438 8.64818 14.1479 8.63387 14.0523V7.41615C8.63207 7.23082 8.46119 7.05335 8.1586 6.92257C7.85602 6.7918 7.44638 6.71838 7.01936 6.71838Z" fill="#68D457"/>
<path d="M11.951 6.71838C11.5246 6.71838 11.1156 6.7919 10.8141 6.92275C10.5126 7.05361 10.3432 7.23109 10.3432 7.41615V14.0523C10.3289 14.1479 10.36 14.2438 10.4345 14.3341C10.509 14.4243 10.6253 14.5069 10.7763 14.5769C10.9273 14.6468 11.1098 14.7025 11.3124 14.7406C11.515 14.7788 11.7335 14.7984 11.9544 14.7984C12.1752 14.7984 12.3937 14.7788 12.5963 14.7406C12.7989 14.7025 12.9814 14.6468 13.1324 14.5769C13.2834 14.5069 13.3998 14.4243 13.4743 14.3341C13.5488 14.2438 13.5798 14.1479 13.5655 14.0523V7.41615C13.5637 7.23082 13.3928 7.05335 13.0902 6.92257C12.7876 6.7918 12.378 6.71838 11.951 6.71838Z" fill="#68D457"/>
<path d="M95.2956 6.71838C94.8686 6.71838 94.459 6.7918 94.1564 6.92257C93.8538 7.05335 93.6829 7.23082 93.6811 7.41615V14.0523C93.6668 14.1479 93.6979 14.2438 93.7724 14.3341C93.8469 14.4243 93.9632 14.5069 94.1142 14.5769C94.2652 14.6468 94.4477 14.7025 94.6503 14.7406C94.8529 14.7788 95.0714 14.7984 95.2923 14.7984C95.5131 14.7984 95.7316 14.7788 95.9342 14.7406C96.1368 14.7025 96.3193 14.6468 96.4703 14.5769C96.6213 14.5069 96.7377 14.4243 96.8121 14.3341C96.8866 14.2438 96.9177 14.1479 96.9034 14.0523V7.41615C96.9034 7.23109 96.734 7.05361 96.4325 6.92275C96.131 6.7919 95.722 6.71838 95.2956 6.71838Z" fill="#68D457"/>
<path d="M70.7322 6.71838C70.3058 6.71838 69.8969 6.7919 69.5954 6.92275C69.2939 7.05361 69.1245 7.23109 69.1245 7.41615V14.0523C69.1102 14.1479 69.1412 14.2438 69.2157 14.3341C69.2902 14.4243 69.4066 14.5069 69.5576 14.5769C69.7086 14.6468 69.8911 14.7025 70.0937 14.7406C70.2963 14.7788 70.5148 14.7984 70.7356 14.7984C70.9565 14.7984 71.175 14.7788 71.3776 14.7406C71.5802 14.7025 71.7627 14.6468 71.9137 14.5769C72.0647 14.5069 72.181 14.4243 72.2555 14.3341C72.33 14.2438 72.3611 14.1479 72.3468 14.0523V7.41615C72.345 7.23082 72.1741 7.05335 71.8715 6.92257C71.5689 6.7918 71.1593 6.71838 70.7322 6.71838Z" fill="#68D457"/>
<path d="M21.6175 3.77429H21.6107C20.7227 3.77429 20.0029 4.08669 20.0029 4.47206V16.9995C20.0029 17.3849 20.7227 17.6973 21.6107 17.6973H21.6175C22.5054 17.6973 23.2252 17.3849 23.2252 16.9995V4.47206C23.2252 4.08669 22.5054 3.77429 21.6175 3.77429Z" fill="#68D457"/>
<path d="M31.4402 3.77429C31.0132 3.77429 30.6035 3.84771 30.3009 3.97848C29.9983 4.10926 29.8275 4.28673 29.8257 4.47206V16.9966C29.8114 17.0922 29.8424 17.1881 29.9169 17.2783C29.9914 17.3685 30.1077 17.4512 30.2588 17.5211C30.4098 17.591 30.5922 17.6468 30.7948 17.6849C30.9975 17.723 31.216 17.7427 31.4368 17.7427C31.6576 17.7427 31.8761 17.723 32.0787 17.6849C32.2814 17.6468 32.4638 17.591 32.6148 17.5211C32.7658 17.4512 32.8822 17.3685 32.9567 17.2783C33.0312 17.1881 33.0622 17.0922 33.0479 16.9966V4.47206C33.0479 4.287 32.8785 4.10952 32.577 3.97866C32.2755 3.84781 31.8666 3.77429 31.4402 3.77429Z" fill="#68D457"/>
<path d="M46.1751 3.77429C45.7487 3.77429 45.3398 3.84781 45.0383 3.97866C44.7368 4.10952 44.5674 4.287 44.5674 4.47206V16.9966C44.5674 17.1816 44.7368 17.3591 45.0383 17.4899C45.3398 17.6208 45.7487 17.6943 46.1751 17.6943C46.6015 17.6943 47.0105 17.6208 47.312 17.4899C47.6135 17.3591 47.7829 17.1816 47.7829 16.9966V4.47206C47.7829 4.287 47.6135 4.10952 47.312 3.97866C47.0105 3.84781 46.6015 3.77429 46.1751 3.77429Z" fill="#68D457"/>
<path d="M55.9974 3.77429C55.571 3.77429 55.1621 3.84781 54.8605 3.97866C54.559 4.10952 54.3896 4.287 54.3896 4.47206V16.9966C54.3896 17.1816 54.559 17.3591 54.8605 17.4899C55.1621 17.6208 55.571 17.6943 55.9974 17.6943C56.4238 17.6943 56.8327 17.6208 57.1342 17.4899C57.4357 17.3591 57.6051 17.1816 57.6051 16.9966V4.47206C57.6051 4.287 57.4357 4.10952 57.1342 3.97866C56.8327 3.84781 56.4238 3.77429 55.9974 3.77429Z" fill="#68D457"/>
<path d="M75.6434 3.77429C75.217 3.77429 74.808 3.84781 74.5065 3.97866C74.205 4.10952 74.0356 4.287 74.0356 4.47206V16.9966C74.0213 17.0922 74.0524 17.1881 74.1269 17.2783C74.2014 17.3685 74.3177 17.4512 74.4687 17.5211C74.6197 17.591 74.8022 17.6468 75.0048 17.6849C75.2074 17.723 75.4259 17.7427 75.6468 17.7427C75.8676 17.7427 76.0861 17.723 76.2887 17.6849C76.4913 17.6468 76.6738 17.591 76.8248 17.5211C76.9758 17.4512 77.0922 17.3685 77.1667 17.2783C77.2411 17.1881 77.2722 17.0922 77.2579 16.9966V4.47206C77.2561 4.28673 77.0852 4.10926 76.7826 3.97848C76.48 3.84771 76.0704 3.77429 75.6434 3.77429Z" fill="#68D457"/>
<path d="M100.207 3.77429C99.9962 3.77429 99.7872 3.79234 99.5921 3.8274C99.397 3.86247 99.2198 3.91387 99.0705 3.97866C98.9212 4.04346 98.8028 4.12037 98.722 4.20503C98.6412 4.28968 98.5996 4.38043 98.5996 4.47206V16.9966C98.5996 17.1816 98.769 17.3591 99.0705 17.4899C99.372 17.6208 99.781 17.6943 100.207 17.6943C100.634 17.6943 101.043 17.6208 101.344 17.4899C101.646 17.3591 101.815 17.1816 101.815 16.9966V4.47206C101.815 4.287 101.646 4.10952 101.344 3.97866C101.043 3.84781 100.634 3.77429 100.207 3.77429Z" fill="#68D457"/>
<path d="M105.125 3.77429H105.118C104.231 3.77429 103.511 4.08669 103.511 4.47206V16.9995C103.511 17.3849 104.231 17.6973 105.118 17.6973H105.125C106.013 17.6973 106.733 17.3849 106.733 16.9995V4.47206C106.733 4.08669 106.013 3.77429 105.125 3.77429Z" fill="#68D457"/>
<path d="M110.031 3.77429C109.604 3.77429 109.195 3.84781 108.894 3.97866C108.592 4.10952 108.423 4.287 108.423 4.47206V16.9966C108.423 17.1816 108.592 17.3591 108.894 17.4899C109.195 17.6208 109.604 17.6943 110.031 17.6943C110.457 17.6943 110.866 17.6208 111.167 17.4899C111.469 17.3591 111.638 17.1816 111.638 16.9966V4.47206C111.638 4.287 111.469 4.10952 111.167 3.97866C110.866 3.84781 110.457 3.77429 110.031 3.77429Z" fill="#68D457"/>
<path d="M114.942 3.77429C114.515 3.77429 114.106 3.84781 113.805 3.97866C113.503 4.10952 113.334 4.287 113.334 4.47206V16.9966C113.334 17.1816 113.503 17.3591 113.805 17.4899C114.106 17.6208 114.515 17.6943 114.942 17.6943C115.368 17.6943 115.777 17.6208 116.079 17.4899C116.38 17.3591 116.549 17.1816 116.549 16.9966V4.47206C116.549 4.287 116.38 4.10952 116.079 3.97866C115.777 3.84781 115.368 3.77429 114.942 3.77429Z" fill="#68D457"/>
<path d="M144.417 3.77429H144.41C143.523 3.77429 142.803 4.08669 142.803 4.47206V16.9995C142.803 17.3849 143.523 17.6973 144.41 17.6973H144.417C145.305 17.6973 146.025 17.3849 146.025 16.9995V4.47206C146.025 4.08669 145.305 3.77429 144.417 3.77429Z" fill="#68D457"/>
<path d="M154.24 3.77429C153.813 3.77429 153.403 3.84771 153.101 3.97848C152.798 4.10926 152.627 4.28673 152.625 4.47206V16.9966C152.611 17.0922 152.642 17.1881 152.717 17.2783C152.791 17.3685 152.908 17.4512 153.059 17.5211C153.21 17.591 153.392 17.6468 153.595 17.6849C153.797 17.723 154.016 17.7427 154.237 17.7427C154.457 17.7427 154.676 17.723 154.879 17.6849C155.081 17.6468 155.264 17.591 155.415 17.5211C155.566 17.4512 155.682 17.3685 155.756 17.2783C155.831 17.1881 155.862 17.0922 155.848 16.9966V4.47206C155.848 4.287 155.678 4.10952 155.377 3.97866C155.075 3.84781 154.666 3.77429 154.24 3.77429Z" fill="#68D457"/>
<path d="M26.5291 0.830078C26.102 0.830076 25.6924 0.903496 25.3898 1.03427C25.0872 1.16504 24.9163 1.34252 24.9145 1.52785V19.9407C24.9002 20.0363 24.9313 20.1322 25.0058 20.2224C25.0803 20.3127 25.1966 20.3953 25.3476 20.4652C25.4986 20.5352 25.6811 20.5909 25.8837 20.629C26.0864 20.6671 26.3048 20.6868 26.5257 20.6868C26.7465 20.6868 26.965 20.6671 27.1676 20.629C27.3702 20.5909 27.5527 20.5352 27.7037 20.4652C27.8547 20.3953 27.9711 20.3127 28.0456 20.2224C28.1201 20.1322 28.1511 20.0363 28.1368 19.9407V1.52785C28.1368 1.34279 27.9674 1.16531 27.6659 1.03445C27.3644 0.903592 26.9555 0.830078 26.5291 0.830078Z" fill="#68D457"/>
<path d="M41.263 0.830078C40.8366 0.830078 40.4277 0.903592 40.1262 1.03445C39.8247 1.16531 39.6553 1.34279 39.6553 1.52785V19.9407C39.6553 20.1257 39.8247 20.3032 40.1262 20.4341C40.4277 20.5649 40.8366 20.6385 41.263 20.6385C41.6894 20.6385 42.0984 20.5649 42.3999 20.4341C42.7014 20.3032 42.8708 20.1257 42.8708 19.9407V1.52785C42.8708 1.34279 42.7014 1.16531 42.3999 1.03445C42.0984 0.903592 41.6894 0.830078 41.263 0.830078Z" fill="#68D457"/>
<path d="M80.5545 0.830084C80.1281 0.830084 79.7192 0.903598 79.4176 1.03445C79.1161 1.16531 78.9468 1.34279 78.9468 1.52785V19.9407C78.9324 20.0363 78.9635 20.1322 79.038 20.2225C79.1125 20.3127 79.2288 20.3953 79.3798 20.4652C79.5309 20.5352 79.7133 20.5909 79.9159 20.629C80.1186 20.6671 80.3371 20.6868 80.5579 20.6868C80.7787 20.6868 80.9972 20.6671 81.1998 20.629C81.4025 20.5909 81.5849 20.5352 81.7359 20.4652C81.8869 20.3953 82.0033 20.3127 82.0778 20.2225C82.1523 20.1322 82.1833 20.0363 82.169 19.9407V1.52785C82.169 1.43597 82.1272 1.345 82.046 1.26015C81.9648 1.1753 81.8457 1.09824 81.6957 1.03341C81.5457 0.96858 81.3677 0.917242 81.1718 0.882349C80.976 0.847457 80.7662 0.829697 80.5545 0.830084Z" fill="#68D457"/>
<path d="M85.4734 0.830078C85.0464 0.830076 84.6367 0.903496 84.3341 1.03427C84.0316 1.16504 83.8607 1.34252 83.8589 1.52785V19.9407C83.8446 20.0363 83.8756 20.1322 83.9501 20.2224C84.0246 20.3127 84.1409 20.3953 84.292 20.4652C84.443 20.5352 84.6254 20.5909 84.8281 20.629C85.0307 20.6671 85.2492 20.6868 85.47 20.6868C85.6908 20.6868 85.9093 20.6671 86.1119 20.629C86.3146 20.5909 86.497 20.5352 86.648 20.4652C86.7991 20.3953 86.9154 20.3127 86.9899 20.2224C87.0644 20.1322 87.0954 20.0363 87.0811 19.9407V1.52785C87.0811 1.34279 86.9118 1.16531 86.6102 1.03445C86.3087 0.903592 85.8998 0.830078 85.4734 0.830078Z" fill="#68D457"/>
<path d="M124.764 0.830078C124.553 0.830078 124.344 0.848122 124.149 0.883188C123.954 0.918254 123.777 0.969655 123.628 1.03445C123.478 1.09924 123.36 1.17616 123.279 1.26081C123.198 1.34547 123.157 1.43621 123.157 1.52785V19.9407C123.142 20.0363 123.173 20.1322 123.248 20.2224C123.322 20.3127 123.439 20.3953 123.59 20.4652C123.741 20.5352 123.923 20.5909 124.126 20.629C124.329 20.6671 124.547 20.6868 124.768 20.6868C124.989 20.6868 125.207 20.6671 125.41 20.629C125.612 20.5909 125.795 20.5352 125.946 20.4652C126.097 20.3953 126.213 20.3127 126.288 20.2224C126.362 20.1322 126.393 20.0363 126.379 19.9407V1.52785C126.377 1.34252 126.206 1.16504 125.904 1.03427C125.601 0.903496 125.191 0.830076 124.764 0.830078Z" fill="#68D457"/>
<path d="M129.676 0.830078C129.249 0.830078 128.84 0.903592 128.539 1.03445C128.237 1.16531 128.068 1.34279 128.068 1.52785V19.9407C128.054 20.0363 128.085 20.1322 128.159 20.2224C128.234 20.3127 128.35 20.3953 128.501 20.4652C128.652 20.5352 128.834 20.5909 129.037 20.629C129.24 20.6671 129.458 20.6868 129.679 20.6868C129.9 20.6868 130.118 20.6671 130.321 20.629C130.524 20.5909 130.706 20.5352 130.857 20.4652C131.008 20.3953 131.124 20.3127 131.199 20.2224C131.273 20.1322 131.304 20.0363 131.29 19.9407V1.52785C131.288 1.34252 131.117 1.16504 130.815 1.03427C130.512 0.903496 130.103 0.830076 129.676 0.830078Z" fill="#68D457"/>
<path d="M149.328 0.830078C148.901 0.830076 148.491 0.903496 148.189 1.03427C147.886 1.16504 147.715 1.34252 147.713 1.52785V19.9407C147.699 20.0363 147.73 20.1322 147.805 20.2224C147.879 20.3127 147.995 20.3953 148.146 20.4652C148.297 20.5352 148.48 20.5909 148.683 20.629C148.885 20.6671 149.104 20.6868 149.324 20.6868C149.545 20.6868 149.764 20.6671 149.966 20.629C150.169 20.5909 150.352 20.5352 150.503 20.4652C150.654 20.3953 150.77 20.3127 150.844 20.2224C150.919 20.1322 150.95 20.0363 150.936 19.9407V1.52785C150.936 1.34279 150.766 1.16531 150.465 1.03445C150.163 0.903592 149.754 0.830078 149.328 0.830078Z" fill="#68D457"/>
</g>
<defs>
<clipPath id="clip0_1752_11868">
<rect width="175" height="19.8113" fill="white" transform="translate(0.5 0.830078)"/>
</clipPath>
</defs>
</svg>
