<svg width="32" height="33" viewBox="0 0 32 33" fill="none" xmlns="http://www.w3.org/2000/svg">
<g clip-path="url(#clip0_253_12990)">
<path d="M27.202 5.47137C25.7349 3.99073 23.9879 2.81686 22.0626 2.01818C20.1373 1.21951 18.0723 0.811986 15.988 0.819374C7.254 0.819374 0.136 7.93537 0.128 16.6714C0.128 19.4694 0.86 22.1914 2.242 24.6014L0 32.8194L8.408 30.6154C10.734 31.8812 13.3399 32.5447 15.988 32.5454H15.996C24.732 32.5454 31.848 25.4294 31.856 16.6854C31.858 14.6015 31.4476 12.5377 30.6485 10.6131C29.8494 8.68851 28.6774 6.94104 27.2 5.47137H27.202ZM15.988 29.8614C13.626 29.8622 11.3074 29.2266 9.276 28.0214L8.796 27.7334L3.808 29.0414L5.14 24.1754L4.828 23.6734C3.50761 21.574 2.80929 19.1434 2.814 16.6634C2.814 9.41137 8.728 3.49537 15.996 3.49537C17.7275 3.49227 19.4425 3.83192 21.042 4.49476C22.6416 5.15759 24.0942 6.13049 25.316 7.35737C26.5421 8.57947 27.514 10.0322 28.1758 11.6318C28.8377 13.2314 29.1762 14.9463 29.172 16.6774C29.164 23.9554 23.25 29.8614 15.988 29.8614ZM23.218 19.9934C22.824 19.7954 20.878 18.8374 20.512 18.7014C20.148 18.5714 19.882 18.5034 19.622 18.8994C19.356 19.2934 18.596 20.1914 18.368 20.4494C18.14 20.7154 17.904 20.7454 17.508 20.5494C17.114 20.3494 15.836 19.9334 14.324 18.5794C13.144 17.5294 12.354 16.2294 12.118 15.8354C11.89 15.4394 12.096 15.2274 12.294 15.0294C12.468 14.8534 12.688 14.5654 12.886 14.3374C13.086 14.1094 13.152 13.9414 13.282 13.6774C13.412 13.4094 13.35 13.1814 13.252 12.9834C13.152 12.7854 12.362 10.8314 12.028 10.0434C11.708 9.26537 11.382 9.37337 11.138 9.36337C10.91 9.34937 10.644 9.34937 10.378 9.34937C10.1771 9.35437 9.97945 9.40083 9.79739 9.48584C9.61532 9.57085 9.45279 9.69257 9.32 9.84337C8.956 10.2394 7.938 11.1974 7.938 13.1514C7.938 15.1054 9.358 16.9834 9.558 17.2494C9.754 17.5154 12.346 21.5134 16.324 23.2334C17.264 23.6434 18.004 23.8854 18.582 24.0694C19.532 24.3734 20.39 24.3274 21.074 24.2294C21.834 24.1134 23.416 23.2694 23.75 22.3434C24.078 21.4154 24.078 20.6234 23.978 20.4574C23.88 20.2894 23.614 20.1914 23.218 19.9934Z" fill="#1B1B1B"/>
</g>
<defs>
<clipPath id="clip0_253_12990">
<rect width="32" height="32" fill="white" transform="translate(0 0.819336)"/>
</clipPath>
</defs>
</svg>
