<svg width="24" height="25" viewBox="0 0 24 25" fill="none" xmlns="http://www.w3.org/2000/svg">
<g clip-path="url(#clip0_1438_9918)">
<path d="M20.4015 3.80841C19.3012 2.69792 17.9909 1.81753 16.547 1.21852C15.103 0.619509 13.5543 0.31387 11.991 0.31941C5.4405 0.31941 0.102 5.65641 0.096 12.2084C0.096 14.3069 0.645 16.3484 1.6815 18.1559L0 24.3194L6.306 22.6664C8.05051 23.6158 10.0049 24.1134 11.991 24.1139H11.997C18.549 24.1139 23.886 18.7769 23.892 12.2189C23.8935 10.656 23.5857 9.10819 22.9864 7.66473C22.3871 6.22126 21.5081 4.91066 20.4 3.80841H20.4015ZM11.991 22.1009C10.2195 22.1015 8.48055 21.6248 6.957 20.7209L6.597 20.5049L2.856 21.4859L3.855 17.8364L3.621 17.4599C2.63071 15.8854 2.10697 14.0624 2.1105 12.2024C2.1105 6.76341 6.546 2.32641 11.997 2.32641C13.2956 2.32408 14.5818 2.57882 15.7815 3.07595C16.9812 3.57307 18.0706 4.30275 18.987 5.22291C19.9065 6.13948 20.6355 7.22905 21.1319 8.42876C21.6282 9.62847 21.8822 10.9146 21.879 12.2129C21.873 17.6714 17.4375 22.1009 11.991 22.1009ZM17.4135 14.6999C17.118 14.5514 15.6585 13.8329 15.384 13.7309C15.111 13.6334 14.9115 13.5824 14.7165 13.8794C14.517 14.1749 13.947 14.8484 13.776 15.0419C13.605 15.2414 13.428 15.2639 13.131 15.1169C12.8355 14.9669 11.877 14.6549 10.743 13.6394C9.858 12.8519 9.2655 11.8769 9.0885 11.5814C8.9175 11.2844 9.072 11.1254 9.2205 10.9769C9.351 10.8449 9.516 10.6289 9.6645 10.4579C9.8145 10.2869 9.864 10.1609 9.9615 9.96291C10.059 9.76191 10.0125 9.59091 9.939 9.44241C9.864 9.29391 9.2715 7.82841 9.021 7.23741C8.781 6.65391 8.5365 6.73491 8.3535 6.72741C8.1825 6.71691 7.983 6.71691 7.7835 6.71691C7.63285 6.72065 7.48459 6.7555 7.34804 6.81926C7.21149 6.88301 7.08959 6.97431 6.99 7.08741C6.717 7.38441 5.9535 8.10291 5.9535 9.56841C5.9535 11.0339 7.0185 12.4424 7.1685 12.6419C7.3155 12.8414 9.2595 15.8399 12.243 17.1299C12.948 17.4374 13.503 17.6189 13.9365 17.7569C14.649 17.9849 15.2925 17.9504 15.8055 17.8769C16.3755 17.7899 17.562 17.1569 17.8125 16.4624C18.0585 15.7664 18.0585 15.1724 17.9835 15.0479C17.91 14.9219 17.7105 14.8484 17.4135 14.6999Z" fill="white"/>
</g>
<defs>
<clipPath id="clip0_1438_9918">
<rect width="24" height="24" fill="white" transform="translate(0 0.319336)"/>
</clipPath>
</defs>
</svg>
