<svg width="20" height="21" viewBox="0 0 20 21" fill="none" xmlns="http://www.w3.org/2000/svg">
<g clip-path="url(#clip0_1958_5756)">
<path d="M0.12746 3.34534C-0.0416121 3.98146 -0.0405084 4.65084 0.130661 5.2864C0.30183 5.92195 0.637051 6.50135 1.10272 6.96652C1.5684 7.43168 2.14816 7.76627 2.7839 7.93675C3.41964 8.10723 4.08903 8.1076 4.72496 7.93784L12.6512 15.7528C12.4865 16.3124 12.4544 16.9028 12.5576 17.4769C12.6608 18.0511 12.8964 18.5932 13.2457 19.0605C13.595 19.5277 14.0484 19.9071 14.5699 20.1685C15.0914 20.4299 15.6666 20.5662 16.25 20.5666C16.7874 20.5658 17.3184 20.4496 17.8069 20.2257C18.2955 20.0018 18.7302 19.6755 19.0817 19.269C19.4332 18.8624 19.6931 18.385 19.844 17.8692C19.9948 17.3534 20.033 16.8112 19.956 16.2793C19.879 15.7474 19.6886 15.2383 19.3977 14.7864C19.1067 14.3346 18.722 13.9505 18.2697 13.6603C17.8174 13.3701 17.3079 13.1805 16.7759 13.1044C16.2439 13.0283 15.7018 13.0674 15.1862 13.2191L7.37121 5.29284C7.5418 4.65666 7.54205 3.98681 7.37194 3.3505C7.20183 2.7142 6.86734 2.13383 6.40205 1.66765C5.93676 1.20147 5.35703 0.865878 4.72105 0.694557C4.08507 0.523236 3.41521 0.522213 2.77871 0.69159L5.45496 3.36909L4.99996 5.56659L2.80371 6.02159L0.12746 3.34534ZM16.84 14.6191L17.5 14.6516L17.8587 15.2078L18.415 15.5666L18.4475 16.2278L18.75 16.8166L18.4475 17.4053L18.415 18.0666L17.8587 18.4253L17.5 18.9816L16.8387 19.0141L16.25 19.3166L15.6612 19.0141L15 18.9816L14.6412 18.4253L14.085 18.0666L14.0525 17.4053L13.75 16.8166L14.0525 16.2278L14.085 15.5666L14.6412 15.2078L15 14.6516L15.6612 14.6191L16.25 14.3166L16.8387 14.6191H16.84Z" fill="#1B1B1B"/>
</g>
<defs>
<clipPath id="clip0_1958_5756">
<rect width="20" height="20" fill="white" transform="translate(0 0.56665)"/>
</clipPath>
</defs>
</svg>
